<svg width="180" height="119" viewBox="0 0 180 119" fill="none" xmlns="http://www.w3.org/2000/svg">
<rect width="180" height="119" transform="matrix(1 0 0 -1 0 119)" fill="#E9EBFF"/>
<rect x="10" y="63" width="160" height="20" rx="3" fill="white"/>
<rect x="10" y="91" width="160" height="20" rx="3" fill="white"/>
<path d="M22 73H129" stroke="#E9EBFF" stroke-width="5" stroke-linecap="round"/>
<path d="M22 101H80" stroke="#E9EBFF" stroke-width="5" stroke-linecap="round"/>
<rect width="160" height="27" rx="4" transform="matrix(1 0 0 -1 10 33)" fill="#3C50E0"/>
<path d="M51.6569 24.077C51.1435 24.077 50.6815 23.989 50.2709 23.813C49.8602 23.6297 49.5375 23.373 49.3029 23.043C49.0682 22.713 48.9509 22.328 48.9509 21.888H50.2929C50.3222 22.218 50.4505 22.4893 50.6779 22.702C50.9125 22.9147 51.2389 23.021 51.6569 23.021C52.0895 23.021 52.4269 22.9183 52.6689 22.713C52.9109 22.5003 53.0319 22.229 53.0319 21.899C53.0319 21.6423 52.9549 21.4333 52.8009 21.272C52.6542 21.1107 52.4672 20.986 52.2399 20.898C52.0199 20.81 51.7119 20.7147 51.3159 20.612C50.8172 20.48 50.4102 20.348 50.0949 20.216C49.7869 20.0767 49.5229 19.864 49.3029 19.578C49.0829 19.292 48.9729 18.9107 48.9729 18.434C48.9729 17.994 49.0829 17.609 49.3029 17.279C49.5229 16.949 49.8309 16.696 50.2269 16.52C50.6229 16.344 51.0812 16.256 51.6019 16.256C52.3425 16.256 52.9475 16.443 53.4169 16.817C53.8935 17.1837 54.1575 17.6897 54.2089 18.335H52.8229C52.8009 18.0563 52.6689 17.818 52.4269 17.62C52.1849 17.422 51.8659 17.323 51.4699 17.323C51.1105 17.323 50.8172 17.4147 50.5899 17.598C50.3625 17.7813 50.2489 18.0453 50.2489 18.39C50.2489 18.6247 50.3185 18.819 50.4579 18.973C50.6045 19.1197 50.7879 19.237 51.0079 19.325C51.2279 19.413 51.5285 19.5083 51.9099 19.611C52.4159 19.7503 52.8265 19.8897 53.1419 20.029C53.4645 20.1683 53.7359 20.3847 53.9559 20.678C54.1832 20.964 54.2969 21.349 54.2969 21.833C54.2969 22.2217 54.1905 22.5883 53.9779 22.933C53.7725 23.2777 53.4682 23.5563 53.0649 23.769C52.6689 23.9743 52.1995 24.077 51.6569 24.077ZM58.8455 24.099C58.2735 24.099 57.7565 23.9707 57.2945 23.714C56.8325 23.45 56.4695 23.0833 56.2055 22.614C55.9415 22.1373 55.8095 21.5873 55.8095 20.964C55.8095 20.348 55.9452 19.8017 56.2165 19.325C56.4879 18.8483 56.8582 18.4817 57.3275 18.225C57.7969 17.9683 58.3212 17.84 58.9005 17.84C59.4799 17.84 60.0042 17.9683 60.4735 18.225C60.9429 18.4817 61.3132 18.8483 61.5845 19.325C61.8559 19.8017 61.9915 20.348 61.9915 20.964C61.9915 21.58 61.8522 22.1263 61.5735 22.603C61.2949 23.0797 60.9135 23.45 60.4295 23.714C59.9529 23.9707 59.4249 24.099 58.8455 24.099ZM58.8455 23.01C59.1682 23.01 59.4689 22.933 59.7475 22.779C60.0335 22.625 60.2645 22.394 60.4405 22.086C60.6165 21.778 60.7045 21.404 60.7045 20.964C60.7045 20.524 60.6202 20.1537 60.4515 19.853C60.2829 19.545 60.0592 19.314 59.7805 19.16C59.5019 19.006 59.2012 18.929 58.8785 18.929C58.5559 18.929 58.2552 19.006 57.9765 19.16C57.7052 19.314 57.4889 19.545 57.3275 19.853C57.1662 20.1537 57.0855 20.524 57.0855 20.964C57.0855 21.6167 57.2505 22.1227 57.5805 22.482C57.9179 22.834 58.3395 23.01 58.8455 23.01ZM63.2532 20.964C63.2532 20.3407 63.3778 19.7943 63.6272 19.325C63.8838 18.8483 64.2358 18.4817 64.6832 18.225C65.1305 17.9683 65.6438 17.84 66.2232 17.84C66.9565 17.84 67.5615 18.016 68.0382 18.368C68.5222 18.7127 68.8485 19.2077 69.0172 19.853H67.6642C67.5542 19.5523 67.3782 19.3177 67.1362 19.149C66.8942 18.9803 66.5898 18.896 66.2232 18.896C65.7098 18.896 65.2992 19.0793 64.9912 19.446C64.6905 19.8053 64.5402 20.3113 64.5402 20.964C64.5402 21.6167 64.6905 22.1263 64.9912 22.493C65.2992 22.8597 65.7098 23.043 66.2232 23.043C66.9492 23.043 67.4295 22.724 67.6642 22.086H69.0172C68.8412 22.702 68.5112 23.1933 68.0272 23.56C67.5432 23.9193 66.9418 24.099 66.2232 24.099C65.6438 24.099 65.1305 23.9707 64.6832 23.714C64.2358 23.45 63.8838 23.0833 63.6272 22.614C63.3778 22.1373 63.2532 21.5873 63.2532 20.964ZM71.3449 17.136C71.1175 17.136 70.9269 17.059 70.7729 16.905C70.6189 16.751 70.5419 16.5603 70.5419 16.333C70.5419 16.1057 70.6189 15.915 70.7729 15.761C70.9269 15.607 71.1175 15.53 71.3449 15.53C71.5649 15.53 71.7519 15.607 71.9059 15.761C72.0599 15.915 72.1369 16.1057 72.1369 16.333C72.1369 16.5603 72.0599 16.751 71.9059 16.905C71.7519 17.059 71.5649 17.136 71.3449 17.136ZM71.9609 17.939V24H70.7069V17.939H71.9609ZM73.6293 20.942C73.6293 20.3333 73.7539 19.7943 74.0033 19.325C74.2599 18.8557 74.6046 18.4927 75.0373 18.236C75.4773 17.972 75.9613 17.84 76.4893 17.84C76.9659 17.84 77.3803 17.9353 77.7323 18.126C78.0916 18.3093 78.3776 18.5403 78.5903 18.819V17.939H79.8553V24H78.5903V23.098C78.3776 23.384 78.0879 23.6223 77.7213 23.813C77.3546 24.0037 76.9366 24.099 76.4673 24.099C75.9466 24.099 75.4699 23.967 75.0373 23.703C74.6046 23.4317 74.2599 23.0577 74.0033 22.581C73.7539 22.097 73.6293 21.5507 73.6293 20.942ZM78.5903 20.964C78.5903 20.546 78.5023 20.183 78.3263 19.875C78.1576 19.567 77.9339 19.3323 77.6553 19.171C77.3766 19.0097 77.0759 18.929 76.7533 18.929C76.4306 18.929 76.1299 19.0097 75.8513 19.171C75.5726 19.325 75.3453 19.556 75.1693 19.864C75.0006 20.1647 74.9163 20.524 74.9163 20.942C74.9163 21.36 75.0006 21.7267 75.1693 22.042C75.3453 22.3573 75.5726 22.5993 75.8513 22.768C76.1373 22.9293 76.4379 23.01 76.7533 23.01C77.0759 23.01 77.3766 22.9293 77.6553 22.768C77.9339 22.6067 78.1576 22.372 78.3263 22.064C78.5023 21.7487 78.5903 21.382 78.5903 20.964ZM83.1963 15.86V24H81.9423V15.86H83.1963ZM92.6722 20.073C93.0828 20.1463 93.4312 20.3627 93.7172 20.722C94.0032 21.0813 94.1462 21.4883 94.1462 21.943C94.1462 22.3317 94.0435 22.6837 93.8382 22.999C93.6402 23.307 93.3505 23.5527 92.9692 23.736C92.5878 23.912 92.1442 24 91.6382 24H88.5802V16.355H91.4952C92.0158 16.355 92.4632 16.443 92.8372 16.619C93.2112 16.795 93.4935 17.0333 93.6842 17.334C93.8748 17.6273 93.9702 17.9573 93.9702 18.324C93.9702 18.764 93.8528 19.1307 93.6182 19.424C93.3835 19.7173 93.0682 19.9337 92.6722 20.073ZM89.8342 19.567H91.3852C91.7958 19.567 92.1148 19.4753 92.3422 19.292C92.5768 19.1013 92.6942 18.83 92.6942 18.478C92.6942 18.1333 92.5768 17.8657 92.3422 17.675C92.1148 17.477 91.7958 17.378 91.3852 17.378H89.8342V19.567ZM91.5282 22.977C91.9535 22.977 92.2872 22.8743 92.5292 22.669C92.7712 22.4637 92.8922 22.1777 92.8922 21.811C92.8922 21.437 92.7638 21.14 92.5072 20.92C92.2505 20.7 91.9095 20.59 91.4842 20.59H89.8342V22.977H91.5282ZM101.438 17.939V24H100.184V23.285C99.9859 23.5343 99.7255 23.7323 99.4029 23.879C99.0875 24.0183 98.7502 24.088 98.3909 24.088C97.9142 24.088 97.4852 23.989 97.1039 23.791C96.7299 23.593 96.4329 23.2997 96.2129 22.911C96.0002 22.5223 95.8939 22.053 95.8939 21.503V17.939H97.1369V21.316C97.1369 21.8587 97.2725 22.2767 97.5439 22.57C97.8152 22.856 98.1855 22.999 98.6549 22.999C99.1242 22.999 99.4945 22.856 99.7659 22.57C100.045 22.2767 100.184 21.8587 100.184 21.316V17.939H101.438ZM104.995 18.962V22.317C104.995 22.5443 105.047 22.7093 105.149 22.812C105.259 22.9073 105.443 22.955 105.699 22.955H106.469V24H105.479C104.915 24 104.482 23.868 104.181 23.604C103.881 23.34 103.73 22.911 103.73 22.317V18.962H103.015V17.939H103.73V16.432H104.995V17.939H106.469V18.962H104.995ZM109.528 18.962V22.317C109.528 22.5443 109.58 22.7093 109.682 22.812C109.792 22.9073 109.976 22.955 110.232 22.955H111.002V24H110.012C109.448 24 109.015 23.868 108.714 23.604C108.414 23.34 108.263 22.911 108.263 22.317V18.962H107.548V17.939H108.263V16.432H109.528V17.939H111.002V18.962H109.528ZM115.227 24.099C114.655 24.099 114.138 23.9707 113.676 23.714C113.214 23.45 112.851 23.0833 112.587 22.614C112.323 22.1373 112.191 21.5873 112.191 20.964C112.191 20.348 112.327 19.8017 112.598 19.325C112.869 18.8483 113.24 18.4817 113.709 18.225C114.178 17.9683 114.703 17.84 115.282 17.84C115.861 17.84 116.386 17.9683 116.855 18.225C117.324 18.4817 117.695 18.8483 117.966 19.325C118.237 19.8017 118.373 20.348 118.373 20.964C118.373 21.58 118.234 22.1263 117.955 22.603C117.676 23.0797 117.295 23.45 116.811 23.714C116.334 23.9707 115.806 24.099 115.227 24.099ZM115.227 23.01C115.55 23.01 115.85 22.933 116.129 22.779C116.415 22.625 116.646 22.394 116.822 22.086C116.998 21.778 117.086 21.404 117.086 20.964C117.086 20.524 117.002 20.1537 116.833 19.853C116.664 19.545 116.441 19.314 116.162 19.16C115.883 19.006 115.583 18.929 115.26 18.929C114.937 18.929 114.637 19.006 114.358 19.16C114.087 19.314 113.87 19.545 113.709 19.853C113.548 20.1537 113.467 20.524 113.467 20.964C113.467 21.6167 113.632 22.1227 113.962 22.482C114.299 22.834 114.721 23.01 115.227 23.01ZM123.111 17.84C123.587 17.84 124.013 17.939 124.387 18.137C124.768 18.335 125.065 18.6283 125.278 19.017C125.49 19.4057 125.597 19.875 125.597 20.425V24H124.354V20.612C124.354 20.0693 124.218 19.655 123.947 19.369C123.675 19.0757 123.305 18.929 122.836 18.929C122.366 18.929 121.992 19.0757 121.714 19.369C121.442 19.655 121.307 20.0693 121.307 20.612V24H120.053V17.939H121.307V18.632C121.512 18.3827 121.772 18.1883 122.088 18.049C122.41 17.9097 122.751 17.84 123.111 17.84ZM129.836 24.099C129.36 24.099 128.931 24.0147 128.549 23.846C128.175 23.67 127.878 23.4353 127.658 23.142C127.438 22.8413 127.321 22.5077 127.306 22.141H128.604C128.626 22.3977 128.747 22.614 128.967 22.79C129.195 22.9587 129.477 23.043 129.814 23.043C130.166 23.043 130.438 22.977 130.628 22.845C130.826 22.7057 130.925 22.5297 130.925 22.317C130.925 22.0897 130.815 21.921 130.595 21.811C130.383 21.701 130.042 21.58 129.572 21.448C129.118 21.3233 128.747 21.2023 128.461 21.085C128.175 20.9677 127.926 20.788 127.713 20.546C127.508 20.304 127.405 19.985 127.405 19.589C127.405 19.2663 127.501 18.973 127.691 18.709C127.882 18.4377 128.153 18.225 128.505 18.071C128.865 17.917 129.275 17.84 129.737 17.84C130.427 17.84 130.98 18.016 131.398 18.368C131.824 18.7127 132.051 19.1857 132.08 19.787H130.826C130.804 19.5157 130.694 19.2993 130.496 19.138C130.298 18.9767 130.031 18.896 129.693 18.896C129.363 18.896 129.11 18.9583 128.934 19.083C128.758 19.2077 128.67 19.3727 128.67 19.578C128.67 19.7393 128.729 19.875 128.846 19.985C128.964 20.095 129.107 20.183 129.275 20.249C129.444 20.3077 129.693 20.3847 130.023 20.48C130.463 20.5973 130.823 20.7183 131.101 20.843C131.387 20.9603 131.633 21.1363 131.838 21.371C132.044 21.6057 132.15 21.9173 132.157 22.306C132.157 22.6507 132.062 22.9587 131.871 23.23C131.681 23.5013 131.409 23.714 131.057 23.868C130.713 24.022 130.306 24.099 129.836 24.099Z" fill="white"/>
<line opacity="0.1" y1="-0.5" x2="142" y2="-0.5" transform="matrix(1 0 0 -1 22 47)" stroke="black"/>
<rect width="24" height="9" transform="matrix(1 0 0 -1 81 52)" fill="#E9EBFF"/>
<path d="M87.3011 52.07C86.6478 52.07 86.0478 51.9167 85.5011 51.61C84.9544 51.3033 84.5211 50.88 84.2011 50.34C83.8811 49.7933 83.7211 49.1767 83.7211 48.49C83.7211 47.81 83.8811 47.2 84.2011 46.66C84.5211 46.1133 84.9544 45.6867 85.5011 45.38C86.0478 45.0733 86.6478 44.92 87.3011 44.92C87.9611 44.92 88.5611 45.0733 89.1011 45.38C89.6478 45.6867 90.0778 46.1133 90.3911 46.66C90.7111 47.2 90.8711 47.81 90.8711 48.49C90.8711 49.1767 90.7111 49.7933 90.3911 50.34C90.0778 50.88 89.6478 51.3033 89.1011 51.61C88.5544 51.9167 87.9544 52.07 87.3011 52.07ZM87.3011 50.82C87.7211 50.82 88.0911 50.7267 88.4111 50.54C88.7311 50.3467 88.9811 50.0733 89.1611 49.72C89.3411 49.3667 89.4311 48.9567 89.4311 48.49C89.4311 48.0233 89.3411 47.6167 89.1611 47.27C88.9811 46.9167 88.7311 46.6467 88.4111 46.46C88.0911 46.2733 87.7211 46.18 87.3011 46.18C86.8811 46.18 86.5078 46.2733 86.1811 46.46C85.8611 46.6467 85.6111 46.9167 85.4311 47.27C85.2511 47.6167 85.1611 48.0233 85.1611 48.49C85.1611 48.9567 85.2511 49.3667 85.4311 49.72C85.6111 50.0733 85.8611 50.3467 86.1811 50.54C86.5078 50.7267 86.8811 50.82 87.3011 50.82ZM95.5127 52L93.9727 49.28H93.3127V52H91.9127V45.02H94.5327C95.0727 45.02 95.5327 45.1167 95.9127 45.31C96.2927 45.4967 96.576 45.7533 96.7627 46.08C96.956 46.4 97.0527 46.76 97.0527 47.16C97.0527 47.62 96.9193 48.0367 96.6527 48.41C96.386 48.7767 95.9893 49.03 95.4627 49.17L97.1327 52H95.5127ZM93.3127 48.23H94.4827C94.8627 48.23 95.146 48.14 95.3327 47.96C95.5193 47.7733 95.6127 47.5167 95.6127 47.19C95.6127 46.87 95.5193 46.6233 95.3327 46.45C95.146 46.27 94.8627 46.18 94.4827 46.18H93.3127V48.23Z" fill="#515151"/>
</svg>
