<svg width="86" height="26" viewBox="0 0 86 26" fill="none" xmlns="http://www.w3.org/2000/svg">
<path d="M53.3531 20.3328C48.3555 24.0283 41.1118 26 34.8751 26C26.1302 26 18.2575 22.7552 12.3016 17.3584C11.8336 16.934 12.2529 16.3556 12.8145 16.6861C19.2421 20.438 27.1896 22.6951 35.3992 22.6951C40.9359 22.6951 47.0266 21.5459 52.6269 19.1611C53.4729 18.8005 54.1805 19.7169 53.3531 20.3328Z" fill="#FF9900"/>
<path d="M55.4308 17.9479C54.7944 17.1292 51.2081 17.5611 49.5984 17.7526C49.108 17.8127 49.0331 17.3846 49.4749 17.0766C52.3312 15.0599 57.0181 15.642 57.5646 16.318C58.1112 16.9977 57.4224 21.711 54.7383 23.9606C54.3265 24.3061 53.9334 24.1221 54.1169 23.6639C54.7196 22.1542 56.071 18.7704 55.4308 17.9479Z" fill="#FF9900"/>
<path d="M49.7106 2.83918V0.878767C49.7106 0.582075 49.9352 0.383029 50.2047 0.383029H58.9534C59.2341 0.383029 59.4588 0.585831 59.4588 0.878767V2.55752C59.455 2.83918 59.2192 3.20723 58.7999 3.78935L54.2665 10.2828C55.9511 10.2415 57.7292 10.4931 59.2566 11.3569C59.601 11.5522 59.6946 11.8376 59.7208 12.1192V14.2111C59.7208 14.4965 59.4063 14.8308 59.0769 14.658C56.3853 13.2422 52.8102 13.0882 49.8341 14.6731C49.5309 14.8383 49.2127 14.5078 49.2127 14.2224V12.2357C49.2127 11.9164 49.2164 11.3719 49.5346 10.8874L54.7868 3.33117H50.216C49.9352 3.33117 49.7106 3.13212 49.7106 2.83918Z" fill="#221F1F"/>
<path d="M17.7966 15.0712H15.1349C14.8804 15.0525 14.6782 14.8609 14.6595 14.6168V0.912665C14.6595 0.638507 14.8879 0.420681 15.1724 0.420681H17.6543C17.9126 0.431941 18.1185 0.630994 18.1373 0.878862V2.67028H18.1859C18.8335 0.938952 20.0502 0.1315 21.6899 0.1315C23.3557 0.1315 24.3964 0.938952 25.1451 2.67028C25.789 0.938952 27.2527 0.1315 28.8213 0.1315C29.9369 0.1315 31.1572 0.593437 31.9022 1.62998C32.7445 2.78295 32.5723 4.45794 32.5723 5.92638L32.5686 14.5755C32.5686 14.8497 32.3402 15.0712 32.0557 15.0712H29.3978C29.132 15.0525 28.9186 14.8384 28.9186 14.5755V7.31219C28.9186 6.73383 28.971 5.29168 28.8438 4.74336C28.6453 3.82325 28.0501 3.56411 27.279 3.56411C26.6351 3.56411 25.9612 3.996 25.688 4.68703C25.4147 5.37806 25.4409 6.53478 25.4409 7.31219V14.5755C25.4409 14.8497 25.2125 15.0712 24.928 15.0712H22.2701C22.0006 15.0525 21.7909 14.8384 21.7909 14.5755L21.7872 7.31219C21.7872 5.78367 22.038 3.53406 20.1475 3.53406C18.2346 3.53406 18.3095 5.72733 18.3095 7.31219V14.5755C18.3095 14.8497 18.0811 15.0712 17.7966 15.0712Z" fill="#221F1F"/>
<path d="M66.9904 0.1315C70.9399 0.1315 73.0774 3.53406 73.0774 7.86051C73.0774 12.0405 70.7153 15.3567 66.9904 15.3567C63.1121 15.3567 61.0008 11.9541 61.0008 7.71404C61.0008 3.44769 63.1384 0.1315 66.9904 0.1315ZM67.0129 2.92942C65.0513 2.92942 64.9278 5.61091 64.9278 7.28215C64.9278 8.95714 64.9016 12.5325 66.9904 12.5325C69.0531 12.5325 69.1505 9.64817 69.1505 7.89055C69.1505 6.73383 69.1018 5.35177 68.7536 4.25514C68.4542 3.30122 67.8589 2.92942 67.0129 2.92942Z" fill="#221F1F"/>
<path d="M78.1985 15.0712H75.5481C75.2823 15.0525 75.0689 14.8384 75.0689 14.5755L75.0651 0.867596C75.0876 0.615971 75.3085 0.420681 75.578 0.420681H78.045C78.2771 0.431941 78.468 0.589683 78.5204 0.803752V2.89937H78.5691C79.314 1.02533 80.3585 0.1315 82.1966 0.1315C83.3907 0.1315 84.555 0.563394 85.3037 1.7464C86 2.84304 86 4.68703 86 6.01275V14.6393C85.97 14.8797 85.7492 15.0712 85.4871 15.0712H82.818C82.5747 15.0525 82.3725 14.8722 82.3463 14.6393V7.19577C82.3463 5.69729 82.5185 3.50402 80.6804 3.50402C80.0328 3.50402 79.4376 3.93967 79.1418 4.60065C78.7675 5.43815 78.7188 6.27189 78.7188 7.19577V14.5755C78.7151 14.8497 78.483 15.0712 78.1985 15.0712Z" fill="#221F1F"/>
<path d="M42.7361 8.52519V7.94683C40.812 7.94683 38.7792 8.35995 38.7792 10.6358C38.7792 11.7888 39.3745 12.57 40.3964 12.57C41.1451 12.57 41.8152 12.108 42.2383 11.3569C42.7623 10.433 42.7361 9.56549 42.7361 8.52519ZM45.4202 15.0336C45.2443 15.1914 44.9897 15.2026 44.7913 15.0975C43.9079 14.3614 43.7506 14.0196 43.264 13.3173C41.804 14.812 40.7708 15.259 38.8766 15.259C36.6379 15.259 34.8934 13.8732 34.8934 11.0978C34.8934 8.93079 36.0652 7.45485 37.731 6.73377C39.176 6.09532 41.1938 5.98266 42.7361 5.80614V5.46063C42.7361 4.82593 42.7848 4.07481 42.4142 3.5265C42.0885 3.03452 41.4671 2.83171 40.9205 2.83171C39.906 2.83171 39.0001 3.35374 38.7792 4.43535C38.7343 4.67571 38.5584 4.91231 38.3188 4.92358L35.7357 4.64566C35.5186 4.59684 35.279 4.42033 35.3389 4.08608C35.9341 0.946411 38.7605 0 41.2911 0C42.5864 0 44.2785 0.345514 45.3005 1.32948C46.5957 2.54253 46.4722 4.16119 46.4722 5.92257V10.0838C46.4722 11.3344 46.9888 11.8827 47.4755 12.5587C47.6477 12.7991 47.6851 13.0882 47.468 13.2685C46.9252 13.7229 45.9593 14.5679 45.4277 15.0411L45.4202 15.0336Z" fill="#221F1F"/>
<path d="M7.8427 8.52519V7.94683C5.91852 7.94683 3.88578 8.35995 3.88578 10.6358C3.88578 11.7888 4.481 12.57 5.50299 12.57C6.2517 12.57 6.92179 12.108 7.34481 11.3569C7.8689 10.433 7.8427 9.56549 7.8427 8.52519ZM10.5268 15.0336C10.3509 15.1914 10.0963 15.2026 9.89789 15.0975C9.01442 14.3614 8.85719 14.0196 8.37053 13.3173C6.91056 14.812 5.87734 15.259 3.98311 15.259C1.74448 15.259 0 13.8732 0 11.0978C0 8.93079 1.17172 7.45485 2.8376 6.73377C4.2826 6.09532 6.30036 5.98266 7.8427 5.80614V5.46063C7.8427 4.82593 7.89136 4.07481 7.52075 3.5265C7.19506 3.03452 6.57364 2.83171 6.02708 2.83171C5.01259 2.83171 4.10665 3.35374 3.88578 4.43535C3.84086 4.67571 3.66492 4.91231 3.42533 4.92358L0.842295 4.64566C0.625169 4.59684 0.385583 4.42033 0.44548 4.08608C1.0407 0.946411 3.86707 0 6.39769 0C7.69295 0 9.38503 0.345514 10.407 1.32948C11.7023 2.54253 11.5787 4.16119 11.5787 5.92257V10.0838C11.5787 11.3344 12.0953 11.8827 12.582 12.5587C12.7542 12.7991 12.7916 13.0882 12.5745 13.2685C12.0317 13.7229 11.0659 14.5679 10.5343 15.0411L10.5268 15.0336Z" fill="#221F1F"/>
</svg>