<svg width="180" height="119" viewBox="0 0 180 119" fill="none" xmlns="http://www.w3.org/2000/svg">
<rect width="180" height="119" rx="5" fill="#E9EBFF"/>
<rect x="10" y="11" width="160" height="20" rx="3" fill="white"/>
<rect x="10" y="39" width="160" height="20" rx="3" fill="white"/>
<path d="M19 21H126" stroke="#E9EBFF" stroke-width="5" stroke-linecap="round"/>
<path d="M19 49H77" stroke="#E9EBFF" stroke-width="5" stroke-linecap="round"/>
<rect x="10" y="86" width="160" height="27" rx="4" fill="#3C50E0"/>
<path d="M51.0878 104.077C50.5744 104.077 50.1124 103.989 49.7018 103.813C49.2911 103.63 48.9684 103.373 48.7338 103.043C48.4991 102.713 48.3818 102.328 48.3818 101.888H49.7238C49.7531 102.218 49.8814 102.489 50.1088 102.702C50.3434 102.915 50.6698 103.021 51.0878 103.021C51.5204 103.021 51.8578 102.918 52.0998 102.713C52.3418 102.5 52.4628 102.229 52.4628 101.899C52.4628 101.642 52.3858 101.433 52.2318 101.272C52.0851 101.111 51.8981 100.986 51.6708 100.898C51.4508 100.81 51.1428 100.715 50.7468 100.612C50.2481 100.48 49.8411 100.348 49.5258 100.216C49.2178 100.077 48.9538 99.864 48.7338 99.578C48.5138 99.292 48.4038 98.9107 48.4038 98.434C48.4038 97.994 48.5138 97.609 48.7338 97.279C48.9538 96.949 49.2618 96.696 49.6578 96.52C50.0538 96.344 50.5121 96.256 51.0328 96.256C51.7734 96.256 52.3784 96.443 52.8478 96.817C53.3244 97.1837 53.5884 97.6897 53.6398 98.335H52.2538C52.2318 98.0563 52.0998 97.818 51.8578 97.62C51.6158 97.422 51.2968 97.323 50.9008 97.323C50.5414 97.323 50.2481 97.4147 50.0208 97.598C49.7934 97.7813 49.6798 98.0453 49.6798 98.39C49.6798 98.6247 49.7494 98.819 49.8888 98.973C50.0354 99.1197 50.2188 99.237 50.4388 99.325C50.6588 99.413 50.9594 99.5083 51.3408 99.611C51.8468 99.7503 52.2574 99.8897 52.5728 100.029C52.8954 100.168 53.1668 100.385 53.3868 100.678C53.6141 100.964 53.7278 101.349 53.7278 101.833C53.7278 102.222 53.6214 102.588 53.4088 102.933C53.2034 103.278 52.8991 103.556 52.4958 103.769C52.0998 103.974 51.6304 104.077 51.0878 104.077ZM58.2764 104.099C57.7044 104.099 57.1874 103.971 56.7254 103.714C56.2634 103.45 55.9004 103.083 55.6364 102.614C55.3724 102.137 55.2404 101.587 55.2404 100.964C55.2404 100.348 55.3761 99.8017 55.6474 99.325C55.9188 98.8483 56.2891 98.4817 56.7584 98.225C57.2278 97.9683 57.7521 97.84 58.3314 97.84C58.9108 97.84 59.4351 97.9683 59.9044 98.225C60.3738 98.4817 60.7441 98.8483 61.0154 99.325C61.2868 99.8017 61.4224 100.348 61.4224 100.964C61.4224 101.58 61.2831 102.126 61.0044 102.603C60.7258 103.08 60.3444 103.45 59.8604 103.714C59.3838 103.971 58.8558 104.099 58.2764 104.099ZM58.2764 103.01C58.5991 103.01 58.8998 102.933 59.1784 102.779C59.4644 102.625 59.6954 102.394 59.8714 102.086C60.0474 101.778 60.1354 101.404 60.1354 100.964C60.1354 100.524 60.0511 100.154 59.8824 99.853C59.7138 99.545 59.4901 99.314 59.2114 99.16C58.9328 99.006 58.6321 98.929 58.3094 98.929C57.9868 98.929 57.6861 99.006 57.4074 99.16C57.1361 99.314 56.9198 99.545 56.7584 99.853C56.5971 100.154 56.5164 100.524 56.5164 100.964C56.5164 101.617 56.6814 102.123 57.0114 102.482C57.3488 102.834 57.7704 103.01 58.2764 103.01ZM62.6841 100.964C62.6841 100.341 62.8088 99.7943 63.0581 99.325C63.3148 98.8483 63.6668 98.4817 64.1141 98.225C64.5614 97.9683 65.0748 97.84 65.6541 97.84C66.3874 97.84 66.9924 98.016 67.4691 98.368C67.9531 98.7127 68.2794 99.2077 68.4481 99.853H67.0951C66.9851 99.5523 66.8091 99.3177 66.5671 99.149C66.3251 98.9803 66.0208 98.896 65.6541 98.896C65.1408 98.896 64.7301 99.0793 64.4221 99.446C64.1214 99.8053 63.9711 100.311 63.9711 100.964C63.9711 101.617 64.1214 102.126 64.4221 102.493C64.7301 102.86 65.1408 103.043 65.6541 103.043C66.3801 103.043 66.8604 102.724 67.0951 102.086H68.4481C68.2721 102.702 67.9421 103.193 67.4581 103.56C66.9741 103.919 66.3728 104.099 65.6541 104.099C65.0748 104.099 64.5614 103.971 64.1141 103.714C63.6668 103.45 63.3148 103.083 63.0581 102.614C62.8088 102.137 62.6841 101.587 62.6841 100.964ZM70.7758 97.136C70.5485 97.136 70.3578 97.059 70.2038 96.905C70.0498 96.751 69.9728 96.5603 69.9728 96.333C69.9728 96.1057 70.0498 95.915 70.2038 95.761C70.3578 95.607 70.5485 95.53 70.7758 95.53C70.9958 95.53 71.1828 95.607 71.3368 95.761C71.4908 95.915 71.5678 96.1057 71.5678 96.333C71.5678 96.5603 71.4908 96.751 71.3368 96.905C71.1828 97.059 70.9958 97.136 70.7758 97.136ZM71.3918 97.939V104H70.1378V97.939H71.3918ZM73.0602 100.942C73.0602 100.333 73.1849 99.7943 73.4342 99.325C73.6909 98.8557 74.0355 98.4927 74.4682 98.236C74.9082 97.972 75.3922 97.84 75.9202 97.84C76.3969 97.84 76.8112 97.9353 77.1632 98.126C77.5225 98.3093 77.8085 98.5403 78.0212 98.819V97.939H79.2862V104H78.0212V103.098C77.8085 103.384 77.5189 103.622 77.1522 103.813C76.7855 104.004 76.3675 104.099 75.8982 104.099C75.3775 104.099 74.9009 103.967 74.4682 103.703C74.0355 103.432 73.6909 103.058 73.4342 102.581C73.1849 102.097 73.0602 101.551 73.0602 100.942ZM78.0212 100.964C78.0212 100.546 77.9332 100.183 77.7572 99.875C77.5885 99.567 77.3649 99.3323 77.0862 99.171C76.8075 99.0097 76.5069 98.929 76.1842 98.929C75.8615 98.929 75.5609 99.0097 75.2822 99.171C75.0035 99.325 74.7762 99.556 74.6002 99.864C74.4315 100.165 74.3472 100.524 74.3472 100.942C74.3472 101.36 74.4315 101.727 74.6002 102.042C74.7762 102.357 75.0035 102.599 75.2822 102.768C75.5682 102.929 75.8689 103.01 76.1842 103.01C76.5069 103.01 76.8075 102.929 77.0862 102.768C77.3649 102.607 77.5885 102.372 77.7572 102.064C77.9332 101.749 78.0212 101.382 78.0212 100.964ZM82.6273 95.86V104H81.3733V95.86H82.6273ZM92.1031 100.073C92.5137 100.146 92.8621 100.363 93.1481 100.722C93.4341 101.081 93.5771 101.488 93.5771 101.943C93.5771 102.332 93.4744 102.684 93.2691 102.999C93.0711 103.307 92.7814 103.553 92.4001 103.736C92.0187 103.912 91.5751 104 91.0691 104H88.0111V96.355H90.9261C91.4467 96.355 91.8941 96.443 92.2681 96.619C92.6421 96.795 92.9244 97.0333 93.1151 97.334C93.3057 97.6273 93.4011 97.9573 93.4011 98.324C93.4011 98.764 93.2837 99.1307 93.0491 99.424C92.8144 99.7173 92.4991 99.9337 92.1031 100.073ZM89.2651 99.567H90.8161C91.2267 99.567 91.5457 99.4753 91.7731 99.292C92.0077 99.1013 92.1251 98.83 92.1251 98.478C92.1251 98.1333 92.0077 97.8657 91.7731 97.675C91.5457 97.477 91.2267 97.378 90.8161 97.378H89.2651V99.567ZM90.9591 102.977C91.3844 102.977 91.7181 102.874 91.9601 102.669C92.2021 102.464 92.3231 102.178 92.3231 101.811C92.3231 101.437 92.1947 101.14 91.9381 100.92C91.6814 100.7 91.3404 100.59 90.9151 100.59H89.2651V102.977H90.9591ZM100.869 97.939V104H99.6148V103.285C99.4168 103.534 99.1565 103.732 98.8338 103.879C98.5185 104.018 98.1811 104.088 97.8218 104.088C97.3451 104.088 96.9161 103.989 96.5348 103.791C96.1608 103.593 95.8638 103.3 95.6438 102.911C95.4311 102.522 95.3248 102.053 95.3248 101.503V97.939H96.5678V101.316C96.5678 101.859 96.7035 102.277 96.9748 102.57C97.2461 102.856 97.6165 102.999 98.0858 102.999C98.5551 102.999 98.9255 102.856 99.1968 102.57C99.4755 102.277 99.6148 101.859 99.6148 101.316V97.939H100.869ZM104.426 98.962V102.317C104.426 102.544 104.478 102.709 104.58 102.812C104.69 102.907 104.874 102.955 105.13 102.955H105.9V104H104.91C104.346 104 103.913 103.868 103.612 103.604C103.312 103.34 103.161 102.911 103.161 102.317V98.962H102.446V97.939H103.161V96.432H104.426V97.939H105.9V98.962H104.426ZM108.959 98.962V102.317C108.959 102.544 109.01 102.709 109.113 102.812C109.223 102.907 109.406 102.955 109.663 102.955H110.433V104H109.443C108.878 104 108.446 103.868 108.145 103.604C107.844 103.34 107.694 102.911 107.694 102.317V98.962H106.979V97.939H107.694V96.432H108.959V97.939H110.433V98.962H108.959ZM114.658 104.099C114.086 104.099 113.569 103.971 113.107 103.714C112.645 103.45 112.282 103.083 112.018 102.614C111.754 102.137 111.622 101.587 111.622 100.964C111.622 100.348 111.758 99.8017 112.029 99.325C112.3 98.8483 112.671 98.4817 113.14 98.225C113.609 97.9683 114.134 97.84 114.713 97.84C115.292 97.84 115.817 97.9683 116.286 98.225C116.755 98.4817 117.126 98.8483 117.397 99.325C117.668 99.8017 117.804 100.348 117.804 100.964C117.804 101.58 117.665 102.126 117.386 102.603C117.107 103.08 116.726 103.45 116.242 103.714C115.765 103.971 115.237 104.099 114.658 104.099ZM114.658 103.01C114.981 103.01 115.281 102.933 115.56 102.779C115.846 102.625 116.077 102.394 116.253 102.086C116.429 101.778 116.517 101.404 116.517 100.964C116.517 100.524 116.433 100.154 116.264 99.853C116.095 99.545 115.872 99.314 115.593 99.16C115.314 99.006 115.014 98.929 114.691 98.929C114.368 98.929 114.068 99.006 113.789 99.16C113.518 99.314 113.301 99.545 113.14 99.853C112.979 100.154 112.898 100.524 112.898 100.964C112.898 101.617 113.063 102.123 113.393 102.482C113.73 102.834 114.152 103.01 114.658 103.01ZM122.542 97.84C123.018 97.84 123.444 97.939 123.818 98.137C124.199 98.335 124.496 98.6283 124.709 99.017C124.921 99.4057 125.028 99.875 125.028 100.425V104H123.785V100.612C123.785 100.069 123.649 99.655 123.378 99.369C123.106 99.0757 122.736 98.929 122.267 98.929C121.797 98.929 121.423 99.0757 121.145 99.369C120.873 99.655 120.738 100.069 120.738 100.612V104H119.484V97.939H120.738V98.632C120.943 98.3827 121.203 98.1883 121.519 98.049C121.841 97.9097 122.182 97.84 122.542 97.84ZM129.267 104.099C128.79 104.099 128.361 104.015 127.98 103.846C127.606 103.67 127.309 103.435 127.089 103.142C126.869 102.841 126.752 102.508 126.737 102.141H128.035C128.057 102.398 128.178 102.614 128.398 102.79C128.625 102.959 128.908 103.043 129.245 103.043C129.597 103.043 129.868 102.977 130.059 102.845C130.257 102.706 130.356 102.53 130.356 102.317C130.356 102.09 130.246 101.921 130.026 101.811C129.813 101.701 129.472 101.58 129.003 101.448C128.548 101.323 128.178 101.202 127.892 101.085C127.606 100.968 127.357 100.788 127.144 100.546C126.939 100.304 126.836 99.985 126.836 99.589C126.836 99.2663 126.931 98.973 127.122 98.709C127.313 98.4377 127.584 98.225 127.936 98.071C128.295 97.917 128.706 97.84 129.168 97.84C129.857 97.84 130.411 98.016 130.829 98.368C131.254 98.7127 131.482 99.1857 131.511 99.787H130.257C130.235 99.5157 130.125 99.2993 129.927 99.138C129.729 98.9767 129.461 98.896 129.124 98.896C128.794 98.896 128.541 98.9583 128.365 99.083C128.189 99.2077 128.101 99.3727 128.101 99.578C128.101 99.7393 128.16 99.875 128.277 99.985C128.394 100.095 128.537 100.183 128.706 100.249C128.875 100.308 129.124 100.385 129.454 100.48C129.894 100.597 130.253 100.718 130.532 100.843C130.818 100.96 131.064 101.136 131.269 101.371C131.474 101.606 131.581 101.917 131.588 102.306C131.588 102.651 131.493 102.959 131.302 103.23C131.111 103.501 130.84 103.714 130.488 103.868C130.143 104.022 129.736 104.099 129.267 104.099Z" fill="white"/>
<line opacity="0.1" x1="8" y1="72.5" x2="171" y2="72.5" stroke="black"/>
<rect x="76" y="68" width="27.6316" height="9" fill="#E9EBFF"/>
<path d="M86.436 76.07C85.7826 76.07 85.1826 75.9167 84.636 75.61C84.0893 75.3033 83.656 74.88 83.336 74.34C83.016 73.7933 82.856 73.1767 82.856 72.49C82.856 71.81 83.016 71.2 83.336 70.66C83.656 70.1133 84.0893 69.6867 84.636 69.38C85.1826 69.0733 85.7826 68.92 86.436 68.92C87.096 68.92 87.696 69.0733 88.236 69.38C88.7826 69.6867 89.2126 70.1133 89.526 70.66C89.846 71.2 90.006 71.81 90.006 72.49C90.006 73.1767 89.846 73.7933 89.526 74.34C89.2126 74.88 88.7826 75.3033 88.236 75.61C87.6893 75.9167 87.0893 76.07 86.436 76.07ZM86.436 74.82C86.856 74.82 87.226 74.7267 87.546 74.54C87.866 74.3467 88.116 74.0733 88.296 73.72C88.476 73.3667 88.566 72.9567 88.566 72.49C88.566 72.0233 88.476 71.6167 88.296 71.27C88.116 70.9167 87.866 70.6467 87.546 70.46C87.226 70.2733 86.856 70.18 86.436 70.18C86.016 70.18 85.6426 70.2733 85.316 70.46C84.996 70.6467 84.746 70.9167 84.566 71.27C84.386 71.6167 84.296 72.0233 84.296 72.49C84.296 72.9567 84.386 73.3667 84.566 73.72C84.746 74.0733 84.996 74.3467 85.316 74.54C85.6426 74.7267 86.016 74.82 86.436 74.82ZM94.6475 76L93.1075 73.28H92.4475V76H91.0475V69.02H93.6675C94.2075 69.02 94.6675 69.1167 95.0475 69.31C95.4275 69.4967 95.7109 69.7533 95.8975 70.08C96.0909 70.4 96.1875 70.76 96.1875 71.16C96.1875 71.62 96.0542 72.0367 95.7875 72.41C95.5209 72.7767 95.1242 73.03 94.5975 73.17L96.2675 76H94.6475ZM92.4475 72.23H93.6175C93.9975 72.23 94.2809 72.14 94.4675 71.96C94.6542 71.7733 94.7475 71.5167 94.7475 71.19C94.7475 70.87 94.6542 70.6233 94.4675 70.45C94.2809 70.27 93.9975 70.18 93.6175 70.18H92.4475V72.23Z" fill="#515151"/>
</svg>
