<svg width="180" height="105" viewBox="0 0 180 105" fill="none" xmlns="http://www.w3.org/2000/svg">
<rect y="76" width="180" height="29" rx="4" fill="#3C50E0"/>
<path d="M50.6569 94.077C50.1435 94.077 49.6815 93.989 49.2709 93.813C48.8602 93.6297 48.5375 93.373 48.3029 93.043C48.0682 92.713 47.9509 92.328 47.9509 91.888H49.2929C49.3222 92.218 49.4505 92.4893 49.6779 92.702C49.9125 92.9147 50.2389 93.021 50.6569 93.021C51.0895 93.021 51.4269 92.9183 51.6689 92.713C51.9109 92.5003 52.0319 92.229 52.0319 91.899C52.0319 91.6423 51.9549 91.4333 51.8009 91.272C51.6542 91.1107 51.4672 90.986 51.2399 90.898C51.0199 90.81 50.7119 90.7147 50.3159 90.612C49.8172 90.48 49.4102 90.348 49.0949 90.216C48.7869 90.0767 48.5229 89.864 48.3029 89.578C48.0829 89.292 47.9729 88.9107 47.9729 88.434C47.9729 87.994 48.0829 87.609 48.3029 87.279C48.5229 86.949 48.8309 86.696 49.2269 86.52C49.6229 86.344 50.0812 86.256 50.6019 86.256C51.3425 86.256 51.9475 86.443 52.4169 86.817C52.8935 87.1837 53.1575 87.6897 53.2089 88.335H51.8229C51.8009 88.0563 51.6689 87.818 51.4269 87.62C51.1849 87.422 50.8659 87.323 50.4699 87.323C50.1105 87.323 49.8172 87.4147 49.5899 87.598C49.3625 87.7813 49.2489 88.0453 49.2489 88.39C49.2489 88.6247 49.3185 88.819 49.4579 88.973C49.6045 89.1197 49.7879 89.237 50.0079 89.325C50.2279 89.413 50.5285 89.5083 50.9099 89.611C51.4159 89.7503 51.8265 89.8897 52.1419 90.029C52.4645 90.1683 52.7359 90.3847 52.9559 90.678C53.1832 90.964 53.2969 91.349 53.2969 91.833C53.2969 92.2217 53.1905 92.5883 52.9779 92.933C52.7725 93.2777 52.4682 93.5563 52.0649 93.769C51.6689 93.9743 51.1995 94.077 50.6569 94.077ZM57.8455 94.099C57.2735 94.099 56.7565 93.9707 56.2945 93.714C55.8325 93.45 55.4695 93.0833 55.2055 92.614C54.9415 92.1373 54.8095 91.5873 54.8095 90.964C54.8095 90.348 54.9452 89.8017 55.2165 89.325C55.4879 88.8483 55.8582 88.4817 56.3275 88.225C56.7969 87.9683 57.3212 87.84 57.9005 87.84C58.4799 87.84 59.0042 87.9683 59.4735 88.225C59.9429 88.4817 60.3132 88.8483 60.5845 89.325C60.8559 89.8017 60.9915 90.348 60.9915 90.964C60.9915 91.58 60.8522 92.1263 60.5735 92.603C60.2949 93.0797 59.9135 93.45 59.4295 93.714C58.9529 93.9707 58.4249 94.099 57.8455 94.099ZM57.8455 93.01C58.1682 93.01 58.4689 92.933 58.7475 92.779C59.0335 92.625 59.2645 92.394 59.4405 92.086C59.6165 91.778 59.7045 91.404 59.7045 90.964C59.7045 90.524 59.6202 90.1537 59.4515 89.853C59.2829 89.545 59.0592 89.314 58.7805 89.16C58.5019 89.006 58.2012 88.929 57.8785 88.929C57.5559 88.929 57.2552 89.006 56.9765 89.16C56.7052 89.314 56.4889 89.545 56.3275 89.853C56.1662 90.1537 56.0855 90.524 56.0855 90.964C56.0855 91.6167 56.2505 92.1227 56.5805 92.482C56.9179 92.834 57.3395 93.01 57.8455 93.01ZM62.2532 90.964C62.2532 90.3407 62.3778 89.7943 62.6272 89.325C62.8838 88.8483 63.2358 88.4817 63.6832 88.225C64.1305 87.9683 64.6438 87.84 65.2232 87.84C65.9565 87.84 66.5615 88.016 67.0382 88.368C67.5222 88.7127 67.8485 89.2077 68.0172 89.853H66.6642C66.5542 89.5523 66.3782 89.3177 66.1362 89.149C65.8942 88.9803 65.5898 88.896 65.2232 88.896C64.7098 88.896 64.2992 89.0793 63.9912 89.446C63.6905 89.8053 63.5402 90.3113 63.5402 90.964C63.5402 91.6167 63.6905 92.1263 63.9912 92.493C64.2992 92.8597 64.7098 93.043 65.2232 93.043C65.9492 93.043 66.4295 92.724 66.6642 92.086H68.0172C67.8412 92.702 67.5112 93.1933 67.0272 93.56C66.5432 93.9193 65.9418 94.099 65.2232 94.099C64.6438 94.099 64.1305 93.9707 63.6832 93.714C63.2358 93.45 62.8838 93.0833 62.6272 92.614C62.3778 92.1373 62.2532 91.5873 62.2532 90.964ZM70.3449 87.136C70.1175 87.136 69.9269 87.059 69.7729 86.905C69.6189 86.751 69.5419 86.5603 69.5419 86.333C69.5419 86.1057 69.6189 85.915 69.7729 85.761C69.9269 85.607 70.1175 85.53 70.3449 85.53C70.5649 85.53 70.7519 85.607 70.9059 85.761C71.0599 85.915 71.1369 86.1057 71.1369 86.333C71.1369 86.5603 71.0599 86.751 70.9059 86.905C70.7519 87.059 70.5649 87.136 70.3449 87.136ZM70.9609 87.939V94H69.7069V87.939H70.9609ZM72.6293 90.942C72.6293 90.3333 72.7539 89.7943 73.0033 89.325C73.2599 88.8557 73.6046 88.4927 74.0373 88.236C74.4773 87.972 74.9613 87.84 75.4893 87.84C75.9659 87.84 76.3803 87.9353 76.7323 88.126C77.0916 88.3093 77.3776 88.5403 77.5903 88.819V87.939H78.8553V94H77.5903V93.098C77.3776 93.384 77.0879 93.6223 76.7213 93.813C76.3546 94.0037 75.9366 94.099 75.4673 94.099C74.9466 94.099 74.4699 93.967 74.0373 93.703C73.6046 93.4317 73.2599 93.0577 73.0033 92.581C72.7539 92.097 72.6293 91.5507 72.6293 90.942ZM77.5903 90.964C77.5903 90.546 77.5023 90.183 77.3263 89.875C77.1576 89.567 76.9339 89.3323 76.6553 89.171C76.3766 89.0097 76.0759 88.929 75.7533 88.929C75.4306 88.929 75.1299 89.0097 74.8513 89.171C74.5726 89.325 74.3453 89.556 74.1693 89.864C74.0006 90.1647 73.9163 90.524 73.9163 90.942C73.9163 91.36 74.0006 91.7267 74.1693 92.042C74.3453 92.3573 74.5726 92.5993 74.8513 92.768C75.1373 92.9293 75.4379 93.01 75.7533 93.01C76.0759 93.01 76.3766 92.9293 76.6553 92.768C76.9339 92.6067 77.1576 92.372 77.3263 92.064C77.5023 91.7487 77.5903 91.382 77.5903 90.964ZM82.1963 85.86V94H80.9423V85.86H82.1963ZM91.6722 90.073C92.0828 90.1463 92.4312 90.3627 92.7172 90.722C93.0032 91.0813 93.1462 91.4883 93.1462 91.943C93.1462 92.3317 93.0435 92.6837 92.8382 92.999C92.6402 93.307 92.3505 93.5527 91.9692 93.736C91.5878 93.912 91.1442 94 90.6382 94H87.5802V86.355H90.4952C91.0158 86.355 91.4632 86.443 91.8372 86.619C92.2112 86.795 92.4935 87.0333 92.6842 87.334C92.8748 87.6273 92.9702 87.9573 92.9702 88.324C92.9702 88.764 92.8528 89.1307 92.6182 89.424C92.3835 89.7173 92.0682 89.9337 91.6722 90.073ZM88.8342 89.567H90.3852C90.7958 89.567 91.1148 89.4753 91.3422 89.292C91.5768 89.1013 91.6942 88.83 91.6942 88.478C91.6942 88.1333 91.5768 87.8657 91.3422 87.675C91.1148 87.477 90.7958 87.378 90.3852 87.378H88.8342V89.567ZM90.5282 92.977C90.9535 92.977 91.2872 92.8743 91.5292 92.669C91.7712 92.4637 91.8922 92.1777 91.8922 91.811C91.8922 91.437 91.7638 91.14 91.5072 90.92C91.2505 90.7 90.9095 90.59 90.4842 90.59H88.8342V92.977H90.5282ZM100.438 87.939V94H99.1839V93.285C98.9859 93.5343 98.7255 93.7323 98.4029 93.879C98.0875 94.0183 97.7502 94.088 97.3909 94.088C96.9142 94.088 96.4852 93.989 96.1039 93.791C95.7299 93.593 95.4329 93.2997 95.2129 92.911C95.0002 92.5223 94.8939 92.053 94.8939 91.503V87.939H96.1369V91.316C96.1369 91.8587 96.2725 92.2767 96.5439 92.57C96.8152 92.856 97.1855 92.999 97.6549 92.999C98.1242 92.999 98.4945 92.856 98.7659 92.57C99.0445 92.2767 99.1839 91.8587 99.1839 91.316V87.939H100.438ZM103.995 88.962V92.317C103.995 92.5443 104.047 92.7093 104.149 92.812C104.259 92.9073 104.443 92.955 104.699 92.955H105.469V94H104.479C103.915 94 103.482 93.868 103.181 93.604C102.881 93.34 102.73 92.911 102.73 92.317V88.962H102.015V87.939H102.73V86.432H103.995V87.939H105.469V88.962H103.995ZM108.528 88.962V92.317C108.528 92.5443 108.58 92.7093 108.682 92.812C108.792 92.9073 108.976 92.955 109.232 92.955H110.002V94H109.012C108.448 94 108.015 93.868 107.714 93.604C107.414 93.34 107.263 92.911 107.263 92.317V88.962H106.548V87.939H107.263V86.432H108.528V87.939H110.002V88.962H108.528ZM114.227 94.099C113.655 94.099 113.138 93.9707 112.676 93.714C112.214 93.45 111.851 93.0833 111.587 92.614C111.323 92.1373 111.191 91.5873 111.191 90.964C111.191 90.348 111.327 89.8017 111.598 89.325C111.869 88.8483 112.24 88.4817 112.709 88.225C113.178 87.9683 113.703 87.84 114.282 87.84C114.861 87.84 115.386 87.9683 115.855 88.225C116.324 88.4817 116.695 88.8483 116.966 89.325C117.237 89.8017 117.373 90.348 117.373 90.964C117.373 91.58 117.234 92.1263 116.955 92.603C116.676 93.0797 116.295 93.45 115.811 93.714C115.334 93.9707 114.806 94.099 114.227 94.099ZM114.227 93.01C114.55 93.01 114.85 92.933 115.129 92.779C115.415 92.625 115.646 92.394 115.822 92.086C115.998 91.778 116.086 91.404 116.086 90.964C116.086 90.524 116.002 90.1537 115.833 89.853C115.664 89.545 115.441 89.314 115.162 89.16C114.883 89.006 114.583 88.929 114.26 88.929C113.937 88.929 113.637 89.006 113.358 89.16C113.087 89.314 112.87 89.545 112.709 89.853C112.548 90.1537 112.467 90.524 112.467 90.964C112.467 91.6167 112.632 92.1227 112.962 92.482C113.299 92.834 113.721 93.01 114.227 93.01ZM122.111 87.84C122.587 87.84 123.013 87.939 123.387 88.137C123.768 88.335 124.065 88.6283 124.278 89.017C124.49 89.4057 124.597 89.875 124.597 90.425V94H123.354V90.612C123.354 90.0693 123.218 89.655 122.947 89.369C122.675 89.0757 122.305 88.929 121.836 88.929C121.366 88.929 120.992 89.0757 120.714 89.369C120.442 89.655 120.307 90.0693 120.307 90.612V94H119.053V87.939H120.307V88.632C120.512 88.3827 120.772 88.1883 121.088 88.049C121.41 87.9097 121.751 87.84 122.111 87.84ZM128.836 94.099C128.36 94.099 127.931 94.0147 127.549 93.846C127.175 93.67 126.878 93.4353 126.658 93.142C126.438 92.8413 126.321 92.5077 126.306 92.141H127.604C127.626 92.3977 127.747 92.614 127.967 92.79C128.195 92.9587 128.477 93.043 128.814 93.043C129.166 93.043 129.438 92.977 129.628 92.845C129.826 92.7057 129.925 92.5297 129.925 92.317C129.925 92.0897 129.815 91.921 129.595 91.811C129.383 91.701 129.042 91.58 128.572 91.448C128.118 91.3233 127.747 91.2023 127.461 91.085C127.175 90.9677 126.926 90.788 126.713 90.546C126.508 90.304 126.405 89.985 126.405 89.589C126.405 89.2663 126.501 88.973 126.691 88.709C126.882 88.4377 127.153 88.225 127.505 88.071C127.865 87.917 128.275 87.84 128.737 87.84C129.427 87.84 129.98 88.016 130.398 88.368C130.824 88.7127 131.051 89.1857 131.08 89.787H129.826C129.804 89.5157 129.694 89.2993 129.496 89.138C129.298 88.9767 129.031 88.896 128.693 88.896C128.363 88.896 128.11 88.9583 127.934 89.083C127.758 89.2077 127.67 89.3727 127.67 89.578C127.67 89.7393 127.729 89.875 127.846 89.985C127.964 90.095 128.107 90.183 128.275 90.249C128.444 90.3077 128.693 90.3847 129.023 90.48C129.463 90.5973 129.823 90.7183 130.101 90.843C130.387 90.9603 130.633 91.1363 130.838 91.371C131.044 91.6057 131.15 91.9173 131.157 92.306C131.157 92.6507 131.062 92.9587 130.871 93.23C130.681 93.5013 130.409 93.714 130.057 93.868C129.713 94.022 129.306 94.099 128.836 94.099Z" fill="white"/>
<rect width="180" height="67" rx="5" fill="#E9EBFF"/>
<rect x="9" y="10" width="162" height="20" rx="3" fill="white"/>
<rect x="9" y="38" width="162" height="20" rx="3" fill="white"/>
<path d="M19 20H126" stroke="#E9EBFF" stroke-width="5" stroke-linecap="round"/>
<path d="M19 48H77" stroke="#E9EBFF" stroke-width="5" stroke-linecap="round"/>
</svg>
