<svg width="107" height="24" viewBox="0 0 107 24" fill="none" xmlns="http://www.w3.org/2000/svg">
<g clip-path="url(#clip0_1800_1595)">
<path d="M25.2884 -0.000200976C25.6139 0.0916401 25.9307 0.193171 26.1769 0.452685C26.5742 0.871868 26.7442 1.39005 26.82 1.94573C26.9258 2.72133 26.842 3.49734 26.7956 4.27209C26.7541 4.94236 26.7102 5.61306 26.655 6.28206C26.5679 7.34161 26.4647 8.39988 26.3797 9.45943C26.3171 10.2418 26.155 10.9954 25.8029 11.6982C25.0247 13.2506 23.7592 14.1572 22.1073 14.5427C21.4206 14.7021 20.7172 14.7748 20.0129 14.7592C19.8682 14.7567 19.7227 14.7592 19.5763 14.7689C20.1614 14.9176 20.7373 15.0929 21.2875 15.3432C22.0057 15.6697 22.6704 16.0749 23.1994 16.6791C24.0428 17.6413 24.1473 18.7227 23.6916 19.8876C23.3205 20.8359 22.6807 21.5837 21.9344 22.2439C21.3253 22.7831 20.7017 23.3076 19.9512 23.6388C18.9921 24.06 18.0177 24.1574 17.0487 23.6809C16.3355 23.3295 15.8077 22.754 15.3533 22.1095C14.5053 20.9059 13.9543 19.5586 13.5197 18.1565C13.4994 18.0912 13.4783 18.0263 13.4542 17.9551C13.3655 18.0032 13.3771 18.0916 13.3564 18.1586C12.9525 19.4587 12.4417 20.7095 11.6978 21.8525C11.3615 22.3694 10.9739 22.8434 10.5008 23.2381C9.47784 24.0916 8.33966 24.1767 7.13431 23.726C6.40372 23.453 5.79959 22.9723 5.20874 22.4743C4.48644 21.866 3.8338 21.1957 3.39304 20.3422C2.9784 19.5438 2.77108 18.7105 3.03272 17.8144C3.25248 17.062 3.7488 16.5143 4.35375 16.061C5.21827 15.4152 6.20221 15.0423 7.2388 14.7972C7.24986 14.7952 7.26036 14.7909 7.2696 14.7844C7.27883 14.7779 7.28657 14.7695 7.29229 14.7597C7.14551 14.7597 6.99873 14.7597 6.85194 14.7597C5.64411 14.7698 4.46654 14.6013 3.37894 14.0405C1.82156 13.2367 0.903143 11.929 0.595067 10.195C0.418846 9.2037 0.377383 8.19345 0.297358 7.18994C0.21443 6.16452 0.124454 5.13995 0.0680632 4.11453C0.0207945 3.25805 -0.0865965 2.39525 0.133991 1.54425C0.276626 0.996569 0.515457 0.50998 1.02214 0.205388C1.20997 0.0924827 1.42227 0.0646776 1.62378 -0.000200976H2.37013C2.39263 0.0145402 2.41725 0.0256269 2.44311 0.0326596C2.89584 0.0843408 3.33867 0.203142 3.75751 0.385279C4.95 0.881557 5.95799 1.65968 6.90875 2.52416C7.87154 3.40087 8.74103 4.36857 9.56243 5.3805C11.0004 7.14992 12.3177 9.00612 13.3568 11.0523C13.3792 11.0944 13.3808 11.1669 13.4633 11.1678C14.1268 9.83522 14.9191 8.58062 15.7899 7.37615C17.1942 5.43527 18.6994 3.58455 20.5308 2.0342C21.3771 1.31801 22.2847 0.698296 23.3263 0.301442C23.7078 0.156519 24.1075 0.088691 24.5018 -0.00146484L25.2884 -0.000200976Z" fill="#579AFB"/>
<path d="M106.106 8.36587C106.038 8.408 106.04 8.48299 106.019 8.54534C104.651 12.4285 103.284 16.3115 101.918 20.1944C101.737 20.7157 101.511 21.2197 101.242 21.7005C100.651 22.7508 99.7583 23.3478 98.5886 23.539C97.807 23.6654 97.0221 23.6692 96.2343 23.6199C96.0531 23.6085 95.9793 23.5588 95.9855 23.3507C96.0037 22.7908 95.9983 22.2297 95.988 21.6693C95.9846 21.5008 96.0216 21.4444 96.1994 21.4452C96.6265 21.4477 97.0565 21.4873 97.4807 21.4056C98.2797 21.2497 98.771 20.6679 98.8096 19.8405C98.8436 19.1184 98.6487 18.4376 98.4211 17.7703C97.3571 14.6528 96.2862 11.5383 95.2084 8.42696C95.1948 8.38736 95.1914 8.3427 95.1338 8.31237C94.9597 8.49184 94.7822 8.67763 94.6023 8.86005C93.4548 10.0251 92.3063 11.1885 91.1566 12.3504C91.0488 12.4587 91.0389 12.5286 91.1226 12.6601C92.5067 14.8272 93.8874 16.9965 95.2648 19.1681C95.291 19.2103 95.3154 19.2524 95.3432 19.2916C95.4017 19.3758 95.3847 19.418 95.2785 19.4125C95.2441 19.4125 95.2093 19.4125 95.1749 19.4125C94.3041 19.4125 93.4334 19.4087 92.5626 19.4163C92.4134 19.4163 92.3305 19.3721 92.2508 19.2419C91.2684 17.6368 90.2821 16.0342 89.292 14.4341C89.2555 14.3751 89.2182 14.3162 89.1676 14.2378C88.7708 14.6406 88.4038 15.0618 87.9867 15.4233C87.6135 15.7477 87.4792 16.1058 87.5032 16.6029C87.5447 17.4695 87.5099 18.3399 87.5186 19.2086C87.5186 19.3796 87.4676 19.4192 87.3084 19.4159C86.5695 19.4074 85.8302 19.4062 85.0913 19.4159C84.9184 19.418 84.8761 19.3708 84.8761 19.1972C84.8811 14.7271 84.8823 10.257 84.8798 5.78716C84.8798 5.26856 84.8865 4.74995 84.8761 4.23176C84.8728 4.07926 84.9346 4.0662 85.0565 4.06704C85.8095 4.07125 86.562 4.07462 87.315 4.06451C87.4838 4.06241 87.5182 4.11633 87.5178 4.27516C87.5133 7.04977 87.5133 9.82424 87.5178 12.5986C87.5178 12.6786 87.4958 12.7629 87.5314 12.829C87.8428 12.5244 88.1609 12.227 88.464 11.9152C89.594 10.7533 90.7208 9.58775 91.8445 8.41854C91.8852 8.37279 91.9353 8.33676 91.9913 8.31302C92.0473 8.28927 92.1077 8.27841 92.1683 8.2812C94.0461 8.28541 95.9243 8.28541 97.8028 8.2812C97.9583 8.2812 98.023 8.32332 98.0744 8.47836C99.0024 11.3111 99.871 14.162 100.588 17.0583C100.597 17.1165 100.621 17.1712 100.658 17.2163C101.208 15.1585 101.792 13.1159 102.41 11.0887C102.677 10.2069 102.97 9.33315 103.24 8.45266C103.284 8.30731 103.355 8.28119 103.488 8.28204C104.359 8.28583 105.23 8.28204 106.101 8.28204L106.106 8.36587Z" fill="#3D4551"/>
<path d="M42.5482 11.3327C43.19 11.5795 43.7394 11.9183 44.1868 12.4137C44.8959 13.1981 45.1973 14.1347 45.1662 15.1849C45.1372 16.1611 44.8859 17.0647 44.2436 17.8214C43.5947 18.5856 42.7418 18.9854 41.7944 19.2116C41.1525 19.3637 40.499 19.413 39.8418 19.4138C37.5767 19.4164 35.3115 19.4138 33.0463 19.4201C32.8527 19.4201 32.8258 19.3591 32.8262 19.1846C32.8303 14.2244 32.8303 9.26441 32.8262 4.30471C32.8262 4.10966 32.8784 4.06753 33.0634 4.06837C35.3215 4.07553 37.58 4.06837 39.8381 4.0768C40.8009 4.07975 41.733 4.24531 42.6 4.69567C44.0757 5.46368 44.6678 6.91629 44.5359 8.42619C44.424 9.7128 43.7813 10.6329 42.6834 11.2488C42.6469 11.2678 42.6133 11.2905 42.5482 11.3327ZM37.9809 16.9914V16.9859C38.6506 16.9859 39.3202 16.9923 39.9895 16.9838C40.4188 16.9845 40.8425 16.8849 41.228 16.6927C41.9523 16.3224 42.306 15.5974 42.2331 14.6512C42.1555 13.6687 41.665 13.0882 40.7213 12.856C40.3916 12.7798 40.0543 12.7433 39.7162 12.7473C38.4391 12.744 37.1625 12.7473 35.8858 12.7419C35.7299 12.7419 35.6905 12.784 35.6913 12.9399C35.698 14.2279 35.698 15.5161 35.6913 16.8044C35.6913 16.9729 35.744 16.9965 35.8903 16.9948C36.5853 16.9876 37.2823 16.9914 37.9809 16.9914ZM37.84 6.46888V6.46087C37.1844 6.46087 36.5289 6.46509 35.8733 6.4575C35.7282 6.4575 35.6897 6.49753 35.6901 6.64413C35.6959 7.85492 35.6959 9.06584 35.6901 10.2769C35.6901 10.4391 35.7361 10.4707 35.8862 10.4699C37.0389 10.4635 38.1912 10.4656 39.3439 10.4673C39.5576 10.467 39.7712 10.4529 39.9832 10.4252C40.9406 10.3039 41.534 9.72334 41.6832 8.76027C41.8557 7.65776 41.3038 6.8156 40.232 6.54639C40.0451 6.4969 39.853 6.47045 39.6598 6.46761C39.0539 6.46789 38.4473 6.46832 37.84 6.46888Z" fill="#3D4551"/>
<path d="M68.7808 14.6856C67.4826 14.6856 66.1844 14.689 64.8861 14.6814C64.7116 14.6814 64.6763 14.7353 64.702 14.8967C64.7734 15.3479 64.8787 15.7881 65.093 16.1934C65.5185 16.998 66.1964 17.4219 67.0775 17.5259C67.4826 17.5782 67.8936 17.5603 68.2928 17.4728C69.0566 17.298 69.6068 16.8451 69.9464 16.1352C70.0115 15.9987 70.0857 15.9604 70.2267 15.9617C70.9514 15.9684 71.6779 15.9697 72.4019 15.9617C72.571 15.9617 72.5971 16 72.5461 16.1614C71.9482 18.0572 70.6496 19.1525 68.7597 19.5405C67.4793 19.8034 66.2097 19.7196 65.0167 19.1382C63.437 18.3685 62.519 17.0574 62.1848 15.3348C61.9252 13.9934 61.9617 12.6503 62.4663 11.3667C63.2462 9.38408 64.7107 8.28915 66.8026 8.06882C67.886 7.95507 68.9438 8.06882 69.9306 8.5651C71.4017 9.30151 72.2526 10.5418 72.6577 12.1237C72.8613 12.9174 72.882 13.7284 72.8779 14.5423C72.8779 14.7201 72.7738 14.6856 72.6759 14.6856H68.7808ZM67.4378 12.7898C68.2947 12.7898 69.1516 12.7898 70.0086 12.7898C70.1209 12.7898 70.208 12.7991 70.1769 12.6289C69.9393 11.3342 69.1503 10.1757 67.4992 10.1432C66.6284 10.1264 65.8663 10.396 65.3223 11.1316C65.0014 11.5659 64.8364 12.0656 64.7327 12.5939C64.7004 12.7603 64.7298 12.7927 64.8915 12.7915C65.739 12.7864 66.5882 12.7902 67.4378 12.7902V12.7898Z" fill="#3D4551"/>
<path d="M58.1071 17.8009C57.865 18.1262 57.651 18.3992 57.3964 18.6347C56.5219 19.4435 55.4779 19.73 54.3206 19.655C53.6572 19.6129 53.0261 19.4532 52.4568 19.0918C51.5243 18.4994 51.072 17.6042 50.9015 16.5341C50.8535 16.2014 50.8318 15.8652 50.8364 15.5289C50.8364 13.1967 50.8389 10.864 50.8311 8.53131C50.8311 8.32362 50.8874 8.27854 51.0832 8.28191C51.815 8.29413 52.5472 8.29286 53.2807 8.28191C53.464 8.27938 53.5208 8.32025 53.52 8.51825C53.5125 10.709 53.5158 12.903 53.5146 15.0954C53.5097 15.3687 53.5348 15.6417 53.5896 15.9094C53.7634 16.6904 54.2663 17.1618 55.0492 17.2764C56.6621 17.5124 57.8509 16.5569 57.996 14.905C58.013 14.7099 58.0221 14.5136 58.0221 14.3177C58.0221 12.3844 58.0267 10.4511 58.0184 8.51783C58.0184 8.31772 58.0781 8.2798 58.2597 8.28233C59.006 8.29244 59.7524 8.29034 60.4987 8.28233C60.6463 8.28233 60.699 8.30929 60.6986 8.47444C60.6936 12.0543 60.6936 15.6338 60.6986 19.2131C60.6986 19.3648 60.6683 19.4174 60.507 19.4153C59.7681 19.406 59.0293 19.406 58.2904 19.4153C58.1428 19.4153 58.105 19.3711 58.1079 19.2266C58.1125 18.7724 58.1071 18.3179 58.1071 17.8009Z" fill="#3D4551"/>
<path d="M75.1089 15.8776C75.4887 15.8776 75.8685 15.881 76.2483 15.8755C76.3636 15.8755 76.4142 15.8987 76.4345 16.031C76.5829 17.0686 77.0386 17.5476 78.0657 17.7115C78.7465 17.821 79.4306 17.813 80.0974 17.6045C80.7973 17.3854 81.1045 16.8841 80.9967 16.1869C80.9403 15.822 80.7206 15.5865 80.4133 15.4201C79.9937 15.1939 79.5343 15.0982 79.0736 15.0068C78.1946 14.8333 77.2973 14.7515 76.4419 14.4621C76.0739 14.3428 75.7219 14.1774 75.3942 13.9696C74.3348 13.28 73.9292 12.2714 74.052 11.0362C74.1987 9.55703 75.1151 8.74183 76.4403 8.32518C77.5067 7.98815 78.6014 7.97509 79.7018 8.096C80.3574 8.16804 80.9942 8.3176 81.5843 8.62598C82.8066 9.26465 83.3295 10.3373 83.4087 11.6807C83.4141 11.7709 83.3888 11.8071 83.2963 11.8071C82.5295 11.8049 81.7628 11.8049 80.9963 11.8071C80.9134 11.8071 80.8856 11.7692 80.8794 11.6963C80.8719 11.6121 80.8674 11.5278 80.8537 11.4457C80.7322 10.7109 80.3171 10.2513 79.5994 10.0841C78.9298 9.92776 78.2568 9.9126 77.5909 10.0938C76.925 10.2749 76.6256 10.7198 76.6737 11.3951C76.7015 11.7903 76.915 12.0557 77.2467 12.2339C77.7053 12.4799 78.2066 12.5756 78.7121 12.6552C79.6591 12.8026 80.6103 12.9311 81.5134 13.2821C81.7454 13.371 81.9712 13.4758 82.1892 13.5959C83.3087 14.2211 83.7462 15.2116 83.6637 16.4674C83.5691 17.8998 82.7801 18.8199 81.4926 19.2736C79.7321 19.8942 77.9346 19.9056 76.1699 19.2909C74.6772 18.7719 73.9475 17.6235 73.8111 16.0558C73.799 15.9189 73.8276 15.8722 73.9695 15.8755C74.3488 15.8827 74.7291 15.8776 75.1089 15.8776Z" fill="#3D4551"/>
<path d="M46.4678 11.7512C46.4678 9.27145 46.4711 6.79132 46.4624 4.31161C46.4624 4.10097 46.5196 4.06263 46.7112 4.06558C47.4575 4.0778 48.2039 4.07401 48.9502 4.06558C49.0953 4.06558 49.1522 4.08917 49.1522 4.25727C49.1472 9.24477 49.1472 14.2326 49.1522 19.2206C49.1522 19.3849 49.1003 19.4161 48.9515 19.4144C48.1989 19.4072 47.4459 19.4051 46.6934 19.4144C46.5171 19.4169 46.4624 19.3816 46.4628 19.1886C46.4707 16.711 46.4678 14.2313 46.4678 11.7512Z" fill="#3D4551"/>
</g>
<defs>
<clipPath id="clip0_1800_1595">
<rect width="106.105" height="24" fill="white"/>
</clipPath>
</defs>
</svg>
