<svg width="167" height="105" viewBox="0 0 167 105" fill="none" xmlns="http://www.w3.org/2000/svg">
<rect y="76" width="167" height="29" rx="4" fill="black"/>
<path d="M42.387 90.859C42.387 90.247 42.525 89.698 42.801 89.212C43.077 88.72 43.452 88.336 43.926 88.06C44.406 87.784 44.937 87.646 45.519 87.646C46.203 87.646 46.8 87.811 47.31 88.141C47.82 88.471 48.192 88.939 48.426 89.545H47.445C47.271 89.167 47.019 88.876 46.689 88.672C46.365 88.468 45.975 88.366 45.519 88.366C45.081 88.366 44.688 88.468 44.34 88.672C43.992 88.876 43.719 89.167 43.521 89.545C43.323 89.917 43.224 90.355 43.224 90.859C43.224 91.357 43.323 91.795 43.521 92.173C43.719 92.545 43.992 92.833 44.34 93.037C44.688 93.241 45.081 93.343 45.519 93.343C45.975 93.343 46.365 93.244 46.689 93.046C47.019 92.842 47.271 92.551 47.445 92.173H48.426C48.192 92.773 47.82 93.238 47.31 93.568C46.8 93.892 46.203 94.054 45.519 94.054C44.937 94.054 44.406 93.919 43.926 93.649C43.452 93.373 43.077 92.992 42.801 92.506C42.525 92.02 42.387 91.471 42.387 90.859ZM51.7961 94.081C51.3341 94.081 50.9141 93.976 50.5361 93.766C50.1641 93.556 49.8701 93.259 49.6541 92.875C49.4441 92.485 49.3391 92.035 49.3391 91.525C49.3391 91.021 49.4471 90.577 49.6631 90.193C49.8851 89.803 50.1851 89.506 50.5631 89.302C50.9411 89.092 51.3641 88.987 51.8321 88.987C52.3001 88.987 52.7231 89.092 53.1011 89.302C53.4791 89.506 53.7761 89.8 53.9921 90.184C54.2141 90.568 54.3251 91.015 54.3251 91.525C54.3251 92.035 54.2111 92.485 53.9831 92.875C53.7611 93.259 53.4581 93.556 53.0741 93.766C52.6901 93.976 52.2641 94.081 51.7961 94.081ZM51.7961 93.361C52.0901 93.361 52.3661 93.292 52.6241 93.154C52.8821 93.016 53.0891 92.809 53.2451 92.533C53.4071 92.257 53.4881 91.921 53.4881 91.525C53.4881 91.129 53.4101 90.793 53.2541 90.517C53.0981 90.241 52.8941 90.037 52.6421 89.905C52.3901 89.767 52.1171 89.698 51.8231 89.698C51.5231 89.698 51.2471 89.767 50.9951 89.905C50.7491 90.037 50.5511 90.241 50.4011 90.517C50.2511 90.793 50.1761 91.129 50.1761 91.525C50.1761 91.927 50.2481 92.266 50.3921 92.542C50.5421 92.818 50.7401 93.025 50.9861 93.163C51.2321 93.295 51.5021 93.361 51.7961 93.361ZM57.805 88.978C58.405 88.978 58.891 89.161 59.263 89.527C59.635 89.887 59.821 90.409 59.821 91.093V94H59.011V91.21C59.011 90.718 58.888 90.343 58.642 90.085C58.396 89.821 58.06 89.689 57.634 89.689C57.202 89.689 56.857 89.824 56.599 90.094C56.347 90.364 56.221 90.757 56.221 91.273V94H55.402V89.068H56.221V89.77C56.383 89.518 56.602 89.323 56.878 89.185C57.16 89.047 57.469 88.978 57.805 88.978ZM62.1578 89.743V92.65C62.1578 92.89 62.2088 93.061 62.3108 93.163C62.4128 93.259 62.5898 93.307 62.8418 93.307H63.4448V94H62.7068C62.2508 94 61.9088 93.895 61.6808 93.685C61.4528 93.475 61.3388 93.13 61.3388 92.65V89.743H60.6998V89.068H61.3388V87.826H62.1578V89.068H63.4448V89.743H62.1578ZM64.8601 88.267C64.7041 88.267 64.5721 88.213 64.4641 88.105C64.3561 87.997 64.3021 87.865 64.3021 87.709C64.3021 87.553 64.3561 87.421 64.4641 87.313C64.5721 87.205 64.7041 87.151 64.8601 87.151C65.0101 87.151 65.1361 87.205 65.2381 87.313C65.3461 87.421 65.4001 87.553 65.4001 87.709C65.4001 87.865 65.3461 87.997 65.2381 88.105C65.1361 88.213 65.0101 88.267 64.8601 88.267ZM65.2561 89.068V94H64.4371V89.068H65.2561ZM69.055 88.978C69.655 88.978 70.141 89.161 70.513 89.527C70.885 89.887 71.071 90.409 71.071 91.093V94H70.261V91.21C70.261 90.718 70.138 90.343 69.892 90.085C69.646 89.821 69.31 89.689 68.884 89.689C68.452 89.689 68.107 89.824 67.849 90.094C67.597 90.364 67.471 90.757 67.471 91.273V94H66.652V89.068H67.471V89.77C67.633 89.518 67.852 89.323 68.128 89.185C68.41 89.047 68.719 88.978 69.055 88.978ZM76.7828 89.068V94H75.9638V93.271C75.8078 93.523 75.5888 93.721 75.3068 93.865C75.0308 94.003 74.7248 94.072 74.3888 94.072C74.0048 94.072 73.6598 93.994 73.3538 93.838C73.0478 93.676 72.8048 93.436 72.6248 93.118C72.4508 92.8 72.3638 92.413 72.3638 91.957V89.068H73.1738V91.849C73.1738 92.335 73.2968 92.71 73.5428 92.974C73.7888 93.232 74.1248 93.361 74.5508 93.361C74.9888 93.361 75.3338 93.226 75.5858 92.956C75.8378 92.686 75.9638 92.293 75.9638 91.777V89.068H76.7828ZM82.6657 91.345C82.6657 91.501 82.6567 91.666 82.6387 91.84H78.6967C78.7267 92.326 78.8917 92.707 79.1917 92.983C79.4977 93.253 79.8667 93.388 80.2987 93.388C80.6527 93.388 80.9467 93.307 81.1807 93.145C81.4207 92.977 81.5887 92.755 81.6847 92.479H82.5667C82.4347 92.953 82.1707 93.34 81.7747 93.64C81.3787 93.934 80.8867 94.081 80.2987 94.081C79.8307 94.081 79.4107 93.976 79.0387 93.766C78.6727 93.556 78.3847 93.259 78.1747 92.875C77.9647 92.485 77.8597 92.035 77.8597 91.525C77.8597 91.015 77.9617 90.568 78.1657 90.184C78.3697 89.8 78.6547 89.506 79.0207 89.302C79.3927 89.092 79.8187 88.987 80.2987 88.987C80.7667 88.987 81.1807 89.089 81.5407 89.293C81.9007 89.497 82.1767 89.779 82.3687 90.139C82.5667 90.493 82.6657 90.895 82.6657 91.345ZM81.8197 91.174C81.8197 90.862 81.7507 90.595 81.6127 90.373C81.4747 90.145 81.2857 89.974 81.0457 89.86C80.8117 89.74 80.5507 89.68 80.2627 89.68C79.8487 89.68 79.4947 89.812 79.2007 90.076C78.9127 90.34 78.7477 90.706 78.7057 91.174H81.8197ZM92.7161 89.068L91.1771 94H90.3311L89.1431 90.085L87.9551 94H87.1091L85.5611 89.068H86.3981L87.5321 93.208L88.7561 89.068H89.5931L90.7901 93.217L91.9061 89.068H92.7161ZM93.9519 88.267C93.7959 88.267 93.6639 88.213 93.5559 88.105C93.4479 87.997 93.3939 87.865 93.3939 87.709C93.3939 87.553 93.4479 87.421 93.5559 87.313C93.6639 87.205 93.7959 87.151 93.9519 87.151C94.1019 87.151 94.2279 87.205 94.3299 87.313C94.4379 87.421 94.4919 87.553 94.4919 87.709C94.4919 87.865 94.4379 87.997 94.3299 88.105C94.2279 88.213 94.1019 88.267 93.9519 88.267ZM94.3479 89.068V94H93.5289V89.068H94.3479ZM96.7428 89.743V92.65C96.7428 92.89 96.7938 93.061 96.8958 93.163C96.9978 93.259 97.1748 93.307 97.4268 93.307H98.0298V94H97.2918C96.8358 94 96.4938 93.895 96.2658 93.685C96.0378 93.475 95.9238 93.13 95.9238 92.65V89.743H95.2848V89.068H95.9238V87.826H96.7428V89.068H98.0298V89.743H96.7428ZM101.47 88.978C101.842 88.978 102.178 89.059 102.478 89.221C102.778 89.377 103.012 89.614 103.18 89.932C103.354 90.25 103.441 90.637 103.441 91.093V94H102.631V91.21C102.631 90.718 102.508 90.343 102.262 90.085C102.016 89.821 101.68 89.689 101.254 89.689C100.822 89.689 100.477 89.824 100.219 90.094C99.9671 90.364 99.8411 90.757 99.8411 91.273V94H99.0221V87.34H99.8411V89.77C100.003 89.518 100.225 89.323 100.507 89.185C100.795 89.047 101.116 88.978 101.47 88.978ZM111.201 87.745V88.582H109.536V94H108.51V88.582H106.836V87.745H111.201ZM118.9 89.041L117.361 94H116.281L115.282 90.337L114.283 94H113.203L111.655 89.041H112.699L113.734 93.028L114.787 89.041H115.858L116.866 93.01L117.892 89.041H118.9ZM120.189 88.384C120.003 88.384 119.847 88.321 119.721 88.195C119.595 88.069 119.532 87.913 119.532 87.727C119.532 87.541 119.595 87.385 119.721 87.259C119.847 87.133 120.003 87.07 120.189 87.07C120.369 87.07 120.522 87.133 120.648 87.259C120.774 87.385 120.837 87.541 120.837 87.727C120.837 87.913 120.774 88.069 120.648 88.195C120.522 88.321 120.369 88.384 120.189 88.384ZM120.693 89.041V94H119.667V89.041H120.693ZM123.237 89.878V92.623C123.237 92.809 123.279 92.944 123.363 93.028C123.453 93.106 123.603 93.145 123.813 93.145H124.443V94H123.633C123.171 94 122.817 93.892 122.571 93.676C122.325 93.46 122.202 93.109 122.202 92.623V89.878H121.617V89.041H122.202V87.808H123.237V89.041H124.443V89.878H123.237ZM126.586 89.878V92.623C126.586 92.809 126.628 92.944 126.712 93.028C126.802 93.106 126.952 93.145 127.162 93.145H127.792V94H126.982C126.52 94 126.166 93.892 125.92 93.676C125.674 93.46 125.551 93.109 125.551 92.623V89.878H124.966V89.041H125.551V87.808H126.586V89.041H127.792V89.878H126.586ZM133.283 91.399C133.283 91.585 133.271 91.753 133.247 91.903H129.458C129.488 92.299 129.635 92.617 129.899 92.857C130.163 93.097 130.487 93.217 130.871 93.217C131.423 93.217 131.813 92.986 132.041 92.524H133.147C132.998 92.98 132.725 93.355 132.329 93.649C131.939 93.937 131.453 94.081 130.871 94.081C130.397 94.081 129.971 93.976 129.593 93.766C129.221 93.55 128.927 93.25 128.711 92.866C128.501 92.476 128.396 92.026 128.396 91.516C128.396 91.006 128.498 90.559 128.702 90.175C128.912 89.785 129.203 89.485 129.575 89.275C129.953 89.065 130.385 88.96 130.871 88.96C131.339 88.96 131.756 89.062 132.122 89.266C132.488 89.47 132.773 89.758 132.977 90.13C133.181 90.496 133.283 90.919 133.283 91.399ZM132.212 91.075C132.206 90.697 132.071 90.394 131.807 90.166C131.543 89.938 131.216 89.824 130.826 89.824C130.472 89.824 130.169 89.938 129.917 90.166C129.665 90.388 129.515 90.691 129.467 91.075H132.212ZM135.318 89.761C135.468 89.509 135.666 89.314 135.912 89.176C136.164 89.032 136.461 88.96 136.803 88.96V90.022H136.542C136.14 90.022 135.834 90.124 135.624 90.328C135.42 90.532 135.318 90.886 135.318 91.39V94H134.292V89.041H135.318V89.761Z" fill="white"/>
<g clip-path="url(#clip0_1446_31)">
<mask id="mask0_1446_31" style="mask-type:luminance" maskUnits="userSpaceOnUse" x="17" y="84" width="13" height="13">
<path d="M30 84H17V97H30V84Z" fill="white"/>
</mask>
<g mask="url(#mask0_1446_31)">
<path d="M24.1416 89.0786L28.6089 84H27.5503L23.6714 88.4097L20.5733 84H17L21.6849 90.6682L17 95.9938H18.0587L22.1549 91.3371L25.4267 95.9938H29L24.1414 89.0786H24.1416ZM22.6916 90.7269L22.217 90.0629L18.4401 84.7794H20.0661L23.1141 89.0434L23.5888 89.7074L27.5508 95.2499H25.9248L22.6916 90.7272V90.7269Z" fill="white"/>
</g>
</g>
<rect x="0.5" y="38.5" width="166" height="28" rx="3.5" fill="white" stroke="#E8E8E8"/>
<path d="M42.387 52.859C42.387 52.247 42.525 51.698 42.801 51.212C43.077 50.72 43.452 50.336 43.926 50.06C44.406 49.784 44.937 49.646 45.519 49.646C46.203 49.646 46.8 49.811 47.31 50.141C47.82 50.471 48.192 50.939 48.426 51.545H47.445C47.271 51.167 47.019 50.876 46.689 50.672C46.365 50.468 45.975 50.366 45.519 50.366C45.081 50.366 44.688 50.468 44.34 50.672C43.992 50.876 43.719 51.167 43.521 51.545C43.323 51.917 43.224 52.355 43.224 52.859C43.224 53.357 43.323 53.795 43.521 54.173C43.719 54.545 43.992 54.833 44.34 55.037C44.688 55.241 45.081 55.343 45.519 55.343C45.975 55.343 46.365 55.244 46.689 55.046C47.019 54.842 47.271 54.551 47.445 54.173H48.426C48.192 54.773 47.82 55.238 47.31 55.568C46.8 55.892 46.203 56.054 45.519 56.054C44.937 56.054 44.406 55.919 43.926 55.649C43.452 55.373 43.077 54.992 42.801 54.506C42.525 54.02 42.387 53.471 42.387 52.859ZM51.7961 56.081C51.3341 56.081 50.9141 55.976 50.5361 55.766C50.1641 55.556 49.8701 55.259 49.6541 54.875C49.4441 54.485 49.3391 54.035 49.3391 53.525C49.3391 53.021 49.4471 52.577 49.6631 52.193C49.8851 51.803 50.1851 51.506 50.5631 51.302C50.9411 51.092 51.3641 50.987 51.8321 50.987C52.3001 50.987 52.7231 51.092 53.1011 51.302C53.4791 51.506 53.7761 51.8 53.9921 52.184C54.2141 52.568 54.3251 53.015 54.3251 53.525C54.3251 54.035 54.2111 54.485 53.9831 54.875C53.7611 55.259 53.4581 55.556 53.0741 55.766C52.6901 55.976 52.2641 56.081 51.7961 56.081ZM51.7961 55.361C52.0901 55.361 52.3661 55.292 52.6241 55.154C52.8821 55.016 53.0891 54.809 53.2451 54.533C53.4071 54.257 53.4881 53.921 53.4881 53.525C53.4881 53.129 53.4101 52.793 53.2541 52.517C53.0981 52.241 52.8941 52.037 52.6421 51.905C52.3901 51.767 52.1171 51.698 51.8231 51.698C51.5231 51.698 51.2471 51.767 50.9951 51.905C50.7491 52.037 50.5511 52.241 50.4011 52.517C50.2511 52.793 50.1761 53.129 50.1761 53.525C50.1761 53.927 50.2481 54.266 50.3921 54.542C50.5421 54.818 50.7401 55.025 50.9861 55.163C51.2321 55.295 51.5021 55.361 51.7961 55.361ZM57.805 50.978C58.405 50.978 58.891 51.161 59.263 51.527C59.635 51.887 59.821 52.409 59.821 53.093V56H59.011V53.21C59.011 52.718 58.888 52.343 58.642 52.085C58.396 51.821 58.06 51.689 57.634 51.689C57.202 51.689 56.857 51.824 56.599 52.094C56.347 52.364 56.221 52.757 56.221 53.273V56H55.402V51.068H56.221V51.77C56.383 51.518 56.602 51.323 56.878 51.185C57.16 51.047 57.469 50.978 57.805 50.978ZM62.1578 51.743V54.65C62.1578 54.89 62.2088 55.061 62.3108 55.163C62.4128 55.259 62.5898 55.307 62.8418 55.307H63.4448V56H62.7068C62.2508 56 61.9088 55.895 61.6808 55.685C61.4528 55.475 61.3388 55.13 61.3388 54.65V51.743H60.6998V51.068H61.3388V49.826H62.1578V51.068H63.4448V51.743H62.1578ZM64.8601 50.267C64.7041 50.267 64.5721 50.213 64.4641 50.105C64.3561 49.997 64.3021 49.865 64.3021 49.709C64.3021 49.553 64.3561 49.421 64.4641 49.313C64.5721 49.205 64.7041 49.151 64.8601 49.151C65.0101 49.151 65.1361 49.205 65.2381 49.313C65.3461 49.421 65.4001 49.553 65.4001 49.709C65.4001 49.865 65.3461 49.997 65.2381 50.105C65.1361 50.213 65.0101 50.267 64.8601 50.267ZM65.2561 51.068V56H64.4371V51.068H65.2561ZM69.055 50.978C69.655 50.978 70.141 51.161 70.513 51.527C70.885 51.887 71.071 52.409 71.071 53.093V56H70.261V53.21C70.261 52.718 70.138 52.343 69.892 52.085C69.646 51.821 69.31 51.689 68.884 51.689C68.452 51.689 68.107 51.824 67.849 52.094C67.597 52.364 67.471 52.757 67.471 53.273V56H66.652V51.068H67.471V51.77C67.633 51.518 67.852 51.323 68.128 51.185C68.41 51.047 68.719 50.978 69.055 50.978ZM76.7828 51.068V56H75.9638V55.271C75.8078 55.523 75.5888 55.721 75.3068 55.865C75.0308 56.003 74.7248 56.072 74.3888 56.072C74.0048 56.072 73.6598 55.994 73.3538 55.838C73.0478 55.676 72.8048 55.436 72.6248 55.118C72.4508 54.8 72.3638 54.413 72.3638 53.957V51.068H73.1738V53.849C73.1738 54.335 73.2968 54.71 73.5428 54.974C73.7888 55.232 74.1248 55.361 74.5508 55.361C74.9888 55.361 75.3338 55.226 75.5858 54.956C75.8378 54.686 75.9638 54.293 75.9638 53.777V51.068H76.7828ZM82.6657 53.345C82.6657 53.501 82.6567 53.666 82.6387 53.84H78.6967C78.7267 54.326 78.8917 54.707 79.1917 54.983C79.4977 55.253 79.8667 55.388 80.2987 55.388C80.6527 55.388 80.9467 55.307 81.1807 55.145C81.4207 54.977 81.5887 54.755 81.6847 54.479H82.5667C82.4347 54.953 82.1707 55.34 81.7747 55.64C81.3787 55.934 80.8867 56.081 80.2987 56.081C79.8307 56.081 79.4107 55.976 79.0387 55.766C78.6727 55.556 78.3847 55.259 78.1747 54.875C77.9647 54.485 77.8597 54.035 77.8597 53.525C77.8597 53.015 77.9617 52.568 78.1657 52.184C78.3697 51.8 78.6547 51.506 79.0207 51.302C79.3927 51.092 79.8187 50.987 80.2987 50.987C80.7667 50.987 81.1807 51.089 81.5407 51.293C81.9007 51.497 82.1767 51.779 82.3687 52.139C82.5667 52.493 82.6657 52.895 82.6657 53.345ZM81.8197 53.174C81.8197 52.862 81.7507 52.595 81.6127 52.373C81.4747 52.145 81.2857 51.974 81.0457 51.86C80.8117 51.74 80.5507 51.68 80.2627 51.68C79.8487 51.68 79.4947 51.812 79.2007 52.076C78.9127 52.34 78.7477 52.706 78.7057 53.174H81.8197ZM92.7161 51.068L91.1771 56H90.3311L89.1431 52.085L87.9551 56H87.1091L85.5611 51.068H86.3981L87.5321 55.208L88.7561 51.068H89.5931L90.7901 55.217L91.9061 51.068H92.7161ZM93.9519 50.267C93.7959 50.267 93.6639 50.213 93.5559 50.105C93.4479 49.997 93.3939 49.865 93.3939 49.709C93.3939 49.553 93.4479 49.421 93.5559 49.313C93.6639 49.205 93.7959 49.151 93.9519 49.151C94.1019 49.151 94.2279 49.205 94.3299 49.313C94.4379 49.421 94.4919 49.553 94.4919 49.709C94.4919 49.865 94.4379 49.997 94.3299 50.105C94.2279 50.213 94.1019 50.267 93.9519 50.267ZM94.3479 51.068V56H93.5289V51.068H94.3479ZM96.7428 51.743V54.65C96.7428 54.89 96.7938 55.061 96.8958 55.163C96.9978 55.259 97.1748 55.307 97.4268 55.307H98.0298V56H97.2918C96.8358 56 96.4938 55.895 96.2658 55.685C96.0378 55.475 95.9238 55.13 95.9238 54.65V51.743H95.2848V51.068H95.9238V49.826H96.7428V51.068H98.0298V51.743H96.7428ZM101.47 50.978C101.842 50.978 102.178 51.059 102.478 51.221C102.778 51.377 103.012 51.614 103.18 51.932C103.354 52.25 103.441 52.637 103.441 53.093V56H102.631V53.21C102.631 52.718 102.508 52.343 102.262 52.085C102.016 51.821 101.68 51.689 101.254 51.689C100.822 51.689 100.477 51.824 100.219 52.094C99.9671 52.364 99.8411 52.757 99.8411 53.273V56H99.0221V49.34H99.8411V51.77C100.003 51.518 100.225 51.323 100.507 51.185C100.795 51.047 101.116 50.978 101.47 50.978ZM111.687 51.545C111.525 51.233 111.3 50.999 111.012 50.843C110.724 50.681 110.391 50.6 110.013 50.6C109.599 50.6 109.23 50.693 108.906 50.879C108.582 51.065 108.327 51.329 108.141 51.671C107.961 52.013 107.871 52.409 107.871 52.859C107.871 53.309 107.961 53.708 108.141 54.056C108.327 54.398 108.582 54.662 108.906 54.848C109.23 55.034 109.599 55.127 110.013 55.127C110.571 55.127 111.024 54.971 111.372 54.659C111.72 54.347 111.933 53.924 112.011 53.39H109.662V52.571H113.109V53.372C113.043 53.858 112.869 54.305 112.587 54.713C112.311 55.121 111.948 55.448 111.498 55.694C111.054 55.934 110.559 56.054 110.013 56.054C109.425 56.054 108.888 55.919 108.402 55.649C107.916 55.373 107.529 54.992 107.241 54.506C106.959 54.02 106.818 53.471 106.818 52.859C106.818 52.247 106.959 51.698 107.241 51.212C107.529 50.726 107.916 50.348 108.402 50.078C108.894 49.802 109.431 49.664 110.013 49.664C110.679 49.664 111.27 49.829 111.786 50.159C112.308 50.483 112.686 50.945 112.92 51.545H111.687ZM116.272 56.081C115.804 56.081 115.381 55.976 115.003 55.766C114.625 55.55 114.328 55.25 114.112 54.866C113.896 54.476 113.788 54.026 113.788 53.516C113.788 53.012 113.899 52.565 114.121 52.175C114.343 51.785 114.646 51.485 115.03 51.275C115.414 51.065 115.843 50.96 116.317 50.96C116.791 50.96 117.22 51.065 117.604 51.275C117.988 51.485 118.291 51.785 118.513 52.175C118.735 52.565 118.846 53.012 118.846 53.516C118.846 54.02 118.732 54.467 118.504 54.857C118.276 55.247 117.964 55.55 117.568 55.766C117.178 55.976 116.746 56.081 116.272 56.081ZM116.272 55.19C116.536 55.19 116.782 55.127 117.01 55.001C117.244 54.875 117.433 54.686 117.577 54.434C117.721 54.182 117.793 53.876 117.793 53.516C117.793 53.156 117.724 52.853 117.586 52.607C117.448 52.355 117.265 52.166 117.037 52.04C116.809 51.914 116.563 51.851 116.299 51.851C116.035 51.851 115.789 51.914 115.561 52.04C115.339 52.166 115.162 52.355 115.03 52.607C114.898 52.853 114.832 53.156 114.832 53.516C114.832 54.05 114.967 54.464 115.237 54.758C115.513 55.046 115.858 55.19 116.272 55.19ZM122.012 56.081C121.544 56.081 121.121 55.976 120.743 55.766C120.365 55.55 120.068 55.25 119.852 54.866C119.636 54.476 119.528 54.026 119.528 53.516C119.528 53.012 119.639 52.565 119.861 52.175C120.083 51.785 120.386 51.485 120.77 51.275C121.154 51.065 121.583 50.96 122.057 50.96C122.531 50.96 122.96 51.065 123.344 51.275C123.728 51.485 124.031 51.785 124.253 52.175C124.475 52.565 124.586 53.012 124.586 53.516C124.586 54.02 124.472 54.467 124.244 54.857C124.016 55.247 123.704 55.55 123.308 55.766C122.918 55.976 122.486 56.081 122.012 56.081ZM122.012 55.19C122.276 55.19 122.522 55.127 122.75 55.001C122.984 54.875 123.173 54.686 123.317 54.434C123.461 54.182 123.533 53.876 123.533 53.516C123.533 53.156 123.464 52.853 123.326 52.607C123.188 52.355 123.005 52.166 122.777 52.04C122.549 51.914 122.303 51.851 122.039 51.851C121.775 51.851 121.529 51.914 121.301 52.04C121.079 52.166 120.902 52.355 120.77 52.607C120.638 52.853 120.572 53.156 120.572 53.516C120.572 54.05 120.707 54.464 120.977 54.758C121.253 55.046 121.598 55.19 122.012 55.19ZM127.598 50.96C127.982 50.96 128.321 51.038 128.615 51.194C128.915 51.344 129.149 51.533 129.317 51.761V51.041H130.352V56.081C130.352 56.537 130.256 56.942 130.064 57.296C129.872 57.656 129.593 57.938 129.227 58.142C128.867 58.346 128.435 58.448 127.931 58.448C127.259 58.448 126.701 58.289 126.257 57.971C125.813 57.659 125.561 57.233 125.501 56.693H126.518C126.596 56.951 126.761 57.158 127.013 57.314C127.271 57.476 127.577 57.557 127.931 57.557C128.345 57.557 128.678 57.431 128.93 57.179C129.188 56.927 129.317 56.561 129.317 56.081V55.253C129.143 55.487 128.906 55.685 128.606 55.847C128.312 56.003 127.976 56.081 127.598 56.081C127.166 56.081 126.77 55.973 126.41 55.757C126.056 55.535 125.774 55.229 125.564 54.839C125.36 54.443 125.258 53.996 125.258 53.498C125.258 53 125.36 52.559 125.564 52.175C125.774 51.791 126.056 51.494 126.41 51.284C126.77 51.068 127.166 50.96 127.598 50.96ZM129.317 53.516C129.317 53.174 129.245 52.877 129.101 52.625C128.963 52.373 128.78 52.181 128.552 52.049C128.324 51.917 128.078 51.851 127.814 51.851C127.55 51.851 127.304 51.917 127.076 52.049C126.848 52.175 126.662 52.364 126.518 52.616C126.38 52.862 126.311 53.156 126.311 53.498C126.311 53.84 126.38 54.14 126.518 54.398C126.662 54.656 126.848 54.854 127.076 54.992C127.31 55.124 127.556 55.19 127.814 55.19C128.078 55.19 128.324 55.124 128.552 54.992C128.78 54.86 128.963 54.668 129.101 54.416C129.245 54.158 129.317 53.858 129.317 53.516ZM132.725 49.34V56H131.699V49.34H132.725ZM138.617 53.399C138.617 53.585 138.605 53.753 138.581 53.903H134.792C134.822 54.299 134.969 54.617 135.233 54.857C135.497 55.097 135.821 55.217 136.205 55.217C136.757 55.217 137.147 54.986 137.375 54.524H138.482C138.332 54.98 138.059 55.355 137.663 55.649C137.273 55.937 136.787 56.081 136.205 56.081C135.731 56.081 135.305 55.976 134.927 55.766C134.555 55.55 134.261 55.25 134.045 54.866C133.835 54.476 133.73 54.026 133.73 53.516C133.73 53.006 133.832 52.559 134.036 52.175C134.246 51.785 134.537 51.485 134.909 51.275C135.287 51.065 135.719 50.96 136.205 50.96C136.673 50.96 137.09 51.062 137.456 51.266C137.822 51.47 138.107 51.758 138.311 52.13C138.515 52.496 138.617 52.919 138.617 53.399ZM137.546 53.075C137.54 52.697 137.405 52.394 137.141 52.166C136.877 51.938 136.55 51.824 136.16 51.824C135.806 51.824 135.503 51.938 135.251 52.166C134.999 52.388 134.849 52.691 134.801 53.075H137.546Z" fill="#2B3D54"/>
<g clip-path="url(#clip1_1446_31)">
<path fill-rule="evenodd" clip-rule="evenodd" d="M20.0161 52.9994C20.0161 52.5448 20.0916 52.1088 20.2265 51.7L17.8673 49.8984C17.4074 50.832 17.1484 51.8839 17.1484 52.9994C17.1484 54.1141 17.4072 55.1653 17.8663 56.0982L20.2242 54.2932C20.0906 53.8863 20.0161 53.4519 20.0161 52.9994Z" fill="#FBBC05"/>
<path fill-rule="evenodd" clip-rule="evenodd" d="M24.1583 48.8637C25.1461 48.8637 26.0383 49.2137 26.7392 49.7863L28.7784 47.75C27.5358 46.6682 25.9427 46 24.1583 46C21.3881 46 19.0072 47.5842 17.8672 49.899L20.2263 51.7005C20.7699 50.0505 22.3194 48.8637 24.1583 48.8637Z" fill="#EA4335"/>
<path fill-rule="evenodd" clip-rule="evenodd" d="M24.1583 57.1357C22.3195 57.1357 20.77 55.9489 20.2264 54.2988L17.8672 56.1C19.0072 58.4152 21.3881 59.9993 24.1583 59.9993C25.8681 59.9993 27.5005 59.3922 28.7256 58.2547L26.4863 56.5235C25.8544 56.9215 25.0587 57.1357 24.1583 57.1357Z" fill="#34A853"/>
<path fill-rule="evenodd" clip-rule="evenodd" d="M30.8514 52.9993C30.8514 52.5856 30.7876 52.1401 30.692 51.7266H24.1602V54.4311H27.92C27.732 55.3532 27.2204 56.0621 26.4881 56.5234L28.7274 58.2546C30.0143 57.0602 30.8514 55.2809 30.8514 52.9993Z" fill="#4285F4"/>
</g>
<rect width="167" height="29" rx="4" fill="#0866FF"/>
<path d="M42.387 14.859C42.387 14.247 42.525 13.698 42.801 13.212C43.077 12.72 43.452 12.336 43.926 12.06C44.406 11.784 44.937 11.646 45.519 11.646C46.203 11.646 46.8 11.811 47.31 12.141C47.82 12.471 48.192 12.939 48.426 13.545H47.445C47.271 13.167 47.019 12.876 46.689 12.672C46.365 12.468 45.975 12.366 45.519 12.366C45.081 12.366 44.688 12.468 44.34 12.672C43.992 12.876 43.719 13.167 43.521 13.545C43.323 13.917 43.224 14.355 43.224 14.859C43.224 15.357 43.323 15.795 43.521 16.173C43.719 16.545 43.992 16.833 44.34 17.037C44.688 17.241 45.081 17.343 45.519 17.343C45.975 17.343 46.365 17.244 46.689 17.046C47.019 16.842 47.271 16.551 47.445 16.173H48.426C48.192 16.773 47.82 17.238 47.31 17.568C46.8 17.892 46.203 18.054 45.519 18.054C44.937 18.054 44.406 17.919 43.926 17.649C43.452 17.373 43.077 16.992 42.801 16.506C42.525 16.02 42.387 15.471 42.387 14.859ZM51.7961 18.081C51.3341 18.081 50.9141 17.976 50.5361 17.766C50.1641 17.556 49.8701 17.259 49.6541 16.875C49.4441 16.485 49.3391 16.035 49.3391 15.525C49.3391 15.021 49.4471 14.577 49.6631 14.193C49.8851 13.803 50.1851 13.506 50.5631 13.302C50.9411 13.092 51.3641 12.987 51.8321 12.987C52.3001 12.987 52.7231 13.092 53.1011 13.302C53.4791 13.506 53.7761 13.8 53.9921 14.184C54.2141 14.568 54.3251 15.015 54.3251 15.525C54.3251 16.035 54.2111 16.485 53.9831 16.875C53.7611 17.259 53.4581 17.556 53.0741 17.766C52.6901 17.976 52.2641 18.081 51.7961 18.081ZM51.7961 17.361C52.0901 17.361 52.3661 17.292 52.6241 17.154C52.8821 17.016 53.0891 16.809 53.2451 16.533C53.4071 16.257 53.4881 15.921 53.4881 15.525C53.4881 15.129 53.4101 14.793 53.2541 14.517C53.0981 14.241 52.8941 14.037 52.6421 13.905C52.3901 13.767 52.1171 13.698 51.8231 13.698C51.5231 13.698 51.2471 13.767 50.9951 13.905C50.7491 14.037 50.5511 14.241 50.4011 14.517C50.2511 14.793 50.1761 15.129 50.1761 15.525C50.1761 15.927 50.2481 16.266 50.3921 16.542C50.5421 16.818 50.7401 17.025 50.9861 17.163C51.2321 17.295 51.5021 17.361 51.7961 17.361ZM57.805 12.978C58.405 12.978 58.891 13.161 59.263 13.527C59.635 13.887 59.821 14.409 59.821 15.093V18H59.011V15.21C59.011 14.718 58.888 14.343 58.642 14.085C58.396 13.821 58.06 13.689 57.634 13.689C57.202 13.689 56.857 13.824 56.599 14.094C56.347 14.364 56.221 14.757 56.221 15.273V18H55.402V13.068H56.221V13.77C56.383 13.518 56.602 13.323 56.878 13.185C57.16 13.047 57.469 12.978 57.805 12.978ZM62.1578 13.743V16.65C62.1578 16.89 62.2088 17.061 62.3108 17.163C62.4128 17.259 62.5898 17.307 62.8418 17.307H63.4448V18H62.7068C62.2508 18 61.9088 17.895 61.6808 17.685C61.4528 17.475 61.3388 17.13 61.3388 16.65V13.743H60.6998V13.068H61.3388V11.826H62.1578V13.068H63.4448V13.743H62.1578ZM64.8601 12.267C64.7041 12.267 64.5721 12.213 64.4641 12.105C64.3561 11.997 64.3021 11.865 64.3021 11.709C64.3021 11.553 64.3561 11.421 64.4641 11.313C64.5721 11.205 64.7041 11.151 64.8601 11.151C65.0101 11.151 65.1361 11.205 65.2381 11.313C65.3461 11.421 65.4001 11.553 65.4001 11.709C65.4001 11.865 65.3461 11.997 65.2381 12.105C65.1361 12.213 65.0101 12.267 64.8601 12.267ZM65.2561 13.068V18H64.4371V13.068H65.2561ZM69.055 12.978C69.655 12.978 70.141 13.161 70.513 13.527C70.885 13.887 71.071 14.409 71.071 15.093V18H70.261V15.21C70.261 14.718 70.138 14.343 69.892 14.085C69.646 13.821 69.31 13.689 68.884 13.689C68.452 13.689 68.107 13.824 67.849 14.094C67.597 14.364 67.471 14.757 67.471 15.273V18H66.652V13.068H67.471V13.77C67.633 13.518 67.852 13.323 68.128 13.185C68.41 13.047 68.719 12.978 69.055 12.978ZM76.7828 13.068V18H75.9638V17.271C75.8078 17.523 75.5888 17.721 75.3068 17.865C75.0308 18.003 74.7248 18.072 74.3888 18.072C74.0048 18.072 73.6598 17.994 73.3538 17.838C73.0478 17.676 72.8048 17.436 72.6248 17.118C72.4508 16.8 72.3638 16.413 72.3638 15.957V13.068H73.1738V15.849C73.1738 16.335 73.2968 16.71 73.5428 16.974C73.7888 17.232 74.1248 17.361 74.5508 17.361C74.9888 17.361 75.3338 17.226 75.5858 16.956C75.8378 16.686 75.9638 16.293 75.9638 15.777V13.068H76.7828ZM82.6657 15.345C82.6657 15.501 82.6567 15.666 82.6387 15.84H78.6967C78.7267 16.326 78.8917 16.707 79.1917 16.983C79.4977 17.253 79.8667 17.388 80.2987 17.388C80.6527 17.388 80.9467 17.307 81.1807 17.145C81.4207 16.977 81.5887 16.755 81.6847 16.479H82.5667C82.4347 16.953 82.1707 17.34 81.7747 17.64C81.3787 17.934 80.8867 18.081 80.2987 18.081C79.8307 18.081 79.4107 17.976 79.0387 17.766C78.6727 17.556 78.3847 17.259 78.1747 16.875C77.9647 16.485 77.8597 16.035 77.8597 15.525C77.8597 15.015 77.9617 14.568 78.1657 14.184C78.3697 13.8 78.6547 13.506 79.0207 13.302C79.3927 13.092 79.8187 12.987 80.2987 12.987C80.7667 12.987 81.1807 13.089 81.5407 13.293C81.9007 13.497 82.1767 13.779 82.3687 14.139C82.5667 14.493 82.6657 14.895 82.6657 15.345ZM81.8197 15.174C81.8197 14.862 81.7507 14.595 81.6127 14.373C81.4747 14.145 81.2857 13.974 81.0457 13.86C80.8117 13.74 80.5507 13.68 80.2627 13.68C79.8487 13.68 79.4947 13.812 79.2007 14.076C78.9127 14.34 78.7477 14.706 78.7057 15.174H81.8197ZM92.7161 13.068L91.1771 18H90.3311L89.1431 14.085L87.9551 18H87.1091L85.5611 13.068H86.3981L87.5321 17.208L88.7561 13.068H89.5931L90.7901 17.217L91.9061 13.068H92.7161ZM93.9519 12.267C93.7959 12.267 93.6639 12.213 93.5559 12.105C93.4479 11.997 93.3939 11.865 93.3939 11.709C93.3939 11.553 93.4479 11.421 93.5559 11.313C93.6639 11.205 93.7959 11.151 93.9519 11.151C94.1019 11.151 94.2279 11.205 94.3299 11.313C94.4379 11.421 94.4919 11.553 94.4919 11.709C94.4919 11.865 94.4379 11.997 94.3299 12.105C94.2279 12.213 94.1019 12.267 93.9519 12.267ZM94.3479 13.068V18H93.5289V13.068H94.3479ZM96.7428 13.743V16.65C96.7428 16.89 96.7938 17.061 96.8958 17.163C96.9978 17.259 97.1748 17.307 97.4268 17.307H98.0298V18H97.2918C96.8358 18 96.4938 17.895 96.2658 17.685C96.0378 17.475 95.9238 17.13 95.9238 16.65V13.743H95.2848V13.068H95.9238V11.826H96.7428V13.068H98.0298V13.743H96.7428ZM101.47 12.978C101.842 12.978 102.178 13.059 102.478 13.221C102.778 13.377 103.012 13.614 103.18 13.932C103.354 14.25 103.441 14.637 103.441 15.093V18H102.631V15.21C102.631 14.718 102.508 14.343 102.262 14.085C102.016 13.821 101.68 13.689 101.254 13.689C100.822 13.689 100.477 13.824 100.219 14.094C99.9671 14.364 99.8411 14.757 99.8411 15.273V18H99.0221V11.34H99.8411V13.77C100.003 13.518 100.225 13.323 100.507 13.185C100.795 13.047 101.116 12.978 101.47 12.978ZM110.841 11.745V12.582H108.186V14.427H110.256V15.264H108.186V18H107.16V11.745H110.841ZM111.45 15.498C111.45 15 111.552 14.559 111.756 14.175C111.966 13.791 112.248 13.494 112.602 13.284C112.962 13.068 113.358 12.96 113.79 12.96C114.18 12.96 114.519 13.038 114.807 13.194C115.101 13.344 115.335 13.533 115.509 13.761V13.041H116.544V18H115.509V17.262C115.335 17.496 115.098 17.691 114.798 17.847C114.498 18.003 114.156 18.081 113.772 18.081C113.346 18.081 112.956 17.973 112.602 17.757C112.248 17.535 111.966 17.229 111.756 16.839C111.552 16.443 111.45 15.996 111.45 15.498ZM115.509 15.516C115.509 15.174 115.437 14.877 115.293 14.625C115.155 14.373 114.972 14.181 114.744 14.049C114.516 13.917 114.27 13.851 114.006 13.851C113.742 13.851 113.496 13.917 113.268 14.049C113.04 14.175 112.854 14.364 112.71 14.616C112.572 14.862 112.503 15.156 112.503 15.498C112.503 15.84 112.572 16.14 112.71 16.398C112.854 16.656 113.04 16.854 113.268 16.992C113.502 17.124 113.748 17.19 114.006 17.19C114.27 17.19 114.516 17.124 114.744 16.992C114.972 16.86 115.155 16.668 115.293 16.416C115.437 16.158 115.509 15.858 115.509 15.516ZM117.55 15.516C117.55 15.006 117.652 14.559 117.856 14.175C118.066 13.785 118.354 13.485 118.72 13.275C119.086 13.065 119.506 12.96 119.98 12.96C120.58 12.96 121.075 13.104 121.465 13.392C121.861 13.674 122.128 14.079 122.266 14.607H121.159C121.069 14.361 120.925 14.169 120.727 14.031C120.529 13.893 120.28 13.824 119.98 13.824C119.56 13.824 119.224 13.974 118.972 14.274C118.726 14.568 118.603 14.982 118.603 15.516C118.603 16.05 118.726 16.467 118.972 16.767C119.224 17.067 119.56 17.217 119.98 17.217C120.574 17.217 120.967 16.956 121.159 16.434H122.266C122.122 16.938 121.852 17.34 121.456 17.64C121.06 17.934 120.568 18.081 119.98 18.081C119.506 18.081 119.086 17.976 118.72 17.766C118.354 17.55 118.066 17.25 117.856 16.866C117.652 16.476 117.55 16.026 117.55 15.516ZM127.833 15.399C127.833 15.585 127.821 15.753 127.797 15.903H124.008C124.038 16.299 124.185 16.617 124.449 16.857C124.713 17.097 125.037 17.217 125.421 17.217C125.973 17.217 126.363 16.986 126.591 16.524H127.698C127.548 16.98 127.275 17.355 126.879 17.649C126.489 17.937 126.003 18.081 125.421 18.081C124.947 18.081 124.521 17.976 124.143 17.766C123.771 17.55 123.477 17.25 123.261 16.866C123.051 16.476 122.946 16.026 122.946 15.516C122.946 15.006 123.048 14.559 123.252 14.175C123.462 13.785 123.753 13.485 124.125 13.275C124.503 13.065 124.935 12.96 125.421 12.96C125.889 12.96 126.306 13.062 126.672 13.266C127.038 13.47 127.323 13.758 127.527 14.13C127.731 14.496 127.833 14.919 127.833 15.399ZM126.762 15.075C126.756 14.697 126.621 14.394 126.357 14.166C126.093 13.938 125.766 13.824 125.376 13.824C125.022 13.824 124.719 13.938 124.467 14.166C124.215 14.388 124.065 14.691 124.017 15.075H126.762ZM129.869 13.779C130.043 13.539 130.28 13.344 130.58 13.194C130.886 13.038 131.225 12.96 131.597 12.96C132.035 12.96 132.431 13.065 132.785 13.275C133.139 13.485 133.418 13.785 133.622 14.175C133.826 14.559 133.928 15 133.928 15.498C133.928 15.996 133.826 16.443 133.622 16.839C133.418 17.229 133.136 17.535 132.776 17.757C132.422 17.973 132.029 18.081 131.597 18.081C131.213 18.081 130.871 18.006 130.571 17.856C130.277 17.706 130.043 17.514 129.869 17.28V18H128.843V11.34H129.869V13.779ZM132.884 15.498C132.884 15.156 132.812 14.862 132.668 14.616C132.53 14.364 132.344 14.175 132.11 14.049C131.882 13.917 131.636 13.851 131.372 13.851C131.114 13.851 130.868 13.917 130.634 14.049C130.406 14.181 130.22 14.373 130.076 14.625C129.938 14.877 129.869 15.174 129.869 15.516C129.869 15.858 129.938 16.158 130.076 16.416C130.22 16.668 130.406 16.86 130.634 16.992C130.868 17.124 131.114 17.19 131.372 17.19C131.636 17.19 131.882 17.124 132.11 16.992C132.344 16.854 132.53 16.656 132.668 16.398C132.812 16.14 132.884 15.84 132.884 15.498ZM137.094 18.081C136.626 18.081 136.203 17.976 135.825 17.766C135.447 17.55 135.15 17.25 134.934 16.866C134.718 16.476 134.61 16.026 134.61 15.516C134.61 15.012 134.721 14.565 134.943 14.175C135.165 13.785 135.468 13.485 135.852 13.275C136.236 13.065 136.665 12.96 137.139 12.96C137.613 12.96 138.042 13.065 138.426 13.275C138.81 13.485 139.113 13.785 139.335 14.175C139.557 14.565 139.668 15.012 139.668 15.516C139.668 16.02 139.554 16.467 139.326 16.857C139.098 17.247 138.786 17.55 138.39 17.766C138 17.976 137.568 18.081 137.094 18.081ZM137.094 17.19C137.358 17.19 137.604 17.127 137.832 17.001C138.066 16.875 138.255 16.686 138.399 16.434C138.543 16.182 138.615 15.876 138.615 15.516C138.615 15.156 138.546 14.853 138.408 14.607C138.27 14.355 138.087 14.166 137.859 14.04C137.631 13.914 137.385 13.851 137.121 13.851C136.857 13.851 136.611 13.914 136.383 14.04C136.161 14.166 135.984 14.355 135.852 14.607C135.72 14.853 135.654 15.156 135.654 15.516C135.654 16.05 135.789 16.464 136.059 16.758C136.335 17.046 136.68 17.19 137.094 17.19ZM142.833 18.081C142.365 18.081 141.942 17.976 141.564 17.766C141.186 17.55 140.889 17.25 140.673 16.866C140.457 16.476 140.349 16.026 140.349 15.516C140.349 15.012 140.46 14.565 140.682 14.175C140.904 13.785 141.207 13.485 141.591 13.275C141.975 13.065 142.404 12.96 142.878 12.96C143.352 12.96 143.781 13.065 144.165 13.275C144.549 13.485 144.852 13.785 145.074 14.175C145.296 14.565 145.407 15.012 145.407 15.516C145.407 16.02 145.293 16.467 145.065 16.857C144.837 17.247 144.525 17.55 144.129 17.766C143.739 17.976 143.307 18.081 142.833 18.081ZM142.833 17.19C143.097 17.19 143.343 17.127 143.571 17.001C143.805 16.875 143.994 16.686 144.138 16.434C144.282 16.182 144.354 15.876 144.354 15.516C144.354 15.156 144.285 14.853 144.147 14.607C144.009 14.355 143.826 14.166 143.598 14.04C143.37 13.914 143.124 13.851 142.86 13.851C142.596 13.851 142.35 13.914 142.122 14.04C141.9 14.166 141.723 14.355 141.591 14.607C141.459 14.853 141.393 15.156 141.393 15.516C141.393 16.05 141.528 16.464 141.798 16.758C142.074 17.046 142.419 17.19 142.833 17.19ZM148.383 15.525L150.669 18H149.283L147.447 15.867V18H146.421V11.34H147.447V15.21L149.247 13.041H150.669L148.383 15.525Z" fill="white"/>
<g clip-path="url(#clip2_1446_31)">
<path d="M31 14.043C31 10.177 27.866 7.04297 24 7.04297C20.134 7.04297 17 10.177 17 14.043C17 17.5369 19.5598 20.4328 22.9062 20.9579V16.0664H21.1289V14.043H22.9062V12.5008C22.9062 10.7464 23.9513 9.77734 25.5503 9.77734C26.3161 9.77734 27.1172 9.91406 27.1172 9.91406V11.6367H26.2345C25.3649 11.6367 25.0938 12.1763 25.0938 12.7299V14.043H27.0352L26.7248 16.0664H25.0938V20.9579C28.4402 20.4328 31 17.5369 31 14.043Z" fill="white"/>
</g>
<defs>
<clipPath id="clip0_1446_31">
<rect width="13" height="13" fill="white" transform="translate(17 84)"/>
</clipPath>
<clipPath id="clip1_1446_31">
<rect width="14" height="14" fill="white" transform="translate(17 46)"/>
</clipPath>
<clipPath id="clip2_1446_31">
<rect width="14" height="14" fill="white" transform="translate(17 7)"/>
</clipPath>
</defs>
</svg>
