<svg width="180" height="105" viewBox="0 0 180 105" fill="none" xmlns="http://www.w3.org/2000/svg">
<rect width="180" height="105" rx="5" fill="#E9EBFF"/>
<rect x="11" y="14" width="160" height="20" rx="3" fill="white"/>
<rect x="11" y="42" width="160" height="20" rx="3" fill="white"/>
<path d="M20 24H127" stroke="#E9EBFF" stroke-width="5" stroke-linecap="round"/>
<path d="M20 52H78" stroke="#E9EBFF" stroke-width="5" stroke-linecap="round"/>
<rect x="11" y="72" width="160" height="27" rx="4" fill="#3C50E0"/>
<path d="M52.344 90.077C51.8307 90.077 51.3687 89.989 50.958 89.813C50.5473 89.6297 50.2247 89.373 49.99 89.043C49.7553 88.713 49.638 88.328 49.638 87.888H50.98C51.0093 88.218 51.1377 88.4893 51.365 88.702C51.5997 88.9147 51.926 89.021 52.344 89.021C52.7767 89.021 53.114 88.9183 53.356 88.713C53.598 88.5003 53.719 88.229 53.719 87.899C53.719 87.6423 53.642 87.4333 53.488 87.272C53.3413 87.1107 53.1543 86.986 52.927 86.898C52.707 86.81 52.399 86.7147 52.003 86.612C51.5043 86.48 51.0973 86.348 50.782 86.216C50.474 86.0767 50.21 85.864 49.99 85.578C49.77 85.292 49.66 84.9107 49.66 84.434C49.66 83.994 49.77 83.609 49.99 83.279C50.21 82.949 50.518 82.696 50.914 82.52C51.31 82.344 51.7683 82.256 52.289 82.256C53.0297 82.256 53.6347 82.443 54.104 82.817C54.5807 83.1837 54.8447 83.6897 54.896 84.335H53.51C53.488 84.0563 53.356 83.818 53.114 83.62C52.872 83.422 52.553 83.323 52.157 83.323C51.7977 83.323 51.5043 83.4147 51.277 83.598C51.0497 83.7813 50.936 84.0453 50.936 84.39C50.936 84.6247 51.0057 84.819 51.145 84.973C51.2917 85.1197 51.475 85.237 51.695 85.325C51.915 85.413 52.2157 85.5083 52.597 85.611C53.103 85.7503 53.5137 85.8897 53.829 86.029C54.1517 86.1683 54.423 86.3847 54.643 86.678C54.8703 86.964 54.984 87.349 54.984 87.833C54.984 88.2217 54.8777 88.5883 54.665 88.933C54.4597 89.2777 54.1553 89.5563 53.752 89.769C53.356 89.9743 52.8867 90.077 52.344 90.077ZM59.5327 90.099C58.9607 90.099 58.4437 89.9707 57.9817 89.714C57.5197 89.45 57.1567 89.0833 56.8927 88.614C56.6287 88.1373 56.4967 87.5873 56.4967 86.964C56.4967 86.348 56.6323 85.8017 56.9037 85.325C57.175 84.8483 57.5453 84.4817 58.0147 84.225C58.484 83.9683 59.0083 83.84 59.5877 83.84C60.167 83.84 60.6913 83.9683 61.1607 84.225C61.63 84.4817 62.0003 84.8483 62.2717 85.325C62.543 85.8017 62.6787 86.348 62.6787 86.964C62.6787 87.58 62.5393 88.1263 62.2607 88.603C61.982 89.0797 61.6007 89.45 61.1167 89.714C60.64 89.9707 60.112 90.099 59.5327 90.099ZM59.5327 89.01C59.8553 89.01 60.156 88.933 60.4347 88.779C60.7207 88.625 60.9517 88.394 61.1277 88.086C61.3037 87.778 61.3917 87.404 61.3917 86.964C61.3917 86.524 61.3073 86.1537 61.1387 85.853C60.97 85.545 60.7463 85.314 60.4677 85.16C60.189 85.006 59.8883 84.929 59.5657 84.929C59.243 84.929 58.9423 85.006 58.6637 85.16C58.3923 85.314 58.176 85.545 58.0147 85.853C57.8533 86.1537 57.7727 86.524 57.7727 86.964C57.7727 87.6167 57.9377 88.1227 58.2677 88.482C58.605 88.834 59.0267 89.01 59.5327 89.01ZM63.9403 86.964C63.9403 86.3407 64.065 85.7943 64.3143 85.325C64.571 84.8483 64.923 84.4817 65.3703 84.225C65.8177 83.9683 66.331 83.84 66.9103 83.84C67.6437 83.84 68.2487 84.016 68.7253 84.368C69.2093 84.7127 69.5357 85.2077 69.7043 85.853H68.3513C68.2413 85.5523 68.0653 85.3177 67.8233 85.149C67.5813 84.9803 67.277 84.896 66.9103 84.896C66.397 84.896 65.9863 85.0793 65.6783 85.446C65.3777 85.8053 65.2273 86.3113 65.2273 86.964C65.2273 87.6167 65.3777 88.1263 65.6783 88.493C65.9863 88.8597 66.397 89.043 66.9103 89.043C67.6363 89.043 68.1167 88.724 68.3513 88.086H69.7043C69.5283 88.702 69.1983 89.1933 68.7143 89.56C68.2303 89.9193 67.629 90.099 66.9103 90.099C66.331 90.099 65.8177 89.9707 65.3703 89.714C64.923 89.45 64.571 89.0833 64.3143 88.614C64.065 88.1373 63.9403 87.5873 63.9403 86.964ZM72.032 83.136C71.8047 83.136 71.614 83.059 71.46 82.905C71.306 82.751 71.229 82.5603 71.229 82.333C71.229 82.1057 71.306 81.915 71.46 81.761C71.614 81.607 71.8047 81.53 72.032 81.53C72.252 81.53 72.439 81.607 72.593 81.761C72.747 81.915 72.824 82.1057 72.824 82.333C72.824 82.5603 72.747 82.751 72.593 82.905C72.439 83.059 72.252 83.136 72.032 83.136ZM72.648 83.939V90H71.394V83.939H72.648ZM74.3164 86.942C74.3164 86.3333 74.4411 85.7943 74.6904 85.325C74.9471 84.8557 75.2917 84.4927 75.7244 84.236C76.1644 83.972 76.6484 83.84 77.1764 83.84C77.6531 83.84 78.0674 83.9353 78.4194 84.126C78.7787 84.3093 79.0647 84.5403 79.2774 84.819V83.939H80.5424V90H79.2774V89.098C79.0647 89.384 78.7751 89.6223 78.4084 89.813C78.0417 90.0037 77.6237 90.099 77.1544 90.099C76.6337 90.099 76.1571 89.967 75.7244 89.703C75.2917 89.4317 74.9471 89.0577 74.6904 88.581C74.4411 88.097 74.3164 87.5507 74.3164 86.942ZM79.2774 86.964C79.2774 86.546 79.1894 86.183 79.0134 85.875C78.8447 85.567 78.6211 85.3323 78.3424 85.171C78.0637 85.0097 77.7631 84.929 77.4404 84.929C77.1177 84.929 76.8171 85.0097 76.5384 85.171C76.2597 85.325 76.0324 85.556 75.8564 85.864C75.6877 86.1647 75.6034 86.524 75.6034 86.942C75.6034 87.36 75.6877 87.7267 75.8564 88.042C76.0324 88.3573 76.2597 88.5993 76.5384 88.768C76.8244 88.9293 77.1251 89.01 77.4404 89.01C77.7631 89.01 78.0637 88.9293 78.3424 88.768C78.6211 88.6067 78.8447 88.372 79.0134 88.064C79.1894 87.7487 79.2774 87.382 79.2774 86.964ZM83.8835 81.86V90H82.6295V81.86H83.8835ZM93.3593 86.073C93.77 86.1463 94.1183 86.3627 94.4043 86.722C94.6903 87.0813 94.8333 87.4883 94.8333 87.943C94.8333 88.3317 94.7306 88.6837 94.5253 88.999C94.3273 89.307 94.0376 89.5527 93.6563 89.736C93.275 89.912 92.8313 90 92.3253 90H89.2673V82.355H92.1823C92.703 82.355 93.1503 82.443 93.5243 82.619C93.8983 82.795 94.1806 83.0333 94.3713 83.334C94.562 83.6273 94.6573 83.9573 94.6573 84.324C94.6573 84.764 94.54 85.1307 94.3053 85.424C94.0706 85.7173 93.7553 85.9337 93.3593 86.073ZM90.5213 85.567H92.0723C92.483 85.567 92.802 85.4753 93.0293 85.292C93.264 85.1013 93.3813 84.83 93.3813 84.478C93.3813 84.1333 93.264 83.8657 93.0293 83.675C92.802 83.477 92.483 83.378 92.0723 83.378H90.5213V85.567ZM92.2153 88.977C92.6406 88.977 92.9743 88.8743 93.2163 88.669C93.4583 88.4637 93.5793 88.1777 93.5793 87.811C93.5793 87.437 93.451 87.14 93.1943 86.92C92.9376 86.7 92.5966 86.59 92.1713 86.59H90.5213V88.977H92.2153ZM102.125 83.939V90H100.871V89.285C100.673 89.5343 100.413 89.7323 100.09 89.879C99.7747 90.0183 99.4373 90.088 99.078 90.088C98.6013 90.088 98.1723 89.989 97.791 89.791C97.417 89.593 97.12 89.2997 96.9 88.911C96.6873 88.5223 96.581 88.053 96.581 87.503V83.939H97.824V87.316C97.824 87.8587 97.9597 88.2767 98.231 88.57C98.5023 88.856 98.8727 88.999 99.342 88.999C99.8113 88.999 100.182 88.856 100.453 88.57C100.732 88.2767 100.871 87.8587 100.871 87.316V83.939H102.125ZM105.683 84.962V88.317C105.683 88.5443 105.734 88.7093 105.837 88.812C105.947 88.9073 106.13 88.955 106.387 88.955H107.157V90H106.167C105.602 90 105.169 89.868 104.869 89.604C104.568 89.34 104.418 88.911 104.418 88.317V84.962H103.703V83.939H104.418V82.432H105.683V83.939H107.157V84.962H105.683ZM110.215 84.962V88.317C110.215 88.5443 110.267 88.7093 110.369 88.812C110.479 88.9073 110.663 88.955 110.919 88.955H111.689V90H110.699C110.135 90 109.702 89.868 109.401 89.604C109.101 89.34 108.95 88.911 108.95 88.317V84.962H108.235V83.939H108.95V82.432H110.215V83.939H111.689V84.962H110.215ZM115.914 90.099C115.342 90.099 114.825 89.9707 114.363 89.714C113.901 89.45 113.538 89.0833 113.274 88.614C113.01 88.1373 112.878 87.5873 112.878 86.964C112.878 86.348 113.014 85.8017 113.285 85.325C113.556 84.8483 113.927 84.4817 114.396 84.225C114.865 83.9683 115.39 83.84 115.969 83.84C116.548 83.84 117.073 83.9683 117.542 84.225C118.011 84.4817 118.382 84.8483 118.653 85.325C118.924 85.8017 119.06 86.348 119.06 86.964C119.06 87.58 118.921 88.1263 118.642 88.603C118.363 89.0797 117.982 89.45 117.498 89.714C117.021 89.9707 116.493 90.099 115.914 90.099ZM115.914 89.01C116.237 89.01 116.537 88.933 116.816 88.779C117.102 88.625 117.333 88.394 117.509 88.086C117.685 87.778 117.773 87.404 117.773 86.964C117.773 86.524 117.689 86.1537 117.52 85.853C117.351 85.545 117.128 85.314 116.849 85.16C116.57 85.006 116.27 84.929 115.947 84.929C115.624 84.929 115.324 85.006 115.045 85.16C114.774 85.314 114.557 85.545 114.396 85.853C114.235 86.1537 114.154 86.524 114.154 86.964C114.154 87.6167 114.319 88.1227 114.649 88.482C114.986 88.834 115.408 89.01 115.914 89.01ZM123.798 83.84C124.274 83.84 124.7 83.939 125.074 84.137C125.455 84.335 125.752 84.6283 125.965 85.017C126.177 85.4057 126.284 85.875 126.284 86.425V90H125.041V86.612C125.041 86.0693 124.905 85.655 124.634 85.369C124.362 85.0757 123.992 84.929 123.523 84.929C123.053 84.929 122.679 85.0757 122.401 85.369C122.129 85.655 121.994 86.0693 121.994 86.612V90H120.74V83.939H121.994V84.632C122.199 84.3827 122.459 84.1883 122.775 84.049C123.097 83.9097 123.438 83.84 123.798 83.84ZM130.523 90.099C130.047 90.099 129.618 90.0147 129.236 89.846C128.862 89.67 128.565 89.4353 128.345 89.142C128.125 88.8413 128.008 88.5077 127.993 88.141H129.291C129.313 88.3977 129.434 88.614 129.654 88.79C129.882 88.9587 130.164 89.043 130.501 89.043C130.853 89.043 131.125 88.977 131.315 88.845C131.513 88.7057 131.612 88.5297 131.612 88.317C131.612 88.0897 131.502 87.921 131.282 87.811C131.07 87.701 130.729 87.58 130.259 87.448C129.805 87.3233 129.434 87.2023 129.148 87.085C128.862 86.9677 128.613 86.788 128.4 86.546C128.195 86.304 128.092 85.985 128.092 85.589C128.092 85.2663 128.188 84.973 128.378 84.709C128.569 84.4377 128.84 84.225 129.192 84.071C129.552 83.917 129.962 83.84 130.424 83.84C131.114 83.84 131.667 84.016 132.085 84.368C132.511 84.7127 132.738 85.1857 132.767 85.787H131.513C131.491 85.5157 131.381 85.2993 131.183 85.138C130.985 84.9767 130.718 84.896 130.38 84.896C130.05 84.896 129.797 84.9583 129.621 85.083C129.445 85.2077 129.357 85.3727 129.357 85.578C129.357 85.7393 129.416 85.875 129.533 85.985C129.651 86.095 129.794 86.183 129.962 86.249C130.131 86.3077 130.38 86.3847 130.71 86.48C131.15 86.5973 131.51 86.7183 131.788 86.843C132.074 86.9603 132.32 87.1363 132.525 87.371C132.731 87.6057 132.837 87.9173 132.844 88.306C132.844 88.6507 132.749 88.9587 132.558 89.23C132.368 89.5013 132.096 89.714 131.744 89.868C131.4 90.022 130.993 90.099 130.523 90.099Z" fill="white"/>
</svg>
