<svg width="114" height="23" viewBox="0 0 114 23" fill="none" xmlns="http://www.w3.org/2000/svg">
<g clip-path="url(#clip0_595_4535)">
<path d="M0 15.0748C0.0447858 15.0556 0.0287908 15.0151 0.0298572 14.9831C0.0437194 14.4318 0.113031 13.8859 0.17701 13.3389C0.304036 12.2723 0.50824 11.2164 0.788016 10.1793C1.00824 9.35727 1.272 8.5475 1.57816 7.75343C1.9524 6.78647 2.38287 5.84223 2.86735 4.92553C3.22991 4.23562 3.63511 3.57023 4.04031 2.89951C4.20699 2.60459 4.47079 2.37659 4.78674 2.25438C5.36469 2.02619 5.93518 1.78307 6.52059 1.57513C7.25956 1.31282 8.01345 1.09848 8.77161 0.909744C9.20561 0.80631 9.64813 0.726335 10.0864 0.635698C10.1237 0.624807 10.1638 0.628698 10.1984 0.646565C10.2329 0.664432 10.2592 0.694904 10.2719 0.731667C10.5129 1.16353 10.7155 1.61459 10.9192 2.06458C10.9295 2.10229 10.954 2.13451 10.9877 2.15442C11.0213 2.17433 11.0614 2.18035 11.0994 2.17121C11.3681 2.13282 11.6326 2.0987 11.9066 2.05818C12.025 2.04005 12.1455 2.03365 12.2628 2.02726C12.6893 2.00273 13.1158 1.95688 13.5488 1.95368C13.8228 1.95368 14.0979 1.92169 14.373 1.93022C14.8518 1.94621 15.3327 1.95261 15.8094 1.9942C16.3127 2.03898 16.8171 2.07631 17.315 2.16694C17.4067 2.18401 17.492 2.1904 17.5443 2.06031C17.7074 1.64124 17.9143 1.24137 18.1158 0.839366C18.2225 0.631432 18.2225 0.626101 18.4517 0.667687C19.1704 0.795553 19.8822 0.95962 20.5844 1.15926C21.4184 1.39491 22.2393 1.67505 23.0433 1.99846C23.3824 2.13282 23.7109 2.29384 24.0457 2.43886C24.1768 2.49644 24.2259 2.62333 24.2931 2.72783C24.9845 3.79233 25.605 4.90122 26.1506 6.04731C26.4549 6.69421 26.7307 7.35285 26.9781 8.02321C27.3141 8.92696 27.5947 9.85033 27.8184 10.7882C27.957 11.3821 28.0785 11.9804 28.1724 12.5839C28.247 13.0623 28.3074 13.5429 28.3536 14.0256C28.3963 14.4606 28.4187 14.8978 28.4475 15.334C28.4923 16.0164 28.4709 16.6978 28.4667 17.3792C28.4667 17.8707 28.4102 18.3623 28.3814 18.8539C28.3739 18.9195 28.3506 18.9824 28.3134 19.037C28.2763 19.0916 28.2264 19.1364 28.1681 19.1674C27.3259 19.7714 26.4516 20.3296 25.5492 20.8394C24.4816 21.4291 23.3696 21.9347 22.2233 22.3515C21.8928 22.473 21.5483 22.5573 21.2274 22.7076H21.1367C20.573 21.9338 20.0721 21.1161 19.6386 20.2625C19.6044 20.1953 19.6066 20.1623 19.6823 20.1324C19.9659 20.0183 20.2517 19.9074 20.5279 19.7795C21.041 19.5458 21.5396 19.2812 22.0207 18.9872C21.8746 18.8656 21.7296 18.7622 21.6038 18.6374C21.478 18.5127 21.3489 18.5308 21.2029 18.615C21.0386 18.7046 20.8627 18.7729 20.691 18.8464C19.8182 19.2132 18.9157 19.5046 17.9932 19.7176C17.4214 19.8507 16.843 19.9535 16.2604 20.0258C15.8659 20.0741 15.471 20.1097 15.0757 20.1324C14.7334 20.1538 14.3901 20.1324 14.0467 20.1378C13.5179 20.1417 12.9894 20.1125 12.4643 20.0503C12.0218 20.0023 11.5793 19.9437 11.1442 19.8594C10.4531 19.7245 9.77106 19.5464 9.10217 19.3263C8.42207 19.1089 7.75672 18.8478 7.11027 18.5447C7.08918 18.5282 7.06267 18.5203 7.03601 18.5224C7.00934 18.5246 6.98447 18.5367 6.96632 18.5564C6.826 18.681 6.67666 18.795 6.51953 18.8976C6.40223 18.9701 6.46834 19.0043 6.52912 19.0405C6.8085 19.1983 7.08788 19.3604 7.37259 19.5044C7.82406 19.7384 8.2891 19.9453 8.76521 20.1239C8.85585 20.158 8.83986 20.1847 8.81 20.2444C8.50219 20.8584 8.1597 21.4543 7.78419 22.0294C7.6381 22.2566 7.46429 22.4634 7.33527 22.7033H7.25103L6.46301 22.4293C5.72305 22.173 4.99789 21.8757 4.2909 21.5389C3.64044 21.2265 2.99851 20.8991 2.37684 20.5302C1.60802 20.0748 0.87119 19.5705 0.146087 19.0522C0.12985 19.0414 0.116634 19.0266 0.10768 19.0093C0.0987271 18.9919 0.0943303 18.9726 0.0949031 18.9531C0.0821072 18.6246 0.0266582 18.2994 0.0351888 17.971C0.0351888 17.939 0.0501174 17.8985 0.00533164 17.8793L0 15.0748ZM18.9561 9.8605C18.8497 9.85178 18.7427 9.85178 18.6362 9.8605C18.3117 9.9102 18.0005 10.025 17.7214 10.198C17.4423 10.371 17.2011 10.5986 17.0122 10.8671C16.7423 11.2292 16.5536 11.6453 16.459 12.0869C16.3645 12.5286 16.3662 12.9854 16.4641 13.4263C16.5939 14.1369 16.9873 14.7722 17.5656 15.2049C17.8425 15.4248 18.1679 15.5754 18.5147 15.6444C18.8614 15.7134 19.2197 15.6987 19.5596 15.6016C20.2922 15.4033 20.819 14.9288 21.1591 14.2612C21.4583 13.687 21.5772 13.0359 21.5004 12.393C21.4594 11.9297 21.3108 11.4824 21.0664 11.0868C20.5801 10.3233 19.8987 9.85836 18.9561 9.8605ZM12.042 12.7257C12.0653 12.5337 12.0541 12.3391 12.009 12.151C11.8629 11.4707 11.5697 10.8714 11.0194 10.4118C10.7753 10.2017 10.4906 10.0441 10.1829 9.94887C9.87526 9.85362 9.55129 9.82274 9.23118 9.85815C8.91107 9.89357 8.60168 9.99451 8.32228 10.1547C8.04288 10.3149 7.79946 10.5309 7.60718 10.7893C7.00577 11.5442 6.82983 12.4229 6.98871 13.3485C7.09634 14.0556 7.46782 14.6956 8.02838 15.1399C8.59247 15.5867 9.23226 15.7797 9.93604 15.6347C10.8008 15.4566 11.3969 14.9085 11.7637 14.1237C11.9736 13.6888 12.0693 13.2078 12.042 12.7257Z" fill="#5165DE"/>
<path d="M38.2812 11.8642C38.2812 10.055 38.2812 8.2461 38.2812 6.43761C38.2812 6.29472 38.3238 6.26807 38.456 6.26807C40.6697 6.26807 42.8834 6.26807 45.0971 6.2766C45.5781 6.28708 46.0567 6.34566 46.526 6.45147C47.1702 6.57667 47.7946 6.78792 48.3825 7.07954C48.9437 7.35627 49.4496 7.73318 49.8753 8.19172C50.3921 8.7606 50.7674 9.44343 50.9705 10.1847C51.1009 10.672 51.1725 11.1732 51.1837 11.6775C51.2239 12.6431 51.0009 13.6014 50.5386 14.45C50.255 14.9753 49.8748 15.4424 49.4179 15.8266C48.5904 16.5057 47.6147 16.9806 46.5697 17.2129C46.1131 17.3158 45.6499 17.387 45.1835 17.4261C44.7644 17.4666 44.3464 17.4826 43.9274 17.4826C42.1061 17.4826 40.2848 17.4826 38.4635 17.4826C38.3291 17.4826 38.2886 17.4538 38.2886 17.3131C38.2836 15.4989 38.2812 13.6826 38.2812 11.8642ZM42.2052 11.8642C42.2052 12.6461 42.2052 13.4245 42.2052 14.1994C42.2052 14.3348 42.1605 14.514 42.2287 14.5918C42.2969 14.6697 42.4932 14.6249 42.6318 14.6206C43.3782 14.5972 44.1332 14.6953 44.8775 14.5332C45.3137 14.4465 45.7217 14.2535 46.0653 13.9712C46.6572 13.4711 46.9184 12.8057 46.9685 12.0518C46.9938 11.7332 46.9741 11.4127 46.9099 11.0996C46.751 10.3649 46.3693 9.79015 45.6911 9.43506C45.2155 9.18554 44.6909 9.12796 44.1673 9.11516C43.5648 9.0949 42.9602 9.11516 42.3545 9.1077C42.2319 9.1077 42.1946 9.13435 42.1956 9.26231C42.2084 10.126 42.2052 10.9951 42.2052 11.8642Z" fill="#5165DE"/>
<path d="M110.132 15.493C109.966 15.8035 109.778 16.1021 109.569 16.3865C109.201 16.8569 108.718 17.2242 108.166 17.4529C107.68 17.6476 107.165 17.7632 106.642 17.7952C105.789 17.8623 104.982 17.745 104.226 17.3388C103.599 17.0002 103.074 16.4994 102.707 15.8886C102.382 15.3582 102.156 14.7733 102.04 14.1622C101.974 13.8065 101.932 13.4466 101.916 13.0852C101.864 12.2641 101.979 11.441 102.254 10.6657C102.438 10.1484 102.711 9.66727 103.061 9.24427C103.42 8.8049 103.864 8.44227 104.366 8.17794C104.779 7.96596 105.223 7.82193 105.682 7.75141C106.027 7.69662 106.377 7.67839 106.727 7.69703C107.553 7.73435 108.326 7.94442 108.987 8.46905C109.455 8.84593 109.819 9.33588 110.045 9.8926C110.055 9.91499 110.065 9.93845 110.077 9.95978C110.089 9.9811 110.103 9.99817 110.133 10.0451V9.86061C110.133 8.60448 110.133 7.34834 110.133 6.09221C110.133 5.96425 110.169 5.93652 110.292 5.93652C111.48 5.94221 112.668 5.94221 113.855 5.93652C113.972 5.93652 114.004 5.96638 114.004 6.08474C114.004 9.83964 114.004 13.5935 114.004 17.3462C114.004 17.4529 113.984 17.4902 113.867 17.4902C112.669 17.4845 111.471 17.4845 110.274 17.4902C110.156 17.4902 110.135 17.4539 110.136 17.3462C110.136 16.732 110.132 16.1104 110.132 15.493ZM108.041 10.703C107.877 10.7005 107.713 10.7098 107.55 10.7307C106.938 10.8374 106.455 11.137 106.156 11.6904C105.81 12.3302 105.807 12.9967 106.074 13.6546C106.166 13.8771 106.301 14.0788 106.473 14.2479C106.644 14.417 106.847 14.5499 107.071 14.6388C107.506 14.8144 107.983 14.8625 108.444 14.7774C108.758 14.7438 109.058 14.6313 109.317 14.4505C109.575 14.2696 109.783 14.0263 109.922 13.7431C110.128 13.3342 110.203 12.8716 110.136 12.4187C110.111 12.1419 110.024 11.8743 109.881 11.6358C109.738 11.3972 109.543 11.194 109.311 11.041C108.937 10.792 108.49 10.6732 108.041 10.703Z" fill="#5165DE"/>
<path d="M85.7594 7.68953C86.6641 7.66027 87.5668 7.79243 88.4252 8.07981C89.0732 8.29622 89.6745 8.63304 90.1975 9.07256C90.9734 9.72954 91.5004 10.6329 91.6903 11.6317C91.7875 12.1371 91.8134 12.6536 91.7671 13.1662C91.7002 14.1137 91.349 15.019 90.7594 15.7638C90.3476 16.277 89.8357 16.7012 89.2548 17.0103C88.6486 17.3408 87.9929 17.5709 87.313 17.6917C87 17.747 86.6837 17.7827 86.3661 17.7983C86.1015 17.8191 85.836 17.8266 85.5707 17.8207C84.5043 17.7738 83.4689 17.5968 82.5082 17.0999C81.9295 16.8078 81.4126 16.407 80.9854 15.9194C80.4346 15.2816 80.0632 14.5088 79.9095 13.6802C79.8236 13.2234 79.796 12.7576 79.8274 12.2939C79.86 11.6664 80.0235 11.0525 80.3073 10.4918C80.7248 9.67915 81.3699 9.00556 82.1637 8.55326C82.7939 8.19188 83.4819 7.94257 84.1972 7.81642C84.4855 7.76528 84.7763 7.72969 85.0684 7.70979C85.319 7.6906 85.5685 7.69913 85.7594 7.68953ZM85.8383 14.8627C86.0399 14.8756 86.2422 14.8562 86.4376 14.8051C87.1744 14.6089 87.6511 14.1536 87.8558 13.4189C87.9662 13.0158 87.9757 12.5917 87.8835 12.1841C87.8279 11.87 87.6901 11.5763 87.484 11.3328C87.278 11.0893 87.0111 10.9047 86.7106 10.7979C86.2374 10.6243 85.7241 10.5914 85.2326 10.703C84.8956 10.7564 84.5802 10.9032 84.3224 11.1267C84.0646 11.3502 83.8745 11.6416 83.7739 11.9676C83.627 12.4075 83.6074 12.8799 83.7174 13.3304C83.8124 13.8039 84.0843 14.2233 84.4777 14.5034C84.8767 14.7762 85.3577 14.9031 85.8394 14.8627H85.8383Z" fill="#5165DE"/>
<path d="M58.0551 13.8327C58.3928 14.0908 58.7614 14.3058 59.1524 14.4725C59.7286 14.7294 60.3315 14.9215 60.9502 15.0451C61.5674 15.1822 62.1993 15.2416 62.8312 15.2221C63.0888 15.2197 63.3414 15.151 63.5648 15.0227C63.8698 14.8414 63.7781 14.4394 63.5648 14.2848C63.327 14.1057 63.0455 14.0566 62.7683 13.9884C61.8992 13.7751 61.011 13.6322 60.1654 13.3262C59.6386 13.1364 59.146 12.8922 58.7546 12.4731C58.4459 12.1482 58.2449 11.736 58.1788 11.2927C58.1031 10.8043 58.101 10.3117 58.294 9.84142C58.4537 9.45595 58.7017 9.11335 59.018 8.84121C59.4338 8.48787 59.9154 8.22041 60.4352 8.05426C60.8376 7.92184 61.2518 7.82829 61.6721 7.77488C62.2661 7.69201 62.8666 7.66488 63.4657 7.69384C64.2079 7.71883 64.944 7.83668 65.657 8.04466C66.0686 8.16554 66.4703 8.31776 66.8587 8.49998C66.9568 8.5469 67.0496 8.60661 67.1456 8.65353C67.173 8.66548 67.1962 8.68539 67.2121 8.71067C67.2281 8.73596 67.2361 8.76546 67.2351 8.79535C67.2351 9.59012 67.2351 10.3842 67.2351 11.1775C67.2324 11.1909 67.2277 11.2039 67.2213 11.2159L66.8449 11.0197C66.1834 10.6858 65.4734 10.4584 64.741 10.3458C64.264 10.2613 63.7789 10.2309 63.2951 10.2552C62.9474 10.2775 62.5923 10.2839 62.2724 10.4684C62.214 10.496 62.1645 10.5396 62.1298 10.5941C62.0951 10.6487 62.0765 10.7119 62.0762 10.7766C62.0734 10.8438 62.0901 10.9104 62.1243 10.9684C62.1586 11.0263 62.2089 11.073 62.2692 11.1029C62.5668 11.2714 62.8984 11.33 63.2289 11.3983C63.5808 11.4718 63.9381 11.522 64.2953 11.587C64.7426 11.6598 65.1852 11.7592 65.6207 11.8845C66.2403 12.0786 66.815 12.3558 67.2373 12.8645C67.4768 13.1683 67.6356 13.5278 67.699 13.9095C67.7636 14.243 67.7812 14.584 67.7512 14.9225C67.7082 15.4988 67.4684 16.0428 67.072 16.4633C66.4535 17.1255 65.673 17.4603 64.805 17.6363C64.3966 17.7159 63.9834 17.7679 63.568 17.792C63.3377 17.808 63.1074 17.8165 62.8781 17.8122C62.1832 17.8039 61.4907 17.7278 60.8105 17.5851C60.0128 17.4186 59.2418 17.1434 58.519 16.7672C58.4187 16.7139 58.3206 16.6606 58.2183 16.6073C58.1609 16.5825 58.1134 16.5395 58.0831 16.4849C58.0529 16.4303 58.0415 16.3672 58.0509 16.3055C58.0594 15.4898 58.0551 14.6762 58.0551 13.8327Z" fill="#5165DE"/>
<path d="M78.7355 13.9062V14.0736C78.7355 14.9267 78.7355 15.7723 78.7355 16.6211C78.7389 16.662 78.7298 16.7029 78.7094 16.7385C78.689 16.7741 78.6583 16.8027 78.6214 16.8205C77.9336 17.2214 77.1841 17.5057 76.4034 17.6618C76.0441 17.7302 75.6808 17.7758 75.3158 17.7983C74.9862 17.8249 74.6554 17.8303 74.3251 17.8143C73.2663 17.7578 72.2351 17.5712 71.2882 17.0572C70.7646 16.7808 70.2951 16.4124 69.902 15.9696C69.3842 15.3694 69.0278 14.6472 68.8666 13.871C68.7594 13.3844 68.7203 12.8852 68.7504 12.3878C68.7889 11.4534 69.1073 10.5521 69.6642 9.80086C70.1974 9.09175 70.9001 8.59911 71.7137 8.24936C72.2448 8.02367 72.8023 7.86602 73.3729 7.78017C74.0008 7.68517 74.6368 7.65444 75.271 7.68847C76.1765 7.72173 77.0686 7.91749 77.9048 8.26642C78.1543 8.3752 78.3947 8.50393 78.6235 8.65136C78.6511 8.66795 78.6735 8.69191 78.6882 8.72055C78.7029 8.74918 78.7093 8.78136 78.7067 8.81344C78.7067 9.70809 78.7067 10.6027 78.7067 11.4963C78.7067 11.5304 78.7227 11.5731 78.6896 11.5944C78.6566 11.6158 78.6182 11.5827 78.583 11.5614C78.0068 11.1848 77.3574 10.9348 76.6775 10.8277C76.1553 10.7454 75.6239 10.7404 75.1004 10.8128C74.6679 10.8554 74.2457 10.9708 73.8517 11.154C73.326 11.4217 72.8995 11.7938 72.7854 12.4059C72.735 12.6294 72.7339 12.8611 72.7821 13.085C72.8304 13.309 72.9268 13.5197 73.0647 13.7026C73.4508 14.2123 73.9935 14.449 74.596 14.5897C75.0645 14.6884 75.5433 14.7289 76.0217 14.7102C76.66 14.6904 77.2899 14.5583 77.8824 14.32C78.1804 14.212 78.4662 14.0734 78.7355 13.9062Z" fill="#5165DE"/>
<path d="M101.226 11.749C100.973 11.5847 100.689 11.472 100.392 11.4174C99.9828 11.3343 99.5625 11.3245 99.1503 11.3886C98.758 11.4447 98.3852 11.5951 98.0637 11.8268C97.7089 12.0943 97.444 12.4637 97.3045 12.8857C97.1819 13.2351 97.1101 13.6003 97.0912 13.9701C97.0273 15.0887 97.0795 16.2094 97.0656 17.3259C97.0656 17.4517 97.0443 17.4954 96.9046 17.4944C95.7274 17.4872 94.5502 17.4872 93.373 17.4944C93.2503 17.4944 93.2258 17.4581 93.2258 17.3429C93.2258 14.3188 93.2258 11.2944 93.2258 8.26955C93.2258 8.14692 93.2525 8.11067 93.3804 8.11174C94.5278 8.11671 95.6748 8.11671 96.8215 8.11174C96.9526 8.11174 96.9761 8.15119 96.975 8.27168C96.975 9.17593 96.975 10.0844 96.975 11.0121C97.0348 10.8763 97.0753 10.7327 97.0955 10.5856C97.2491 9.98527 97.4559 9.41266 97.8206 8.89869C97.999 8.63503 98.2314 8.41228 98.5024 8.24518C98.7733 8.07808 99.0767 7.97045 99.3924 7.92939C99.9349 7.84541 100.49 7.91945 100.992 8.14266C101.069 8.16587 101.136 8.215 101.182 8.28179C101.227 8.34859 101.248 8.42898 101.241 8.50948C101.225 9.52355 101.234 10.5355 101.234 11.5538L101.226 11.749Z" fill="#5165DE"/>
<path d="M56.3341 10.3223V10.4673C56.3341 12.7734 56.3341 15.0799 56.3341 17.3867C56.3341 17.52 56.3021 17.5509 56.1699 17.5509C54.9926 17.5445 53.8151 17.5445 52.6371 17.5509C52.5305 17.5509 52.4942 17.5274 52.4942 17.4112C52.4985 15.0696 52.4985 12.7283 52.4942 10.3873C52.4942 10.3724 52.4942 10.3575 52.4942 10.3255C53.7802 10.8309 55.0555 10.8533 56.3341 10.3223Z" fill="#5165DE"/>
<path d="M56.3341 7.33963C56.3682 8.07326 55.8009 8.73438 55.1664 8.96577C54.8758 9.08197 54.5619 9.12842 54.2501 9.10138C53.9382 9.07434 53.6371 8.97458 53.3707 8.81009C53.144 8.68272 52.9499 8.50457 52.8035 8.28959C52.6572 8.07461 52.5626 7.82866 52.5273 7.57102C52.4857 7.31384 52.5076 7.0504 52.5911 6.80361C52.6745 6.55681 52.817 6.33414 53.0061 6.15494C53.3045 5.85469 53.6935 5.66097 54.1129 5.60364C54.5211 5.53626 54.9402 5.59815 55.3115 5.78065C55.5578 5.89199 55.7753 6.05845 55.947 6.2672C56.1188 6.47594 56.2403 6.72137 56.3021 6.98454C56.327 7.10118 56.3378 7.22041 56.3341 7.33963Z" fill="#5165DE"/>
</g>
<defs>
<clipPath id="clip0_595_4535">
<rect width="114" height="22.073" fill="white" transform="translate(0 0.630371)"/>
</clipPath>
</defs>
</svg>
