<svg width="127" height="25" viewBox="0 0 127 25" fill="none" xmlns="http://www.w3.org/2000/svg">
<g clip-path="url(#clip0_1900_1817)">
<g clip-path="url(#clip1_1900_1817)">
<path d="M76.7236 7.1535C83.3148 7.22366 86.1112 13.5107 83.3418 17.821C83.2007 18.0415 83.1695 18.2059 83.4145 18.3603C83.4632 18.3949 83.5096 18.4324 83.5536 18.4725C84.5812 19.3326 84.5916 19.3406 83.6428 20.3229C83.3065 20.6738 83.045 21.3033 82.5862 21.2772C82.2 21.2572 81.816 20.758 81.4797 20.4252C81.1766 20.1265 80.9399 20.1646 80.5849 20.351C77.6433 21.9047 73.8691 21.5198 71.5274 19.3907C69.3476 17.412 68.6771 14.9481 69.5075 12.2136C70.3607 9.43294 72.4367 7.84515 75.3618 7.2818C75.8089 7.18763 76.266 7.14456 76.7236 7.1535ZM78.2266 17.6967C77.6433 17.2115 77.1512 16.7865 76.6385 16.3835C76.3852 16.1831 76.3125 16.0367 76.57 15.7821C77.0474 15.305 77.5056 14.8091 77.9443 14.2945C78.1955 14.0018 78.374 14.0439 78.6273 14.2825C79.0425 14.6654 79.468 15.0163 79.8832 15.3892C80.0805 15.5676 80.2154 15.6097 80.2881 15.2989C80.5995 13.9818 80.3877 12.7629 79.4577 11.7284C78.5608 10.726 77.3817 10.3752 76.0593 10.6218C74.4109 10.9265 73.2608 12.3299 73.1965 14.0299C73.128 15.8583 74.1681 17.3839 75.8039 17.825C76.603 18.0503 77.4578 18.005 78.2266 17.6967Z" fill="#5C9AFC"/>
<path d="M32.9826 14.1899C32.9826 12.1189 32.9826 10.046 32.9826 7.97504C32.9826 7.65829 32.9701 7.40168 33.4393 7.4137C35.5423 7.46583 37.6515 7.3275 39.7545 7.50592C40.8483 7.59 41.9129 7.88879 42.883 8.38402C45.1146 9.53276 46.2564 11.3732 46.3623 13.7849C46.4765 16.3109 45.5527 18.3839 43.2899 19.7832C41.958 20.587 40.4178 21.0103 38.8472 21.0042C37.064 21.0302 35.2807 21.0042 33.4995 21.0262C33.0428 21.0262 32.9743 20.8438 32.9764 20.4669C32.9909 18.3799 32.9826 16.2829 32.9826 14.1899ZM36.8771 14.25C36.8771 15.2524 36.8771 16.2428 36.8771 17.2372C36.8771 17.4878 36.8771 17.7103 37.2446 17.7003C38.0314 17.6762 38.8203 17.7464 39.6029 17.586C41.3384 17.2331 42.3494 16.0383 42.3681 14.3001C42.3868 12.4958 41.4298 11.293 39.6839 10.892C38.9241 10.7176 38.1539 10.8038 37.3899 10.7637C36.9892 10.7437 36.8626 10.884 36.8709 11.2649C36.8917 12.2593 36.8771 13.2557 36.8771 14.25Z" fill="#5C9AFC"/>
<path d="M99.8647 11.9008C99.8647 13.21 99.9187 14.5211 99.8543 15.8282C99.7069 18.7833 97.961 20.6557 94.9405 21.1449C93.74 21.3445 92.5114 21.3262 91.3179 21.0908C88.725 20.5755 87.1223 18.8414 86.8421 16.2793C86.6677 14.6614 86.7819 13.0375 86.759 11.4177C86.7403 10.2449 86.759 9.07208 86.7486 7.89928C86.7486 7.54844 86.8566 7.41412 87.2324 7.42013C88.2247 7.43818 89.217 7.44419 90.2072 7.42013C90.6556 7.4061 90.7408 7.58453 90.7366 7.97145C90.7221 10.1767 90.7366 12.382 90.7366 14.5872C90.729 14.8996 90.738 15.2121 90.7636 15.5235C90.9525 17.3158 92.358 18.256 94.1661 17.7949C95.0754 17.5623 95.6069 16.9649 95.8269 16.1009C95.9234 15.7001 95.9673 15.2893 95.9577 14.8779C95.9577 12.6125 95.9702 10.3451 95.9453 8.0777C95.9453 7.58653 96.0408 7.37803 96.6054 7.40811C97.5334 7.45422 98.4738 7.43417 99.3976 7.40811C99.7962 7.40811 99.9291 7.52839 99.9228 7.91131C99.9062 9.24048 99.9228 10.5697 99.9228 11.8968L99.8647 11.9008Z" fill="#5C9AFC"/>
<path d="M61.4609 21.2507C59.2334 21.2267 57.1906 20.6653 55.3824 19.3642C55.0233 19.1036 54.9672 18.9272 55.2952 18.5944C55.8308 18.0371 56.3332 17.4456 56.819 16.8442C57.0495 16.5595 57.2072 16.5635 57.4999 16.772C58.6247 17.5893 59.9764 18.0639 61.382 18.1353C61.8273 18.175 62.2762 18.1217 62.6982 17.9789C62.8648 17.9314 63.0122 17.8355 63.1203 17.7042C63.2284 17.5729 63.2919 17.4126 63.3023 17.2452C63.3172 17.0789 63.278 16.9123 63.1902 16.7685C63.1024 16.6248 62.9703 16.5111 62.8124 16.4433C62.3412 16.2154 61.8406 16.0496 61.3239 15.9501C60.3136 15.7429 59.3195 15.4675 58.349 15.1261C56.7277 14.5106 55.6502 13.4902 55.617 11.6999C55.59 9.8455 56.4474 8.43213 58.2162 7.76253C61.1391 6.6639 63.9355 7.10696 66.545 8.76492C66.8045 8.92931 66.8398 9.07967 66.6488 9.33027C66.1526 9.97381 65.6689 10.6254 65.2081 11.293C65.0005 11.5816 64.8572 11.6278 64.5375 11.4253C63.6933 10.8747 62.7334 10.5112 61.7266 10.3607C61.2288 10.2612 60.7133 10.2819 60.2257 10.4209C59.879 10.5392 59.6195 10.7356 59.5759 11.1185C59.5508 11.2947 59.5861 11.474 59.6765 11.6289C59.7668 11.7839 59.9072 11.906 60.0762 11.9766C60.532 12.1907 61.015 12.3457 61.5128 12.4377C62.5944 12.6903 63.6843 12.9168 64.7098 13.3499C66.1921 13.9754 67.201 14.9537 67.2571 16.6076C67.3131 18.3719 66.572 19.7111 64.934 20.547C63.8483 21.1024 62.6754 21.2668 61.4609 21.2507Z" fill="#5C9AFC"/>
<path d="M107.77 21.2489C105.728 21.2105 103.751 20.5518 102.119 19.3664C101.776 19.1198 101.675 18.9494 102.015 18.6026C102.557 18.0493 103.053 17.4519 103.539 16.8524C103.761 16.5778 103.917 16.5517 104.22 16.7682C105.343 17.5857 106.693 18.0617 108.098 18.1355C108.522 18.1733 108.95 18.1304 109.358 18.0092C109.537 17.9676 109.699 17.8741 109.822 17.7412C109.945 17.6082 110.023 17.4422 110.045 17.2654C110.093 16.8644 109.848 16.6078 109.507 16.4254C109.054 16.2063 108.572 16.0472 108.075 15.9523C106.985 15.7346 105.916 15.4302 104.878 15.0421C103.379 14.4266 102.401 13.4383 102.345 11.7803C102.289 10.1224 102.968 8.80521 104.481 7.97122C106.3 6.96882 108.253 7.06505 110.215 7.43995C111.309 7.66211 112.342 8.10181 113.25 8.73103C113.518 8.91146 113.587 9.0538 113.367 9.33247C112.866 9.96999 112.383 10.6235 111.928 11.2931C111.72 11.6059 111.552 11.5919 111.255 11.4034C110.425 10.8732 109.486 10.5211 108.503 10.3709C108.242 10.3332 107.979 10.3144 107.716 10.3148C106.902 10.3148 106.395 10.5875 106.3 11.0686C106.196 11.5879 106.508 11.9487 107.363 12.2013C108.116 12.4218 108.891 12.5822 109.646 12.7747C110.371 12.9577 111.079 13.1992 111.762 13.4964C114.953 14.8998 114.33 18.8151 112.335 20.1503C111.083 20.9863 109.684 21.2589 107.77 21.2489Z" fill="#5C9AFC"/>
<path d="M52.9182 14.2183C52.9182 16.2893 52.9058 18.3602 52.9182 20.4332C52.9182 20.8943 52.7875 21.0466 52.2954 21.0346C51.3675 21.0025 50.4271 21.0105 49.5032 21.0346C49.1047 21.0346 48.9822 20.9083 48.9822 20.5294C48.9932 16.33 48.9932 12.1293 48.9822 7.9273C48.9822 7.54438 49.1088 7.41207 49.5053 7.42209C50.4561 7.44214 51.409 7.44615 52.3598 7.42209C52.7875 7.41006 52.912 7.5504 52.9099 7.95937C52.9099 10.0363 52.9182 12.1273 52.9182 14.2183Z" fill="#5C9AFC"/>
<path d="M26.4847 13.4443C26.246 17.8448 24.0745 21.5757 19.5157 23.7529C15.098 25.8599 10.8111 25.3788 6.80648 22.6443C6.58128 22.4764 6.32204 22.3561 6.04559 22.2911C5.76914 22.2262 5.48165 22.2181 5.20175 22.2674C4.03089 22.4458 2.85381 22.5901 1.68295 22.7706C1.03317 22.8688 0.8318 22.6884 1.1432 22.0929C1.23039 21.9286 1.27814 21.7441 1.36118 21.5777C2.36595 19.5529 2.71679 17.6463 2.10023 15.2546C0.622126 9.53697 4.13884 3.69703 9.70663 1.7163C15.4945 -0.342618 21.71 1.78646 24.77 6.88464C25.9118 8.77515 26.4245 10.8301 26.4847 13.4443ZM9.22916 13.0052C9.22916 14.7414 9.24161 16.4775 9.22916 18.2177C9.22916 18.7189 9.29767 19.0477 9.94122 19.0336C11.739 18.9956 13.5389 19.1098 15.3284 18.8893C18.569 18.4883 20.7903 16.1949 20.8588 13.1897C20.9315 9.90785 19.0008 7.62641 15.6294 7.09514C13.7216 6.79242 11.7847 6.94277 9.86026 6.91671C9.23746 6.91671 9.23746 7.27757 9.23746 7.71863C9.23539 9.47282 9.22916 11.239 9.22916 13.0052Z" fill="#5C9AFC"/>
<path d="M12.6588 12.921C12.6588 12.1492 12.6588 11.3754 12.6588 10.6035C12.6588 10.3329 12.6131 9.98003 13.0158 9.95196C14.2428 9.86776 15.48 9.83769 16.4557 10.7358C17.4315 11.634 17.5332 12.7406 17.2239 13.9134C16.8087 15.4471 14.6102 16.5016 13.0158 15.9964C12.6318 15.8741 12.6608 15.5954 12.6588 15.3328C12.6525 14.5289 12.6588 13.725 12.6588 12.921Z" fill="#5C9AFC"/>
</g>
</g>
<defs>
<clipPath id="clip0_1900_1817">
<rect width="127" height="23.9426" fill="white" transform="translate(0 0.528809)"/>
</clipPath>
<clipPath id="clip1_1900_1817">
<rect width="113" height="24.1236" fill="white" transform="translate(1 0.938477)"/>
</clipPath>
</defs>
</svg>
