<svg width="113" height="24" viewBox="0 0 113 24" fill="none" xmlns="http://www.w3.org/2000/svg">
<path d="M10.684 0C10.684 1.19665 10.6618 2.39331 10.6761 3.58996C10.6761 3.89206 10.5915 3.95456 10.3076 3.94935C9.61751 3.93503 8.92478 3.93112 8.23595 3.97018C7.45468 4.01576 7.12784 4.37384 7.11482 5.16944C7.1018 5.86869 7.11482 6.56793 7.1031 7.26717C7.1031 7.46509 7.17211 7.50285 7.35181 7.50155C8.36877 7.49374 9.38703 7.50155 10.404 7.49244C10.6332 7.49244 10.6892 7.54062 10.6644 7.77891C10.5273 8.91957 10.4049 10.0615 10.2972 11.2048C10.2764 11.4144 10.1996 11.4457 10.016 11.4431C9.16176 11.4353 8.30627 11.4509 7.45207 11.4327C7.18253 11.4327 7.1031 11.4835 7.1044 11.7699C7.11482 15.3612 7.1044 18.9538 7.11873 22.5463C7.11873 22.8276 7.04711 22.8901 6.77366 22.8862C5.39992 22.8706 4.02748 22.8732 2.65373 22.8862C2.42456 22.8862 2.37117 22.8224 2.37247 22.601C2.37247 18.9889 2.37247 15.3781 2.38289 11.7673C2.38289 11.5069 2.3269 11.4236 2.05606 11.434C1.46099 11.4561 0.865914 11.434 0.270842 11.4444C0.0781276 11.447 0 11.4157 0 11.1983C0.0121532 10.0498 0.0121532 8.9009 0 7.75156C0 7.54062 0.0755233 7.49114 0.266936 7.50155C0.842476 7.51197 1.41802 7.50155 1.99486 7.50155C2.42326 7.50155 2.36857 7.5315 2.37117 7.13826C2.37117 6.19943 2.34904 5.26059 2.39201 4.32306C2.43758 3.32433 2.6954 2.36987 3.32303 1.56516C4.00534 0.692732 4.96241 0.311208 6.01713 0.115889C6.19031 0.0833361 6.38042 0.0976595 6.53537 0H10.684Z" fill="#456ADB"/>
<path d="M53.1367 11.8155C53.1367 8.37701 53.1367 4.93852 53.1367 1.50004C53.1367 1.26045 53.1797 1.16149 53.4492 1.12112C54.8242 0.915386 56.1958 0.690552 57.5639 0.446621C57.8647 0.391931 57.8803 0.486987 57.8803 0.731786C57.8725 2.95452 57.8803 5.17725 57.8803 7.39868C57.8803 7.83879 57.8803 7.82577 58.3087 7.70728C60.2111 7.18643 62.1279 7.09398 64.0498 7.59139C65.5824 7.98854 66.4509 9.01201 66.7595 10.542C66.8967 11.2958 66.9595 12.0612 66.947 12.8272C66.947 14.3976 66.9588 15.9693 66.9236 17.5396C66.9015 18.5214 66.7205 19.4824 66.2478 20.3613C65.5381 21.6817 64.3532 22.3432 62.9547 22.7052C61.6122 23.0502 60.2437 23.088 58.8686 23.0776C57.03 23.0633 55.2227 22.7898 53.3997 22.5294C53.1744 22.4968 53.1393 22.3992 53.1393 22.1921C53.1402 18.732 53.1393 15.2731 53.1367 11.8155ZM62.193 15.0383C62.193 14.3286 62.2125 13.6202 62.193 12.9119C62.1604 11.8988 61.6461 11.3754 60.6448 11.2543C59.7007 11.1397 58.8452 11.417 58.0053 11.7934C57.8634 11.8572 57.8751 11.9587 57.8751 12.0733C57.8751 12.9535 57.8751 13.8347 57.8751 14.7166C57.8751 16.1056 57.8751 17.4945 57.8751 18.8834C57.8751 18.9889 57.8035 19.1373 58.0223 19.1517C58.9142 19.209 59.8049 19.2819 60.689 19.0905C61.5328 18.9147 62.012 18.4108 62.1448 17.5631C62.2776 16.7154 62.1682 15.8859 62.193 15.0383Z" fill="#456ADB"/>
<path d="M112.873 7.49754C112.122 8.68378 111.407 9.81663 110.69 10.9482C109.901 12.2021 109.106 13.4587 108.301 14.7139C108.237 14.7922 108.201 14.8899 108.199 14.9912C108.197 15.0925 108.229 15.1916 108.29 15.2725C109.759 17.6971 111.22 20.1277 112.673 22.5644C112.73 22.6595 112.785 22.7572 112.863 22.8926H112.548C111.04 22.8926 109.532 22.8861 108.025 22.8926C107.933 22.9009 107.841 22.8802 107.761 22.8336C107.681 22.7869 107.617 22.7165 107.579 22.6322C106.255 20.4116 104.925 18.1949 103.589 15.9822C103.542 15.9041 103.491 15.8259 103.398 15.6749V16.0538C103.398 18.2375 103.398 20.4225 103.398 22.6061C103.398 22.8249 103.352 22.8952 103.119 22.8926C101.717 22.8809 100.314 22.8835 98.9128 22.8926C98.7148 22.8926 98.6523 22.847 98.6523 22.6426C98.6575 15.572 98.6575 8.50148 98.6523 1.43093C98.6523 1.24343 98.6992 1.17051 98.8971 1.14446C100.317 0.911384 101.728 0.690022 103.129 0.440014C103.405 0.390533 103.39 0.497307 103.39 0.692626C103.39 4.23702 103.39 7.78184 103.39 11.3271V14.2634C103.503 14.2426 103.52 14.1462 103.559 14.0811C104.899 11.9716 106.235 9.86003 107.57 7.74625C107.611 7.66177 107.677 7.59172 107.759 7.54526C107.84 7.4988 107.934 7.47809 108.028 7.48582C109.536 7.49624 111.044 7.48582 112.552 7.48582L112.873 7.49754Z" fill="#456ADB"/>
<path d="M47.2011 16.5656C45.8469 16.5656 44.4927 16.5656 43.1385 16.5656C42.9054 16.5656 42.8299 16.6333 42.8546 16.8573C42.8806 17.1047 42.8728 17.356 42.9054 17.6021C43.0239 18.494 43.5369 18.9836 44.4679 19.0891C45.6958 19.2284 46.9237 19.1594 48.149 19.0631C49.0479 18.9915 49.9418 18.8676 50.8262 18.6919C51.0984 18.6386 51.1596 18.718 51.157 18.9849C51.1413 20.0579 51.1413 21.1308 51.157 22.2038C51.157 22.4369 51.0775 22.502 50.8614 22.5488C49.0371 22.9252 47.1783 23.1085 45.3156 23.0957C44.1111 23.0957 42.921 22.9759 41.7803 22.5449C39.8115 21.8014 38.693 20.3587 38.2893 18.3274C38.1788 17.7532 38.1239 17.1698 38.1253 16.5851C38.1253 15.4262 38.107 14.2673 38.1253 13.1084C38.1203 12.1199 38.3314 11.1422 38.7438 10.2437C39.456 8.73849 40.7087 7.91294 42.2725 7.55225C44.0646 7.12059 45.9369 7.15061 47.7141 7.63949C49.7442 8.21113 50.9577 9.54841 51.3679 11.6123C51.4842 12.213 51.5427 12.8234 51.5424 13.4353C51.5502 14.3936 51.5424 15.352 51.5502 16.3104C51.5502 16.5148 51.4903 16.563 51.2898 16.5617C49.9278 16.5617 48.5709 16.5656 47.2011 16.5656ZM44.8325 13.4027C45.4263 13.4027 46.0201 13.4027 46.6151 13.4027C46.7545 13.4027 46.8209 13.3754 46.817 13.2152C46.825 12.8616 46.8037 12.5079 46.7532 12.1579C46.6438 11.5693 46.3365 11.1344 45.744 10.9521C45.1548 10.7679 44.5233 10.7679 43.9341 10.9521C43.6882 11.0211 43.466 11.1561 43.2916 11.3425C43.1171 11.5289 42.997 11.7596 42.9444 12.0094C42.8442 12.4001 42.8637 12.7907 42.8533 13.1813C42.8533 13.3558 42.9015 13.4131 43.0799 13.4105C43.6632 13.3962 44.2479 13.4027 44.8325 13.4027Z" fill="#456ADB"/>
<path d="M83.4766 15.2493C83.5131 14.3378 83.4167 13.2961 83.5665 12.2544C83.9571 9.52773 85.59 7.97429 88.2099 7.4873C89.8081 7.1786 91.4535 7.21143 93.0381 7.58366C95.4158 8.15138 96.8508 9.76602 97.1854 12.1906C97.3156 13.1828 97.3 14.1776 97.2948 15.1725C97.2896 16.1673 97.3573 17.1842 97.1919 18.1843C96.7714 20.7325 95.3794 22.2209 92.8363 22.7925C91.0687 23.1965 89.2286 23.158 87.4794 22.6805C85.2658 22.0802 83.8334 20.3744 83.573 18.1061C83.4675 17.1947 83.4831 16.2871 83.4766 15.2493ZM92.5655 15.2141C92.5655 14.5149 92.5798 13.8156 92.5655 13.1164C92.5394 12.1177 92.0446 11.5083 91.1331 11.3025C90.6178 11.1861 90.0822 11.1941 89.5706 11.326C88.7893 11.5278 88.2776 12.0955 88.2685 12.8768C88.2424 14.4168 88.2424 15.9581 88.2685 17.5007C88.2828 18.2819 88.7893 18.8327 89.5485 19.0424C89.9115 19.1341 90.2868 19.1679 90.6605 19.1426C91.8714 19.0919 92.5733 18.3705 92.5811 17.1673C92.5694 16.5162 92.5655 15.8652 92.5655 15.2141Z" fill="#456ADB"/>
<path d="M82.1316 15.3535C82.1316 16.3587 82.1758 17.3665 81.9935 18.3627C81.5482 20.7989 80.0911 22.269 77.6809 22.7899C75.7212 23.2105 73.7667 23.1936 71.8617 22.5295C69.9567 21.8654 68.8785 20.4903 68.4762 18.5476C68.3602 17.9649 68.303 17.3721 68.3056 16.778C68.3056 15.6282 68.286 14.4784 68.3056 13.3299C68.329 12.007 68.5973 10.7478 69.3746 9.63712C70.152 8.5264 71.2263 7.9105 72.4906 7.6071C74.4334 7.13964 76.397 7.12792 78.3189 7.71387C80.3893 8.3441 81.5742 9.78165 81.9649 11.8872C82.1745 13.0344 82.1303 14.1933 82.1316 15.3535ZM73.0492 14.9823C73.0492 15.83 73.0401 16.511 73.0492 17.196C73.0662 18.3106 73.5779 18.9148 74.6743 19.1166C75.034 19.1837 75.4031 19.1837 75.7629 19.1166C76.8684 18.9122 77.3801 18.3015 77.3957 17.1634C77.4061 16.4173 77.4048 15.6699 77.3957 14.9224C77.3879 14.2245 77.4439 13.5227 77.3554 12.8273C77.2668 12.132 76.9061 11.5994 76.1939 11.3715C75.6323 11.1945 75.0332 11.1738 74.4607 11.3117C73.6274 11.5005 73.1794 11.9796 73.0753 12.826C72.9854 13.5969 73.0675 14.3756 73.0492 14.9823Z" fill="#456ADB"/>
<path d="M23.2987 17.4368C23.2987 19.1713 23.2987 20.9044 23.2987 22.6454C23.2987 22.8537 23.2545 22.9266 23.0318 22.924C21.8794 22.9136 20.727 22.9162 19.5747 22.924C19.3989 22.924 19.3142 22.881 19.3025 22.6909C19.2908 22.5008 19.227 22.3341 19.214 22.1531C19.1996 21.9409 19.1176 21.9461 18.9614 22.0294C17.9522 22.5724 16.8461 22.9118 15.706 23.0282C14.7451 23.1245 13.7867 23.1089 12.8661 22.7678C11.672 22.3159 10.9025 21.4552 10.5223 20.2546C10.1942 19.2109 10.1577 18.0974 10.4168 17.0345C10.7514 15.6021 11.7072 14.7792 13.1122 14.4302C13.7655 14.273 14.4351 14.1943 15.1071 14.1958C16.1644 14.1958 17.2204 14.1867 18.2764 14.1958C18.5212 14.1958 18.5837 14.1268 18.572 13.8912C18.5685 13.426 18.5354 12.9615 18.4731 12.5005C18.4415 12.2852 18.3447 12.0847 18.1957 11.9262C18.0467 11.7676 17.8526 11.6586 17.6397 11.6137C17.1645 11.4931 16.6754 11.4362 16.1852 11.4445C14.8223 11.4375 13.459 11.4375 12.0952 11.4445C11.9012 11.4445 11.8348 11.421 11.8622 11.1957C11.9924 10.0356 12.1096 8.87275 12.2176 7.70996C12.2346 7.53287 12.301 7.4938 12.4676 7.4951C14.2724 7.51594 16.0784 7.45344 17.8819 7.53677C18.6974 7.56779 19.506 7.69899 20.2895 7.92741C21.8651 8.39748 22.7636 9.45481 23.0735 11.0447C23.2297 11.9314 23.3038 12.8307 23.2948 13.731C23.3079 14.9641 23.2987 16.2011 23.2987 17.4368ZM17.1957 17.3613C16.7595 17.3756 16.2503 17.3262 15.7464 17.4147C15.6127 17.4269 15.484 17.4721 15.372 17.5461C15.26 17.6202 15.168 17.7209 15.1045 17.8392C14.9993 18.034 14.9467 18.2529 14.9518 18.4742C14.9569 18.6955 15.0196 18.9117 15.1337 19.1015C15.2477 19.2912 15.4092 19.448 15.6023 19.5564C15.7954 19.6647 16.0133 19.7209 16.2347 19.7195C17.0277 19.7364 17.7361 19.476 18.4314 19.1413C18.5525 19.0827 18.5616 18.9994 18.5616 18.8887C18.5616 18.4577 18.5538 18.028 18.5616 17.5983C18.5616 17.4173 18.5225 17.3444 18.3246 17.3535C17.9756 17.373 17.6202 17.3613 17.1957 17.3613Z" fill="#456ADB"/>
<path d="M36.7095 11.7049C35.7902 11.5747 34.8866 11.4236 33.9751 11.3025C33.0052 11.1573 32.0188 11.1626 31.0505 11.3181C30.1859 11.4692 29.6937 11.9692 29.6546 12.8546C29.5843 14.4042 29.5817 15.9576 29.6546 17.5071C29.7002 18.4538 30.2692 18.9772 31.2432 19.0866C32.4481 19.2043 33.6634 19.1565 34.8553 18.9447C35.4139 18.8548 35.9725 18.7702 36.5299 18.6712C36.677 18.6452 36.7317 18.6608 36.7304 18.8275C36.7252 19.9864 36.7252 21.1453 36.7304 22.3042C36.7304 22.4617 36.6536 22.4982 36.5325 22.5229C35.4654 22.7623 34.3842 22.9332 33.2954 23.0347C31.9998 23.1323 30.7067 23.1271 29.432 22.8224C27.6832 22.4018 26.3069 21.4969 25.5139 19.8275C25.0964 18.9179 24.8814 17.9285 24.8836 16.9277C24.8667 15.5592 24.7951 14.1932 24.9188 12.8208C25.2027 9.69569 27.0868 7.88313 30.0895 7.41436C32.2498 7.07711 34.3709 7.37269 36.4817 7.82323C36.6262 7.85318 36.7356 7.88183 36.733 8.08366C36.72 9.24255 36.733 10.4014 36.7252 11.5603C36.7231 11.6088 36.7179 11.6571 36.7095 11.7049Z" fill="#456ADB"/>
</svg>
