<svg width="100" height="26" viewBox="0 0 100 26" fill="none" xmlns="http://www.w3.org/2000/svg">
<g clip-path="url(#clip0_595_4525)">
<path d="M15.0795 19.145C15.7392 19.001 16.3689 18.9109 16.973 18.7247C19.2097 18.055 20.4225 16.4849 20.7344 14.1923C20.9663 12.5285 20.8318 10.9221 19.7001 9.56161C19.5158 9.33915 19.5969 9.12254 19.648 8.90125C19.8486 8.02663 19.7709 7.17542 19.5239 6.31602C19.4149 5.93549 19.2294 5.86641 18.8989 5.91558C17.9829 6.0514 17.1596 6.44013 16.4094 6.95179C16.2565 7.06594 16.0797 7.14322 15.8925 7.17772C15.7054 7.21222 15.513 7.20302 15.3299 7.15083C13.6139 6.70357 11.8978 6.73518 10.1805 7.13678C9.99785 7.18953 9.80581 7.2004 9.61844 7.16859C9.43107 7.13679 9.2531 7.06312 9.09754 6.95296C8.3645 6.4449 7.53558 6.09495 6.66256 5.92495C6.29268 5.85821 6.0573 5.91558 5.94134 6.34529C5.70944 7.20586 5.57146 8.06761 5.83931 8.93287C5.9425 9.26422 5.87873 9.47263 5.66886 9.71617C3.94234 11.7335 4.2902 16.959 7.62496 18.3851C8.31299 18.6835 9.03512 18.8944 9.7747 19.0127C9.96138 19.042 10.1539 19.0361 10.3394 19.1532C10.0275 19.5747 9.77702 20.0079 9.69469 20.5184C9.65295 20.7866 9.48134 20.9072 9.2448 20.9868C7.86498 21.4352 6.7588 21.0453 5.94366 19.8019C5.5158 19.1497 5.01605 18.6111 4.20439 18.4847C4.09194 18.4608 3.97633 18.456 3.86234 18.4706C3.7 18.5022 3.47506 18.48 3.4252 18.6849C3.37534 18.8898 3.53535 19.0151 3.68377 19.1017C4.47688 19.57 4.93141 20.3077 5.26999 21.1226C5.71176 22.1857 6.54545 22.626 7.61452 22.736C8.11373 22.806 8.62124 22.7865 9.11378 22.6787C9.49989 22.5791 9.57758 22.7243 9.56367 23.0826C9.54048 23.6282 9.55555 24.175 9.56367 24.7218C9.58106 25.4723 9.21581 25.7755 8.51315 25.5414C7.0468 25.0511 5.69058 24.2736 4.5221 23.2535C2.2193 21.2596 0.755996 18.7622 0.217981 15.7343C-0.338586 12.6047 0.166962 9.63538 1.7926 6.92486C4.66008 2.15247 9.79673 -0.230209 15.1896 0.913712C20.2045 1.97801 23.5277 5.11824 24.9238 10.1248C26.0972 14.3293 25.1615 18.1814 22.4946 21.5816C21.0313 23.4549 19.1157 24.7429 16.8883 25.5507C16.2494 25.7849 15.8842 25.5063 15.8819 24.8073C15.8819 23.8331 15.8958 22.8578 15.8993 21.8801C15.9027 20.9025 15.8134 19.9365 15.0795 19.145Z" fill="#24292E"/>
<path d="M46.9081 17.2166C46.9081 18.5233 46.8965 19.8299 46.9151 21.1366C46.9209 21.4879 46.8142 21.6916 46.4942 21.866C44.6633 22.8648 42.7037 23.1036 40.6665 22.935C39.4443 22.8332 38.2628 22.5779 37.1972 21.9363C35.8661 21.1434 34.8868 19.8653 34.4608 18.3652C33.6055 15.5531 33.593 12.5483 34.4248 9.72901C35.2017 7.04893 36.9456 5.41559 39.7261 5.03155C41.717 4.75758 43.6847 4.85827 45.6106 5.51512C46.1185 5.68723 46.2808 5.93311 46.1313 6.45999C45.9469 7.11333 45.8205 7.78305 45.6767 8.45044C45.5956 8.82043 45.4518 8.96327 45.0344 8.8216C43.8667 8.42468 42.6516 8.35326 41.4318 8.44341C39.4316 8.59445 38.2257 9.63885 37.8175 11.6047C37.4538 13.3064 37.4875 15.0702 37.9161 16.7565C38.3973 18.6392 39.5394 19.5138 41.4758 19.5185C43.2499 19.5185 43.2499 19.5185 43.2499 17.7763C43.2499 17.3079 43.2244 16.8396 43.258 16.3712C43.2858 15.9931 43.142 15.9134 42.7942 15.931C42.2759 15.9591 41.7506 15.931 41.2335 15.931C40.9192 15.931 40.7836 15.794 40.7882 15.4697C40.7998 14.67 40.7975 13.8703 40.7882 13.0718C40.7882 12.7744 40.9042 12.6514 41.201 12.6514C42.9588 12.6573 44.7167 12.6632 46.4745 12.6514C46.8768 12.6514 46.9035 12.8774 46.9023 13.1748C46.9054 14.5236 46.9074 15.8709 46.9081 17.2166Z" fill="#24292E"/>
<path d="M62.9199 14.0951C62.9199 11.4618 62.9338 8.82622 62.9083 6.19766C62.9083 5.67664 63.0579 5.51389 63.5646 5.53613C64.3762 5.5736 65.1879 5.56541 65.9996 5.53613C66.4297 5.52208 66.5735 5.67312 66.5689 6.10751C66.5503 7.88252 66.5689 9.65753 66.5538 11.4314C66.5538 11.7978 66.6269 11.9348 67.0246 11.9278C68.3371 11.9009 69.6509 11.8985 70.9669 11.9278C71.3983 11.9383 71.4655 11.7791 71.4609 11.3927C71.4423 9.7348 71.4528 8.07805 71.4528 6.42013C71.4528 5.54433 71.4528 5.54433 72.3479 5.54433C73.0633 5.54433 73.7787 5.57243 74.4918 5.53379C74.9557 5.5092 75.0925 5.68015 75.089 6.1321C75.0739 8.39418 75.082 10.6563 75.082 12.923V21.8156C75.082 22.6575 75.082 22.6575 74.2785 22.6575C73.5445 22.6575 72.8082 22.6282 72.0754 22.668C71.5652 22.6961 71.4041 22.524 71.4122 22.0077C71.4458 19.9622 71.4296 17.9167 71.462 15.8712C71.469 15.4415 71.3681 15.3057 70.924 15.3174C69.6486 15.3502 68.3731 15.3467 67.0976 15.3174C66.6779 15.3081 66.5411 15.4005 66.5469 15.8548C66.5747 17.9214 66.5469 19.9891 66.5677 22.0603C66.5677 22.5123 66.4518 22.6903 65.9822 22.6704C65.1531 22.6364 64.3206 22.6364 63.4915 22.6704C63.0161 22.6903 62.9118 22.4959 62.9118 22.0568C62.9269 19.3943 62.9199 16.7423 62.9199 14.0951Z" fill="#24292E"/>
<path d="M91.7013 21.7688C91.7605 22.4631 91.5193 22.7195 90.899 22.6423C90.4363 22.5953 89.9702 22.5953 89.5075 22.6423C89.0437 22.6797 88.9058 22.5252 88.9092 22.0568C88.9313 19.0126 88.9255 15.9743 88.929 12.9324C88.929 10.6902 88.9452 8.44686 88.929 6.20351C88.929 5.6977 89.075 5.51271 89.591 5.5373C90.4027 5.57711 91.2144 5.57242 92.026 5.5373C92.5014 5.51856 92.6197 5.71058 92.6162 6.15434C92.5977 7.86963 92.6081 9.58493 92.6081 11.3564C93.4592 11.0344 94.2569 10.7312 95.1277 10.6539C97.492 10.4326 99.1709 11.5754 99.6916 13.8913C100.124 15.8206 100.105 17.825 99.6359 19.7456C98.975 22.5158 97.165 23.2195 94.4923 22.9432C93.4963 22.8319 92.6116 22.3987 91.7013 21.7688ZM92.5559 16.788V18.5981C92.5559 19.6144 92.6046 19.6976 93.5867 19.9036C94.0391 20.0054 94.5056 20.0271 94.9654 19.968C95.537 19.8884 95.9533 19.6086 96.104 19.0442C96.4751 17.6486 96.5157 16.24 96.1156 14.8456C95.9081 14.1208 95.399 13.7063 94.6291 13.6888C94.0502 13.6753 93.475 13.785 92.9409 14.0107C92.6661 14.1278 92.5327 14.2941 92.5466 14.6278C92.5768 15.3408 92.5559 16.0621 92.5559 16.788Z" fill="#24292E"/>
<path d="M84.7605 21.8648C83.2949 22.7265 81.8258 23.0977 80.2384 22.9912C78.0805 22.8483 76.9604 21.8074 76.7239 19.6414C76.6786 19.1174 76.6612 18.5913 76.6717 18.0654C76.6659 15.9204 76.6787 13.7742 76.6601 11.6257C76.6601 11.1773 76.7761 10.9946 77.2468 11.011C78.0956 11.0426 78.9467 11.0391 79.7978 11.011C80.2372 10.997 80.3613 11.1691 80.3578 11.5964C80.3427 13.8398 80.3578 16.082 80.3497 18.3253C80.3317 18.6371 80.371 18.9495 80.4657 19.2468C80.521 19.425 80.6254 19.5837 80.7666 19.7043C80.9079 19.825 81.0802 19.9026 81.2634 19.9282C81.6648 19.9938 82.0748 19.9843 82.4728 19.9001C83.7077 19.6109 83.7077 19.6086 83.7077 18.3394C83.7077 16.096 83.7204 13.8538 83.6972 11.6105C83.6914 11.1422 83.834 10.997 84.2897 11.0134C85.1199 11.045 85.9513 11.0356 86.7815 11.0134C87.1595 11.004 87.3323 11.0918 87.33 11.5285C87.3083 15.0762 87.301 18.6247 87.3079 22.1739C87.3079 22.5252 87.2082 22.6703 86.8441 22.6516C86.4005 22.6218 85.9555 22.6218 85.5119 22.6516C85.0028 22.6996 84.6758 22.5778 84.7605 21.8648Z" fill="#24292E"/>
<path d="M58.9033 16.6499C58.9033 17.3126 58.9033 17.9753 58.9033 18.6404C58.9103 19.4693 59.3138 19.899 60.1255 19.9564L60.2414 19.9623C61.5169 19.9986 61.5169 19.9986 61.5169 21.276V21.393C61.5169 22.8121 61.5169 22.8133 60.1092 22.9596C59.3399 23.0405 58.5626 22.9926 57.8088 22.818C56.3223 22.4726 55.3483 21.228 55.3077 19.5759C55.2671 17.9238 55.2625 16.2624 55.2833 14.6068C55.2891 14.1595 55.1674 14.0577 54.7395 14.06C53.2113 14.0682 53.3933 14.3129 53.3771 12.655C53.3667 11.531 53.3771 11.531 54.4566 11.2792C55.2914 11.086 55.2903 11.086 55.2903 10.2547C55.2903 9.5335 55.2984 8.81343 55.2903 8.09336C55.2903 7.7784 55.3726 7.63789 55.7158 7.64609C56.6434 7.66599 57.5711 7.66365 58.4987 7.64609C58.8465 7.64609 58.9219 7.79362 58.9161 8.10506C58.9022 8.92466 58.9254 9.74425 58.9045 10.5638C58.8964 10.887 58.9775 11.0111 59.3173 10.9936C59.8565 10.9655 60.3979 10.9936 60.9406 10.9818C61.3151 10.9713 61.5111 11.072 61.4914 11.5076C61.4601 12.1878 61.4624 12.8716 61.4914 13.553C61.5088 13.9851 61.314 14.0916 60.9383 14.0811C60.3794 14.067 59.8205 14.0963 59.2628 14.0717C58.9717 14.0588 58.9033 14.163 58.9091 14.4347C58.9103 15.1676 58.9033 15.9088 58.9033 16.6499Z" fill="#24292E"/>
<path d="M48.5836 16.7775C48.5836 15.061 48.601 13.3457 48.5732 11.6257C48.5639 11.0989 48.7518 10.9466 49.2469 10.9654C50.0585 10.997 50.8702 10.9853 51.6819 10.9654C52.09 10.9583 52.2744 11.0977 52.2732 11.5379C52.2624 15.0271 52.2624 18.517 52.2732 22.0077C52.2732 22.469 52.1236 22.6739 51.632 22.6516C50.8412 22.6165 50.0481 22.6224 49.2573 22.6516C48.761 22.668 48.5709 22.4936 48.5778 21.9772C48.5964 20.2479 48.5836 18.5127 48.5836 16.7775Z" fill="#24292E"/>
<path d="M52.4228 7.97866C52.4322 8.24699 52.3877 8.51446 52.2921 8.76498C52.1964 9.0155 52.0516 9.2439 51.8662 9.43641C51.6809 9.62893 51.4589 9.78159 51.2136 9.88521C50.9683 9.98883 50.7048 10.0413 50.4389 10.0394C50.1688 10.05 49.8995 10.0051 49.6471 9.90756C49.3947 9.80997 49.1646 9.66167 48.9706 9.47163C48.7767 9.28159 48.623 9.05377 48.5188 8.80197C48.4146 8.55017 48.3621 8.27964 48.3645 8.00676C48.366 7.45572 48.5818 6.92733 48.9655 6.5355C49.3492 6.14367 49.87 5.91979 50.4157 5.91211C51.5022 5.91562 52.4101 6.85581 52.4228 7.97866Z" fill="#24292E"/>
</g>
<defs>
<clipPath id="clip0_595_4525">
<rect width="100" height="25" fill="white" transform="translate(0 0.630371)"/>
</clipPath>
</defs>
</svg>
