<svg width="84" height="28" viewBox="0 0 84 28" fill="none" xmlns="http://www.w3.org/2000/svg">
<g clip-path="url(#clip0_595_4576)">
<path d="M12.4514 0.108887C12.7832 0.355739 13.1946 0.302652 13.5662 0.398208C15.2179 0.81566 16.7455 1.6225 18.0215 2.75126C18.3241 3.0167 18.2936 3.1733 18.0215 3.42148C17.5384 3.87139 17.0646 4.33457 16.6187 4.82164C16.3639 5.10034 16.2059 5.06451 15.9259 4.83756C11.4136 1.17062 4.88526 3.38034 3.51431 9.02874C3.12104 10.6782 3.27641 12.4109 3.95684 13.9641C4.63727 15.5173 5.80565 16.8062 7.28477 17.6354C10.1647 19.2519 14.0095 18.786 16.3095 16.5498C17.2133 15.6698 17.6658 14.5803 17.922 13.3646C18.0228 12.8881 17.8861 12.7992 17.4508 12.8032C15.6193 12.8178 13.7879 12.8032 11.9564 12.8032C10.9968 12.8032 10.9902 12.8032 10.9982 11.8742C10.9982 11.2398 10.7871 10.397 11.1096 10.0268C11.4813 9.59676 12.3519 9.89405 13.0048 9.89405C15.4309 9.87679 17.8583 9.89404 20.2856 9.87679C20.7594 9.87679 20.9174 9.99226 20.9691 10.482C21.6632 17.1178 17.0275 21.4403 11.3525 21.4974C5.95761 21.5465 1.49171 18.0932 0.327794 12.9624C0.204368 12.4183 0.274707 11.837 0.00131226 11.3247V10.263C0.213658 10.1608 0.134028 9.95908 0.148627 9.79849C0.706035 5.21846 3.87397 1.61521 8.3611 0.442004C8.75925 0.339813 9.1919 0.374319 9.53696 0.108887H12.4514Z" fill="#4486F3"/>
<path d="M62.4456 9.25697C62.569 8.15808 62.5703 8.14348 63.64 8.16471C64.2041 8.17533 64.9247 7.91521 65.2897 8.28814C65.6255 8.63187 65.3866 9.33659 65.3879 9.88073C65.3976 13.3101 65.3976 16.7399 65.3879 20.1702C65.3879 21.4045 65.2791 22.6294 64.8385 23.8C63.644 26.9852 60.6513 27.9633 57.8961 27.6182C55.6399 27.3356 54.0048 26.088 52.8993 24.1185C52.6803 23.7297 52.7374 23.5279 53.1647 23.4138C53.2906 23.3739 53.4139 23.326 53.5337 23.2705C54.0646 23.0515 54.5861 22.6785 55.1263 22.656C55.7275 22.6308 55.7567 23.4218 56.127 23.7934C57.2829 24.9573 58.6486 25.2094 60.1443 24.7595C61.5723 24.3295 62.2266 23.232 62.419 21.8093C62.5114 21.2071 62.5265 20.5957 62.4642 19.9897C62.0527 20.2963 61.7289 20.5869 61.36 20.8033C59.3241 22.007 56.5477 21.6659 54.5463 19.8942C52.4109 18.003 51.6438 15.5968 52.3751 12.8602C53.0971 10.1555 54.9033 8.41422 57.6943 7.8515C59.3294 7.52237 60.853 7.86079 62.1284 9.01542C62.2067 9.08443 62.2956 9.1415 62.4456 9.25697ZM62.6845 14.5417C62.6845 14.4302 62.6778 14.2099 62.6566 13.9909C62.4934 12.2218 61.1423 10.7076 59.5577 10.5138C57.6811 10.2855 56.0872 11.2915 55.4435 13.0964C55.1966 13.8279 55.1257 14.6072 55.2364 15.3712C55.2942 15.8929 55.4585 16.3972 55.7193 16.8528C55.98 17.3084 56.3316 17.7055 56.7523 18.0194C57.1729 18.3334 57.6536 18.5576 58.1645 18.6781C58.6754 18.7985 59.2056 18.8127 59.7222 18.7196C61.4476 18.4237 62.6845 16.7236 62.6845 14.5417Z" fill="#4486F3"/>
<path d="M51.0041 14.6346C51.0041 18.5126 48.0207 21.4788 44.1241 21.4854C40.1984 21.4854 37.1791 18.4966 37.1937 14.6107C37.2096 10.6996 40.201 7.7546 44.1493 7.76787C48.0499 7.77981 51.0081 10.7447 51.0041 14.6346ZM48.0034 14.973C47.9875 12.1369 46.0684 10.2112 43.8627 10.4421C42.0564 10.6332 40.7651 11.7507 40.3258 13.5052C39.8799 15.2849 40.5315 17.1854 41.9449 18.129C43.2044 18.9691 44.5462 19.0726 45.8839 18.352C47.3637 17.5557 47.9822 16.2325 48.0034 14.973Z" fill="#F0C854"/>
<path d="M36.0603 14.6067C36.0709 18.5059 33.0808 21.4933 29.159 21.5079C25.2373 21.5225 22.2326 18.5444 22.2246 14.6452C22.2167 10.746 25.1975 7.76386 29.1259 7.75855C33.0543 7.75324 36.051 10.6956 36.0603 14.6067ZM33.0251 14.9531C33.0105 12.1342 31.11 10.2377 28.8764 10.4686C27.1245 10.6504 25.8544 11.7347 25.4058 13.4348C24.9307 15.2278 25.5385 17.115 26.9493 18.0799C28.1995 18.9439 29.5413 19.0567 30.887 18.3453C32.3827 17.5689 32.9972 16.2418 33.0251 14.9531Z" fill="#E94537"/>
<path d="M79.3257 21.5013C74.962 21.4881 72.2918 19.3779 71.5711 16.2033C70.8385 12.981 72.3303 9.70022 75.1385 8.36509C78.3795 6.81895 81.9721 8.14744 83.5687 11.4826C84.2322 12.8735 84.2322 12.8708 82.8228 13.4521C80.3609 14.4661 77.9123 15.4919 75.4371 16.4873C74.9753 16.6731 74.9541 16.8377 75.2195 17.2292C76.5838 19.2399 79.5248 19.3739 81.213 17.4296C81.623 16.9571 81.8765 16.9611 82.3132 17.3062C82.7083 17.6231 83.1312 17.9038 83.5766 18.1449C84.0318 18.3865 83.9602 18.6002 83.6788 18.9333C82.2588 20.6108 80.4711 21.496 79.3257 21.5013ZM78.2242 10.4049C76.1923 10.3903 74.4232 12.1303 74.4312 13.9684C74.4312 14.2948 74.475 14.401 74.8293 14.2511C76.6139 13.4937 78.3994 12.7545 80.1857 12.0334C80.5069 11.9007 80.6131 11.7799 80.3755 11.4746C79.7889 10.7182 78.982 10.4474 78.2242 10.4049Z" fill="#E94537"/>
<path d="M70.1126 10.9917C70.1126 14.0441 70.1126 17.1059 70.1126 20.1624C70.1126 21.244 70.2546 21.0701 69.1531 21.0914C68.6899 21.098 68.224 21.0542 67.7635 21.102C67.2406 21.1564 67.1517 20.9414 67.1557 20.4689C67.1782 17.8969 67.1663 15.3235 67.1663 12.7502C67.1663 9.03412 67.1822 5.31807 67.149 1.60201C67.149 0.995502 67.3256 0.845533 67.8896 0.894638C68.44 0.938436 68.9929 0.938436 69.5432 0.894638C70.025 0.860132 70.1272 1.05124 70.1245 1.49584C70.1046 4.66245 70.1126 7.82905 70.1126 10.9917Z" fill="#34A853"/>
</g>
<defs>
<clipPath id="clip0_595_4576">
<rect width="84" height="27.5771" fill="white" transform="translate(0 0.108887)"/>
</clipPath>
</defs>
</svg>
