<svg width="95" height="24" viewBox="0 0 95 24" fill="none" xmlns="http://www.w3.org/2000/svg">
<g clip-path="url(#clip0_595_4549)">
<path d="M89.6742 0.703369C89.6759 0.725765 89.6742 0.760759 89.7023 0.756C89.8425 0.733324 89.9409 0.852304 90.071 0.860703C90.1532 0.865742 90.1961 0.93853 90.2561 0.977723C90.5295 1.15521 90.7485 1.39765 90.8618 1.69916C90.9302 1.88141 90.9919 2.07878 90.9919 2.28482C90.9908 8.91037 90.9892 15.5351 90.9871 22.159C90.9871 22.4266 90.8881 22.6727 90.7589 22.919C90.6467 23.1357 90.4622 23.2665 90.3082 23.4288C90.2154 23.5271 90.0657 23.5898 89.9196 23.6282C89.8025 23.6565 89.6889 23.6976 89.5809 23.7508C89.5391 23.7723 89.481 23.765 89.4303 23.765C86.8004 23.765 84.1704 23.765 81.5402 23.765C77.6674 23.765 73.7947 23.765 69.9221 23.765C69.6162 23.765 69.3184 23.7555 69.0203 23.6503C68.7196 23.5418 68.4538 23.3543 68.2511 23.1074C68.1122 22.9348 68.0161 22.7318 67.9707 22.5151C67.909 22.2452 67.895 21.9778 67.895 21.7063C67.895 15.2912 67.895 8.87622 67.895 2.46119C67.8933 2.23163 67.9313 2.00348 68.0072 1.78679C68.1059 1.51075 68.289 1.29267 68.5018 1.09698C68.7034 0.911654 68.9364 0.790714 69.2115 0.761039C69.2519 0.75656 69.2724 0.745922 69.2676 0.705049L89.6742 0.703369ZM76.9199 14.8343V16.0361C76.9199 17.4198 76.9199 18.8035 76.9199 20.1872C76.9199 20.2712 76.9107 20.3311 77.0366 20.3303C78.083 20.3244 79.1295 20.3261 80.1771 20.3289C80.2613 20.3289 80.2862 20.3099 80.2876 20.2217C80.3185 18.2455 80.2175 16.2682 80.3389 14.2926C80.3552 14.0305 80.3625 13.7691 80.4365 13.516C80.462 13.4283 80.448 13.3354 80.5032 13.2483C80.5403 13.1899 80.5704 13.1273 80.5927 13.0619C80.6362 12.9466 80.6934 12.837 80.7632 12.7355C80.8608 12.5815 80.999 12.4768 81.1445 12.3665C81.4249 12.1546 81.741 12.0599 82.0732 12.0305C82.3472 12.0073 82.6259 12.0051 82.9035 12.0731C83.068 12.1161 83.2264 12.1798 83.3749 12.2626C83.5748 12.3698 83.7161 12.5672 83.8336 12.7626C83.9991 13.0375 84.0667 13.353 84.1174 13.6638C84.1428 13.8232 84.1552 13.9844 84.1544 14.1459C84.1529 16.1587 84.1517 18.1714 84.1508 20.1839C84.1508 20.2998 84.1788 20.3295 84.2955 20.3289C85.3423 20.3239 86.3892 20.3239 87.436 20.3289C87.5588 20.3289 87.5762 20.2911 87.5762 20.1805C87.572 19.1089 87.5874 18.0372 87.5698 16.9658C87.5521 15.8945 87.6309 14.8298 87.5263 13.7615C87.4918 13.4099 87.5047 13.0507 87.4573 12.6977C87.4422 12.5871 87.4646 12.4675 87.4265 12.3698C87.3513 12.1784 87.3463 11.9754 87.2978 11.7805C87.2594 11.6257 87.2291 11.4603 87.1677 11.322C87.0536 11.0647 86.9638 10.7901 86.7872 10.563C86.7089 10.462 86.6489 10.3466 86.5651 10.2509C86.4151 10.0798 86.2367 9.93761 86.0651 9.78756C85.8271 9.579 85.5394 9.47597 85.2606 9.35167C85.211 9.32956 85.1656 9.28224 85.1086 9.28532C84.9376 9.29428 84.7954 9.17838 84.6258 9.1823C84.552 9.18398 84.4589 9.2005 84.4079 9.16411C84.2652 9.0622 84.0829 9.17362 83.9503 9.05996C83.4938 9.07732 83.0356 9.01713 82.583 9.16299C82.371 9.23157 82.1464 9.26685 81.9445 9.36763C81.8565 9.41186 81.73 9.40318 81.679 9.46589C81.5926 9.572 81.4676 9.59999 81.3663 9.66662C81.1586 9.8038 80.9791 9.97177 80.7912 10.1299C80.5843 10.3035 80.4648 10.5521 80.2969 10.7598C80.2576 10.8085 80.2321 10.8281 80.1847 10.8183C80.1143 10.8035 80.1482 10.7419 80.148 10.7027C80.1454 10.2929 80.1418 9.88274 80.148 9.47289C80.1499 9.36091 80.1154 9.33656 80.0078 9.33712C79.0314 9.34104 78.055 9.34104 77.0786 9.33712C76.955 9.33712 76.9171 9.36287 76.9177 9.49389C76.922 11.2744 76.9227 13.0545 76.9199 14.8343ZM74.7327 14.8407C74.7327 13.0563 74.7339 11.272 74.7361 9.48773C74.7361 9.36007 74.6999 9.33796 74.5816 9.33852C73.5534 9.34337 72.5253 9.34337 71.4971 9.33852C71.3945 9.33852 71.3653 9.36091 71.3653 9.46757C71.3683 13.0454 71.3683 16.6233 71.3653 20.2012C71.3653 20.3096 71.397 20.3295 71.498 20.3292C72.5261 20.3253 73.5543 20.3253 74.5824 20.3292C74.703 20.3292 74.7364 20.3043 74.7361 20.1789C74.7311 18.3998 74.7302 16.6206 74.7336 14.841L74.7327 14.8407ZM71.1183 5.83407C71.0933 6.12186 71.1329 6.39397 71.2812 6.64929C71.3634 6.79066 71.411 6.95416 71.5364 7.06922C71.6847 7.2036 71.8081 7.36037 71.9811 7.47459C72.1637 7.59753 72.3654 7.68948 72.5781 7.7467C72.8142 7.80941 73.059 7.7747 73.2999 7.7747C73.5573 7.7747 73.7886 7.67728 74.0054 7.5457C74.2013 7.42921 74.3782 7.28333 74.5297 7.11317C74.682 6.941 74.7731 6.73887 74.8836 6.54655C75.0028 6.33966 74.9492 6.08658 75.0384 5.86766C75.0518 5.83435 75.0611 5.77164 75.0266 5.74924C74.968 5.71145 74.9803 5.65966 74.9871 5.61542C75.0174 5.41218 74.931 5.22125 74.8547 5.05972C74.7022 4.72839 74.463 4.44426 74.1624 4.23721C73.8468 4.02411 73.4769 3.90533 73.096 3.89483C72.9188 3.88895 72.743 3.93011 72.566 3.96706C72.2169 4.04041 71.9514 4.24001 71.6881 4.45418C71.6578 4.4728 71.6316 4.49726 71.611 4.52613C71.5159 4.68906 71.3665 4.8156 71.3132 5.00764C71.2734 5.15098 71.1657 5.26464 71.1379 5.42142C71.1132 5.56055 71.1323 5.69745 71.1191 5.83407H71.1183Z" fill="#2867B2"/>
<path d="M95 23.1506C94.8997 23.2763 94.7893 23.3937 94.67 23.5017C94.5254 23.6312 94.3589 23.734 94.1781 23.8051C94.0146 23.8656 93.8437 23.9043 93.67 23.9202C93.4631 23.942 93.2494 23.8586 93.04 23.8065C92.7596 23.7371 92.5994 23.5339 92.4032 23.3662C92.224 23.213 92.155 23.0022 92.0787 22.7853C91.982 22.512 91.9853 22.2371 92.0364 21.9698C92.0974 21.6464 92.2672 21.3537 92.5178 21.14C92.6985 20.9772 92.9143 20.858 93.1485 20.7917C93.421 20.7153 93.6883 20.7259 93.9527 20.7562C94.0884 20.7716 94.2345 20.832 94.3666 20.904C94.5581 21.0084 94.7115 21.1534 94.8632 21.3043C94.9153 21.3561 94.903 21.4586 95 21.4723V23.1506ZM93.5809 23.6515C93.9373 23.6744 94.2174 23.577 94.4675 23.3751C94.708 23.1788 94.8793 22.9108 94.9563 22.6103C95.0069 22.4018 94.9972 22.1833 94.9282 21.9801C94.857 21.7618 94.7471 21.5846 94.6105 21.406C94.4529 21.2002 94.2384 21.084 94.0133 21.0084C93.7965 20.9359 93.5545 20.9507 93.3243 20.9846C93.2705 20.9927 93.2093 20.9771 93.1619 21.0079C92.9785 21.1282 92.7694 21.1993 92.6196 21.3836C92.4723 21.5627 92.3564 21.7654 92.277 21.9832C92.2299 22.1154 92.2658 22.25 92.2523 22.3827C92.22 22.7047 92.3734 22.9589 92.568 23.1879C92.6802 23.3197 92.8072 23.4636 92.9592 23.5305C93.1603 23.6187 93.3801 23.7074 93.5809 23.6515Z" fill="#2867B2"/>
<path d="M61.3349 18.9137C61.1913 19.0817 61.0727 19.2569 60.9098 19.3947C60.7384 19.5391 60.5898 19.7186 60.4003 19.8308C60.1933 19.9534 59.9926 20.0901 59.7696 20.1894C59.584 20.2734 59.4006 20.3658 59.206 20.4173C59.0442 20.4602 58.8732 20.4887 58.7125 20.5313C58.3171 20.6362 57.9195 20.5973 57.5225 20.6032C57.3665 20.6057 57.2008 20.606 57.0539 20.5702C56.8015 20.508 56.5368 20.4974 56.2884 20.412C56.029 20.3227 55.7598 20.258 55.5086 20.1511C55.3684 20.0912 55.2343 19.9982 55.1034 19.9084C54.9855 19.8291 54.8621 19.7584 54.7341 19.6967C54.6519 19.6561 54.5939 19.5909 54.5322 19.538C54.2779 19.3233 53.9919 19.1399 53.8146 18.8412C53.7586 18.748 53.6632 18.6774 53.5948 18.585C53.4836 18.4376 53.3815 18.2835 53.2892 18.1237C53.1913 17.9518 53.0881 17.7827 52.9967 17.6077C52.9487 17.5153 52.9288 17.4101 52.8899 17.3118C52.7802 17.0361 52.6835 16.7519 52.6341 16.461C52.612 16.3303 52.5822 16.1987 52.5539 16.0719C52.4238 15.4882 52.4978 14.8989 52.4785 14.3127C52.4701 14.0638 52.5312 13.8191 52.5738 13.5772C52.5971 13.4443 52.6019 13.3006 52.6495 13.1749C52.73 12.9647 52.7687 12.7427 52.8526 12.5311C52.9025 12.4056 52.9728 12.2749 52.9852 12.1293C52.9908 12.063 53.0357 11.9893 53.073 11.9443C53.2011 11.7858 53.2384 11.5854 53.3458 11.4196C53.4703 11.2273 53.574 11.0185 53.7201 10.8443C53.8191 10.7259 53.9195 10.6044 54.0286 10.4933C54.1127 10.4073 54.1716 10.2847 54.27 10.2231C54.4615 10.103 54.6096 9.93365 54.7966 9.80739C55.0181 9.65761 55.2489 9.52576 55.4786 9.39166C55.5627 9.34183 55.6656 9.32223 55.759 9.28696C55.934 9.22089 56.1165 9.17218 56.2934 9.11227C56.8276 8.93198 57.3778 8.9429 57.9274 8.95437C58.0785 8.95773 58.2409 8.94345 58.3819 8.98461C58.6043 9.04956 58.8378 9.0406 59.0549 9.11759C59.3053 9.20605 59.5703 9.26204 59.8081 9.37542C60.1552 9.54115 60.4883 9.73936 60.7429 10.0406C60.8444 10.1601 60.9776 10.2494 61.0794 10.3984V10.2377C61.0794 8.23937 61.0785 6.24098 61.0766 4.24249C61.0766 4.11875 61.103 4.08123 61.2339 4.08179C62.2849 4.08795 63.3359 4.08795 64.3868 4.08179C64.5063 4.08179 64.5298 4.11455 64.5298 4.22821C64.5267 9.55739 64.5267 14.8865 64.5298 20.2155C64.5298 20.337 64.4934 20.3571 64.3818 20.3555C63.4097 20.351 62.4382 20.351 61.4672 20.3555C61.3584 20.3555 61.327 20.33 61.3287 20.2188C61.3388 19.7883 61.3349 19.3557 61.3349 18.9137ZM58.6469 17.554C58.8579 17.584 59.0727 17.5723 59.2792 17.5195C59.4885 17.4658 59.694 17.3984 59.8944 17.3177C60.1297 17.2261 60.3047 17.0626 60.499 16.9227C60.6139 16.8387 60.6953 16.7144 60.7875 16.6027C60.9897 16.356 61.1184 16.0772 61.2157 15.7852C61.2841 15.5797 61.3335 15.3597 61.3312 15.1413C61.3276 14.7738 61.3593 14.4067 61.2583 14.0394C61.1725 13.7231 61.1108 13.4 60.9075 13.1369C60.7452 12.9269 60.6125 12.6979 60.3731 12.5397C60.123 12.3743 59.8639 12.2251 59.591 12.1229C59.3629 12.0371 59.1206 11.9951 58.8768 11.9991C58.5639 12.0064 58.249 11.9669 57.9397 12.0747C57.8275 12.1142 57.6974 12.1078 57.5811 12.1632C57.2959 12.2992 57.0203 12.4378 56.7771 12.654C56.4095 12.979 56.1883 13.3866 56.0481 13.8298C55.9594 14.1103 55.9172 14.4035 55.923 14.6976C55.9286 14.9644 55.923 15.2295 56.0007 15.4921C56.0394 15.6251 56.031 15.776 56.0949 15.9039C56.1936 16.1016 56.2873 16.3017 56.4034 16.4918C56.4516 16.5719 56.5295 16.6293 56.5682 16.7077C56.6627 16.9008 56.8728 16.961 57.0057 17.1091C57.0598 17.1699 57.1546 17.1987 57.2263 17.2429C57.2981 17.2872 57.3741 17.2819 57.4333 17.3252C57.6085 17.4535 57.8225 17.4747 58.0207 17.5248C58.219 17.575 58.4248 17.5741 58.6469 17.554Z" fill="#2867B2"/>
<path d="M40.8304 20.3561H37.982C37.5614 20.3561 37.1408 20.339 36.7202 20.3631C36.4958 20.376 36.4207 20.248 36.3276 20.1005C36.205 19.9084 36.0651 19.727 35.9468 19.5327C35.889 19.4376 35.8186 19.3497 35.769 19.2511C35.7042 19.1223 35.6041 19.0199 35.5231 18.9042C35.4421 18.7886 35.3792 18.6724 35.2988 18.5619C35.1675 18.3821 35.0568 18.1879 34.9281 18.005C34.8184 17.8494 34.7228 17.6825 34.6154 17.526C34.5377 17.4141 34.4803 17.2836 34.365 17.187C34.2829 17.1182 34.2456 16.9894 34.1774 16.8922C34.0518 16.7128 33.9461 16.5193 33.8222 16.3388C33.6514 16.0896 33.47 15.8488 33.3281 15.5806C33.277 15.4841 33.1932 15.406 33.1276 15.3169C33.0505 15.2125 32.9947 15.0958 32.9133 14.9869C32.8604 15.0328 32.8853 15.0916 32.8853 15.1406C32.8836 16.8268 32.8836 18.5131 32.8853 20.1993C32.8853 20.3242 32.8573 20.3603 32.7277 20.3594C31.6672 20.3535 30.6069 20.3535 29.5468 20.3594C29.4268 20.3594 29.4041 20.3259 29.4041 20.2127C29.407 14.8838 29.407 9.55476 29.4041 4.22576C29.4041 4.10426 29.4405 4.08411 29.5521 4.08579C30.6122 4.08989 31.6725 4.08989 32.733 4.08579C32.8547 4.08579 32.8862 4.11378 32.8859 4.23696C32.8819 7.3254 32.8809 10.4142 32.8828 13.5034V13.682C33.0092 13.626 33.0345 13.5026 33.1158 13.4284C33.2778 13.2756 33.4278 13.1107 33.5645 12.9351C33.7434 12.7139 33.957 12.5238 34.1225 12.2982C34.2879 12.0726 34.5178 11.8954 34.6631 11.661C34.7587 11.5068 34.9376 11.4264 34.9914 11.2439C34.9999 11.2159 35.0641 11.2072 35.0885 11.1778C35.2427 10.9908 35.3969 10.8038 35.5419 10.6095C35.5767 10.5628 35.6285 10.5572 35.6641 10.5121C35.8307 10.301 36.0006 10.0922 36.186 9.89621C36.3346 9.74366 36.475 9.5833 36.6066 9.41581C36.7087 9.28171 36.8029 9.28927 36.9215 9.28927C38.2114 9.28927 39.5005 9.28927 40.7889 9.28927C40.8343 9.28927 40.9033 9.25512 40.9232 9.31727C40.9411 9.37326 40.8814 9.40489 40.8466 9.44632C40.7519 9.56026 40.6223 9.64229 40.5587 9.78871C40.5272 9.86121 40.426 9.90069 40.3694 9.96564C40.2213 10.1364 40.0982 10.3329 39.9322 10.483C39.7359 10.6602 39.5781 10.8696 39.4042 11.0636C39.1897 11.3027 38.9766 11.5432 38.7615 11.7822C38.5406 12.028 38.3289 12.282 38.1059 12.5266C37.899 12.7542 37.6929 12.9855 37.5019 13.2265C37.3494 13.4189 37.1635 13.5801 37.0303 13.7937C36.9033 13.9978 36.714 14.1646 36.5421 14.3382C36.4827 14.3981 36.4813 14.4706 36.5171 14.5048C36.6464 14.6277 36.7193 14.7909 36.8416 14.9216C36.9448 15.0322 37.0269 15.18 37.1197 15.3099C37.2249 15.4569 37.3306 15.6039 37.4489 15.7425C37.5942 15.9104 37.7139 16.103 37.8457 16.2839C37.9523 16.4304 38.0598 16.576 38.1682 16.7206C38.2742 16.8623 38.3945 16.9947 38.4859 17.1453C38.57 17.2853 38.6942 17.3942 38.7797 17.5336C38.8717 17.6837 38.9802 17.8239 39.0798 17.9692C39.1301 18.0387 39.1841 18.1054 39.2416 18.1691C39.3854 18.3371 39.5082 18.5196 39.6381 18.6971C39.7744 18.8835 39.9081 19.0705 40.0618 19.245C40.1622 19.3592 40.2412 19.4969 40.3284 19.6232C40.4232 19.7612 40.5615 19.8692 40.6243 20.0249C40.6728 20.1461 40.8152 20.2074 40.8304 20.3561Z" fill="#2867B2"/>
<path d="M43.6314 15.9104C43.695 16.2584 43.7996 16.5857 43.9959 16.8572C44.1944 17.133 44.4311 17.3841 44.7356 17.5689C44.9142 17.6772 45.0903 17.7855 45.2849 17.8544C45.4347 17.9073 45.6029 17.9185 45.7507 17.9633C45.939 18.0169 46.1368 18.0282 46.33 17.9963C46.5165 17.97 46.7116 17.9611 46.8953 17.8804C47.003 17.8329 47.1365 17.8387 47.2497 17.7797C47.6162 17.5879 47.9816 17.3998 48.2559 17.0731C48.359 16.9507 48.4704 16.8368 48.5559 16.6996C48.5937 16.6394 48.6453 16.6484 48.6986 16.6996C48.8267 16.8179 48.9696 16.9193 49.1237 17.0011C49.2011 17.0448 49.2614 17.1131 49.3323 17.1691C49.4765 17.2801 49.6262 17.3838 49.781 17.4796C49.8518 17.5278 49.9183 17.582 49.9798 17.6416C50.1178 17.7637 50.2838 17.8441 50.4228 17.9577C50.5619 18.0714 50.7223 18.1629 50.8533 18.2886C50.8936 18.3273 50.913 18.5473 50.883 18.5966C50.7736 18.7755 50.613 18.9129 50.4599 19.0445C50.194 19.2755 49.931 19.5162 49.6161 19.6842C49.3478 19.8275 49.1002 20.0033 48.8097 20.115C48.582 20.2027 48.3568 20.2892 48.1227 20.3605C47.8801 20.4345 47.6336 20.4764 47.3885 20.5313C46.8196 20.659 46.249 20.5873 45.6797 20.5996C45.4535 20.6044 45.2266 20.5341 44.9984 20.5123C44.8279 20.496 44.6638 20.4465 44.5037 20.4003C44.2844 20.339 44.0601 20.2883 43.8456 20.1976C43.6961 20.1341 43.5461 20.0599 43.3866 20.0131C43.294 19.9851 43.2099 19.9272 43.1255 19.8765C42.8765 19.7267 42.616 19.5966 42.3911 19.4059C42.1309 19.1859 41.8376 19.0014 41.6209 18.734C41.4492 18.5232 41.2611 18.3253 41.1226 18.0859C41.0483 17.9577 40.9476 17.8466 40.8853 17.7052C40.7833 17.4723 40.647 17.2573 40.5575 17.0148C40.5015 16.8648 40.4633 16.7044 40.3812 16.5624C40.3579 16.5221 40.3666 16.4639 40.3582 16.4143C40.3282 16.2391 40.2875 16.0644 40.2488 15.8928C40.128 15.3586 40.1838 14.8217 40.1801 14.2864C40.1784 14.0328 40.2511 13.7794 40.2729 13.5244C40.2954 13.2612 40.3935 13.0165 40.4675 12.7705C40.5248 12.581 40.6028 12.3985 40.7003 12.2262C40.7387 12.159 40.739 12.0863 40.7824 12.0213C40.9139 11.8253 41.0348 11.621 41.1548 11.4183C41.1949 11.3514 41.256 11.3041 41.3015 11.24C41.521 10.932 41.7961 10.6689 42.0712 10.4113C42.2677 10.2303 42.484 10.0721 42.7161 9.93958C42.8532 9.8598 42.992 9.78001 43.132 9.7033C43.3602 9.57844 43.6028 9.47934 43.8417 9.3808C43.9686 9.32947 44.0992 9.28755 44.2323 9.25538C44.3966 9.21422 44.5618 9.17923 44.7233 9.12184C44.8764 9.06725 45.0452 9.05269 45.2084 9.03253C45.6262 8.98158 46.0457 8.93231 46.4663 8.95191C46.6746 8.96143 46.8953 8.93035 47.088 8.9869C47.2702 9.04037 47.4584 9.04289 47.6412 9.09888C47.8616 9.16551 48.0873 9.23298 48.3142 9.29093C48.5161 9.343 48.6955 9.47766 48.8935 9.55269C49.1703 9.65739 49.3677 9.87799 49.6203 10.0194C49.767 10.1014 49.8598 10.2741 49.9924 10.3883C50.2448 10.6064 50.4411 10.8752 50.6177 11.1487C50.7941 11.4162 50.9394 11.7029 51.0509 12.0031C51.1239 12.2058 51.1825 12.4141 51.2666 12.6143C51.3187 12.7386 51.3072 12.8928 51.3608 13.0263C51.4306 13.2002 51.4096 13.3934 51.4561 13.565C51.5192 13.799 51.5145 14.0325 51.5232 14.2649C51.5422 14.7674 51.5254 15.271 51.5318 15.7741C51.5318 15.8861 51.5021 15.911 51.3933 15.9107C48.8659 15.9077 46.3385 15.907 43.8111 15.9085L43.6314 15.9104ZM45.8393 13.5062C46.5445 13.5062 47.25 13.5042 47.9553 13.5087C48.0528 13.5087 48.0896 13.4857 48.0784 13.3861C48.0629 13.2492 48.0223 13.1154 48.0035 12.9832C47.9583 12.6817 47.7963 12.4513 47.6269 12.2215C47.473 12.0118 47.268 11.8659 47.038 11.7349C46.8322 11.6168 46.6174 11.493 46.3967 11.4785C46.058 11.4558 45.7145 11.4152 45.3677 11.5101C45.152 11.5689 44.965 11.6666 44.7681 11.7565C44.4389 11.9071 44.1916 12.1593 43.9951 12.4415C43.8043 12.7201 43.6818 13.0395 43.6375 13.374C43.6162 13.5249 43.6684 13.5073 43.7637 13.507C44.4554 13.5057 45.147 13.5054 45.8385 13.5062H45.8393Z" fill="#2867B2"/>
<path d="M20.364 10.769C20.5757 10.4313 20.8384 10.1283 21.1427 9.87067C21.3951 9.65482 21.6685 9.46249 21.9839 9.34211C22.1589 9.27521 22.3451 9.23013 22.5167 9.16322C23.0615 8.94822 23.6212 9.05992 24.1733 9.03948C24.385 9.03631 24.5959 9.0651 24.7989 9.12487C25.0017 9.18086 25.2072 9.22733 25.4077 9.28948C25.5507 9.334 25.6822 9.41574 25.8199 9.47873C25.9548 9.53647 26.0821 9.61066 26.1987 9.69961C26.3726 9.83959 26.549 9.97229 26.6959 10.1475C26.8273 10.308 26.9453 10.4789 27.0489 10.6585C27.1685 10.8591 27.2671 11.0715 27.3431 11.2923C27.4199 11.5134 27.4519 11.7477 27.5506 11.9616C27.5786 12.0243 27.5573 12.0974 27.5696 12.1668C27.6198 12.4232 27.654 12.6823 27.672 12.9429C27.7959 15.3563 27.6905 17.7712 27.7281 20.185C27.7303 20.3233 27.7 20.3608 27.5559 20.3597C26.5143 20.3528 25.4726 20.3528 24.4308 20.3597C24.2978 20.3597 24.2743 20.3202 24.2746 20.1981C24.2781 18.2928 24.2791 16.3874 24.2774 14.482C24.2775 14.2741 24.2648 14.0664 24.2395 13.86C24.2115 13.6316 24.1739 13.393 24.0976 13.1783C23.99 12.876 23.8481 12.5775 23.5626 12.3807C23.4294 12.2889 23.2853 12.2276 23.1389 12.1638C22.8254 12.0263 22.4957 12.0753 22.1757 12.089C21.8042 12.1026 21.4524 12.2595 21.1943 12.5266C21.1612 12.5602 21.1189 12.5851 21.0821 12.6159C20.8833 12.7839 20.8197 13.0316 20.7196 13.2561C20.6335 13.4496 20.6155 13.6621 20.5679 13.8656C20.4871 14.2105 20.4955 14.5537 20.495 14.8989C20.4924 16.6693 20.4931 18.4396 20.4972 20.2096C20.4972 20.3378 20.4605 20.3594 20.3424 20.3588C19.2911 20.3542 18.24 20.3542 17.1892 20.3588C17.0743 20.3588 17.0429 20.3336 17.0432 20.2155C17.0465 16.6192 17.0465 13.0228 17.0432 9.42638C17.0432 9.30768 17.0754 9.28304 17.1895 9.2836C18.199 9.28846 19.2085 9.28846 20.2179 9.2836C20.3239 9.2836 20.3598 9.30516 20.3581 9.4191C20.3503 9.81495 20.3548 10.2108 20.3553 10.6069C20.3539 10.6492 20.359 10.6923 20.364 10.769Z" fill="#2867B2"/>
<path d="M0.00308448 12.2058C0.00308448 9.55078 0.00205632 6.89561 0 4.24035C0 4.11073 0.0353313 4.08246 0.160393 4.08302C1.25342 4.08806 2.34645 4.08806 3.43947 4.08302C3.57968 4.08302 3.62314 4.11101 3.62286 4.26023C3.61819 8.46661 3.61585 12.6729 3.61585 16.8791C3.61585 17.0222 3.6481 17.0608 3.79531 17.0605C5.88322 17.0552 7.97114 17.0583 10.059 17.0535C10.1864 17.0535 10.2099 17.0882 10.2093 17.2072C10.2043 18.2134 10.2043 19.2195 10.2093 20.2257C10.2093 20.327 10.1892 20.3581 10.0809 20.3581C6.76445 20.3547 3.44798 20.3547 0.131511 20.3581C0.00813181 20.3581 0.00196285 20.3099 0.00224326 20.2131C0.0039257 17.544 0.00420611 14.8749 0.00308448 12.2058Z" fill="#2867B2"/>
<path d="M15.1958 14.8236C15.1958 16.6173 15.1968 18.411 15.1986 20.2046C15.1986 20.3233 15.1762 20.3591 15.0486 20.3585C13.9831 20.3524 12.918 20.3524 11.8534 20.3585C11.7395 20.3585 11.7176 20.3247 11.7179 20.2186C11.7205 16.6219 11.7205 13.0254 11.7179 9.42889C11.7179 9.31551 11.7412 9.28192 11.8609 9.28248C12.9265 9.28752 13.9916 9.28752 15.0562 9.28248C15.1759 9.28248 15.1995 9.31551 15.1992 9.42917C15.1949 11.2267 15.1938 13.0248 15.1958 14.8236Z" fill="#2867B2"/>
<path d="M13.4596 7.83041C13.2417 7.8668 13.0342 7.80241 12.8342 7.74278C12.6343 7.68315 12.445 7.57285 12.26 7.45639C12.0491 7.32397 11.9019 7.14116 11.7763 6.95387C11.6748 6.80298 11.6061 6.61373 11.5399 6.43148C11.4482 6.17952 11.4434 5.9354 11.4412 5.68149C11.4398 5.52135 11.5135 5.37998 11.5505 5.22936C11.6372 4.87942 11.8424 4.61011 12.099 4.37047C12.3023 4.18038 12.5381 4.05776 12.8037 3.96566C13.053 3.87915 13.3045 3.80496 13.5588 3.84388C13.7355 3.87187 13.9177 3.88979 14.0964 3.95586C14.296 4.02893 14.4875 4.11179 14.6546 4.23245C14.8092 4.34443 14.9331 4.49757 15.0596 4.64482C15.1717 4.77668 15.2093 4.94465 15.3013 5.07931C15.3736 5.18485 15.3879 5.30327 15.4115 5.40769C15.4785 5.70472 15.4883 6.01939 15.4131 6.31362C15.3461 6.57594 15.2522 6.83853 15.0525 7.04906C14.9583 7.14872 14.8779 7.26602 14.7817 7.36624C14.6867 7.45889 14.5737 7.53111 14.4497 7.57845C14.2607 7.65711 14.0885 7.76406 13.8698 7.79317C13.7321 7.81053 13.593 7.80941 13.4596 7.83041Z" fill="#2867B2"/>
<path d="M93.0391 22.3328C93.0391 22.0808 93.043 21.8288 93.0369 21.5788C93.0349 21.4907 93.0624 21.4691 93.1471 21.4713C93.3756 21.4769 93.6047 21.4671 93.833 21.4755C93.9451 21.4797 94.041 21.5481 94.1414 21.5965C94.274 21.6598 94.2516 21.7709 94.2768 21.8792C94.2941 21.9468 94.2975 22.0172 94.2867 22.0861C94.2759 22.155 94.2511 22.221 94.214 22.2801C94.1652 22.3599 94.0674 22.3971 93.9737 22.4251C93.9176 22.4419 93.8615 22.4386 93.9269 22.5371C94.0295 22.6897 94.117 22.8532 94.2401 22.9915C94.2833 23.0399 94.2538 23.1205 94.3242 23.1522C94.3275 23.1604 94.3279 23.1694 94.3255 23.1779C94.3231 23.1863 94.3179 23.1937 94.3108 23.1989C94.2569 23.2359 93.9956 23.1914 93.9687 23.1323C93.8641 22.9041 93.702 22.7101 93.5924 22.4842C93.5534 22.4039 93.4496 22.4635 93.3762 22.4523C93.3103 22.4422 93.3187 22.4954 93.3184 22.5363C93.3184 22.7225 93.3106 22.9092 93.3212 23.0962C93.3277 23.2104 93.271 23.2149 93.1877 23.2082C93.1157 23.202 93.0293 23.2398 93.0349 23.1018C93.0453 22.8448 93.0391 22.5886 93.0391 22.3328ZM93.6086 21.7247C93.5483 21.7278 93.4878 21.7278 93.4275 21.7247C93.3434 21.7157 93.3114 21.7421 93.3176 21.8308C93.3234 21.9466 93.3234 22.0627 93.3176 22.1785C93.3156 22.2393 93.3386 22.2519 93.3969 22.2594C93.5632 22.2812 93.7174 22.2314 93.8714 22.1897C93.9981 22.1558 94.0396 21.9377 93.9645 21.8305C93.8688 21.6925 93.7345 21.73 93.6072 21.7247H93.6086Z" fill="#2867B2"/>
</g>
<defs>
<clipPath id="clip0_595_4549">
<rect width="95" height="23.2204" fill="white" transform="translate(0 0.703369)"/>
</clipPath>
</defs>
</svg>
