<svg width="117" height="25" viewBox="0 0 117 25" fill="none" xmlns="http://www.w3.org/2000/svg">
<g clip-path="url(#clip0_1806_2632)">
<mask id="mask0_1806_2632" style="mask-type:luminance" maskUnits="userSpaceOnUse" x="0" y="0" width="117" height="25">
<path d="M117 0.553223H0V24.7019H117V0.553223Z" fill="white"/>
</mask>
<g mask="url(#mask0_1806_2632)">
<path d="M11.8841 18.9702C11.8841 20.7606 11.8841 22.5514 11.8841 24.3422C11.8841 24.6983 11.8841 24.6996 11.517 24.6996H0.357454C0.31232 24.6996 0.266845 24.696 0.221711 24.6996C0.0649267 24.7127 -0.013126 24.6518 0.0018058 24.4934C0.0068962 24.4393 0.0018058 24.3842 0.0018058 24.3294C0.0018058 20.7588 0.0018058 17.1884 0.0018058 13.6182C0.0018058 13.1887 -0.0148228 13.2247 0.403607 13.2247H11.4949C11.5516 13.2247 11.6083 13.229 11.6646 13.2247C11.824 13.2116 11.8953 13.2792 11.8848 13.4339C11.8794 13.51 11.8848 13.5868 11.8848 13.6635L11.8841 18.9702Z" fill="#01A4DE"/>
<path d="M19.0429 13.2093C20.898 13.2093 22.7532 13.2093 24.6084 13.2093C24.9739 13.2093 24.9882 13.1412 24.9878 13.587C24.9878 17.1594 24.9878 20.7318 24.9878 24.3041C24.9878 24.3586 24.9831 24.4137 24.9878 24.4681C25.0027 24.6183 24.9474 24.6976 24.7788 24.6809C24.7109 24.6776 24.643 24.6776 24.5752 24.6809H13.5459C13.4782 24.677 13.4101 24.677 13.3423 24.6809C13.1564 24.7032 13.1014 24.6153 13.118 24.4514C13.1235 24.3973 13.118 24.3422 13.118 24.2874C13.118 20.726 13.118 17.1645 13.118 13.6031C13.118 13.1503 13.0841 13.2096 13.5436 13.208C15.3772 13.2089 17.2104 13.2093 19.0429 13.2093Z" fill="#FFB901"/>
<path d="M5.90951 12.0243C4.06543 12.0243 2.22158 12.0243 0.37795 12.0243C-0.0150284 12.0237 0.0111022 12.0617 0.0111022 11.6732C0.0111022 8.07938 0.0111022 4.48546 0.0111022 0.891457C0.0111022 0.836699 0.0134777 0.782271 0.0111022 0.727515C0.00635119 0.605871 0.0586126 0.544229 0.191302 0.553083C0.259174 0.558 0.327046 0.553083 0.394918 0.553083H11.492C11.5598 0.553083 11.6277 0.557345 11.6956 0.553083C11.8269 0.544558 11.8823 0.602592 11.8762 0.726859C11.8731 0.792435 11.8762 0.858013 11.8762 0.923586V11.6407C11.8762 11.6735 11.8762 11.7063 11.8762 11.7391C11.8717 12.0207 11.8717 12.0236 11.5768 12.024C9.6875 12.0251 7.79838 12.0252 5.90951 12.0243Z" fill="#DE5022"/>
<path d="M24.9771 6.31861V11.5939C24.9771 11.6814 24.9724 11.769 24.9771 11.8562C24.984 11.9841 24.9218 12.0333 24.7946 12.0254C24.7267 12.0211 24.6588 12.0254 24.5909 12.0254C20.8926 12.0254 17.1943 12.0254 13.4962 12.0254C13.0768 12.0254 13.1199 12.0706 13.1199 11.6539C13.1199 8.08261 13.1199 4.51112 13.1199 0.939404C13.1199 0.906614 13.1199 0.873832 13.1199 0.841041C13.1243 0.558407 13.1243 0.555457 13.4185 0.555457C17.1741 0.555457 20.9289 0.555457 24.6829 0.555457C24.9728 0.553161 24.9771 0.558079 24.9771 0.848251C24.9771 2.67127 24.9771 4.49473 24.9771 6.31861Z" fill="#7FBA00"/>
<path d="M40.6066 16.0212C40.7423 15.7015 40.8831 15.3825 41.0182 15.0617C42.3272 11.9579 43.6355 8.8548 44.9433 5.75258C44.9681 5.70363 44.9895 5.65314 45.0074 5.60142C45.0522 5.43388 45.1641 5.39355 45.3349 5.39486C46.2288 5.40208 47.1222 5.39486 48.0158 5.40142C48.2255 5.40142 48.4879 5.30633 48.6328 5.4529C48.7627 5.58405 48.6766 5.8293 48.6766 6.02374C48.679 10.5026 48.6798 14.9814 48.6789 19.4603C48.6789 19.916 48.6901 19.8662 48.256 19.8669C47.6452 19.8669 47.0344 19.8669 46.4235 19.8669C46.0763 19.8669 46.075 19.8646 46.075 19.5206C46.075 16.5819 46.075 13.6433 46.075 10.7049C46.075 10.1258 46.075 9.54682 46.075 8.96714C46.075 8.90875 46.1021 8.83988 46.0264 8.78351C45.9413 8.84617 45.9281 8.94746 45.8927 9.03303C44.4498 12.5426 43.0077 16.0524 41.5662 19.5622C41.5456 19.6131 41.5235 19.6633 41.5056 19.715C41.4682 19.8213 41.3976 19.8685 41.2772 19.8675C40.7793 19.8636 40.2815 19.86 39.784 19.8675C39.599 19.8708 39.5654 19.7517 39.5145 19.6288C39.1186 18.6771 38.7215 17.7256 38.3233 16.7743C37.2415 14.1829 36.1597 11.5918 35.0781 9.00093C35.0458 8.92351 35.0285 8.83698 34.9379 8.76383C34.8785 8.89795 34.904 9.01633 34.904 9.1294C34.9024 12.5704 34.9024 16.0115 34.904 19.4528C34.904 19.9049 34.9236 19.8642 34.4869 19.8646C33.8988 19.8646 33.3103 19.8672 32.7222 19.8646C32.4847 19.8646 32.4847 19.8574 32.4765 19.6233C32.4745 19.5688 32.4765 19.5141 32.4765 19.4593C32.4765 14.9038 32.4765 10.3483 32.4765 5.79324C32.4765 5.34043 32.4284 5.39978 32.8969 5.39716C33.8924 5.39454 34.8877 5.39716 35.8834 5.39716C36.2587 5.39716 36.1823 5.39191 36.294 5.6647C37.6539 8.98287 39.0128 12.3013 40.3707 15.6201C40.424 15.7513 40.4831 15.8782 40.5404 16.0074L40.6066 16.0212Z" fill="#747474"/>
<path d="M110.929 6.61907C110.691 6.54595 110.502 6.48333 110.309 6.42889C109.988 6.33905 109.657 6.3384 109.332 6.38824C108.717 6.48266 108.278 6.95646 108.172 7.64041C108.088 8.19325 108.113 8.75196 108.112 9.30898C108.112 9.43454 108.17 9.48737 108.296 9.4847C108.432 9.4818 108.568 9.4847 108.703 9.4847C109.665 9.4847 110.627 9.4847 111.588 9.4847C111.897 9.4847 111.9 9.48148 111.901 9.17656C111.901 8.59753 111.901 8.01846 111.901 7.43877C111.901 7.14958 111.902 7.14761 112.195 7.06039C112.853 6.86366 113.513 6.66879 114.171 6.47579C114.443 6.39643 114.447 6.39938 114.448 6.68891C114.45 7.5191 114.448 8.34962 114.448 9.18083C114.448 9.4818 114.452 9.48438 114.768 9.48511C115.413 9.48704 116.057 9.48511 116.703 9.48511C116.989 9.48511 116.993 9.48962 116.994 9.74737C116.997 10.239 116.997 10.7308 116.994 11.2229C116.994 11.4851 116.989 11.4868 116.707 11.4878C116.051 11.4897 115.395 11.4878 114.739 11.4878C114.454 11.4878 114.448 11.4924 114.448 11.7517C114.448 13.3577 114.451 14.9635 114.456 16.5693C114.457 16.7879 114.486 17.0057 114.544 17.2171C114.674 17.6945 115.014 17.9841 115.52 18.0496C115.937 18.1062 116.362 18.0391 116.739 17.8572C116.807 17.8244 116.866 17.7621 116.995 17.7712V18.307C116.995 18.7221 116.99 19.1372 116.998 19.553C117 19.6962 116.942 19.772 116.806 19.8192C116.488 19.932 116.157 20.0096 115.82 20.0503C115.074 20.1343 114.33 20.1392 113.615 19.8667C112.834 19.5691 112.349 19.0083 112.104 18.2464C111.955 17.7847 111.898 17.309 111.899 16.825C111.901 15.1637 111.901 13.5033 111.899 11.8435C111.899 11.4573 111.932 11.4884 111.535 11.4881C110.518 11.4881 109.5 11.4881 108.481 11.4881C108.401 11.4881 108.323 11.4881 108.244 11.492C108.227 11.4912 108.21 11.4939 108.194 11.4998C108.178 11.5057 108.163 11.5148 108.152 11.5264C108.14 11.538 108.13 11.5519 108.124 11.5672C108.118 11.5825 108.115 11.5989 108.116 11.6154C108.111 11.7137 108.111 11.812 108.111 11.9104C108.111 14.4121 108.111 16.9139 108.111 19.4156C108.111 19.492 108.104 19.5694 108.111 19.6451C108.129 19.8212 108.043 19.8697 107.873 19.8681C107.184 19.862 106.494 19.862 105.803 19.8681C105.634 19.8681 105.545 19.8235 105.563 19.6464C105.571 19.5707 105.563 19.4937 105.563 19.4169V11.8478C105.562 11.4914 105.562 11.4911 105.194 11.4904C104.798 11.4904 104.402 11.4829 104.006 11.4933C103.827 11.4979 103.768 11.4349 103.772 11.2668C103.779 10.7533 103.772 10.2399 103.776 9.72575C103.778 9.49624 103.788 9.4893 104.03 9.48672C104.437 9.48245 104.845 9.48672 105.252 9.48511C105.56 9.48341 105.561 9.48148 105.563 9.17132C105.567 8.72341 105.559 8.27519 105.573 7.82698C105.632 5.85707 107.153 4.39636 109.195 4.34587C109.659 4.33439 110.123 4.33144 110.58 4.43341C110.921 4.50948 110.925 4.51308 110.925 4.83966C110.93 5.41902 110.929 5.99609 110.929 6.61907Z" fill="#747474"/>
<path d="M77.6794 9.23584C78.441 9.24632 79.1597 9.31318 79.8493 9.54898C81.3126 10.049 82.2928 11.0244 82.7618 12.4425C83.2338 13.8737 83.2443 15.3279 82.7332 16.7535C82.0762 18.5854 80.7113 19.6588 78.7488 20.0025C77.7511 20.1772 76.7432 20.1628 75.758 19.8966C73.8983 19.3939 72.7227 18.227 72.2558 16.421C71.9138 15.0987 71.9647 13.7741 72.4414 12.4884C73.0631 10.8126 74.3175 9.80834 76.1005 9.40237C76.6298 9.28237 77.1704 9.25552 77.6794 9.23584ZM80.468 14.6744C80.4794 14.1604 80.4099 13.6478 80.2616 13.154C80.0536 12.4799 79.6674 11.9316 79.0155 11.5848C78.6314 11.3802 78.216 11.2975 77.7802 11.2756C76.4262 11.207 75.4295 11.8169 74.9975 12.9406C74.5564 14.0825 74.5479 15.2558 74.9849 16.4037C75.3158 17.2738 75.9718 17.8224 76.9268 18.0132C77.2506 18.0787 77.578 18.0808 77.9058 18.0633C79.0494 18.0024 79.8327 17.4292 80.2053 16.3826C80.3998 15.8292 80.4622 15.2558 80.4666 14.6744H80.468Z" fill="#747474"/>
<path d="M98.1187 9.2373C98.8291 9.24682 99.47 9.30029 100.091 9.48384C101.612 9.9344 102.664 10.8839 103.175 12.3332C103.72 13.8808 103.72 15.4542 103.1 16.9821C102.398 18.7104 101.036 19.699 99.1542 20.0104C98.2115 20.1663 97.2579 20.1626 96.3269 19.9279C94.2602 19.4062 93.0409 18.0983 92.6306 16.0897C92.4133 15.0468 92.4534 13.9692 92.7467 12.944C93.3342 10.8921 94.7491 9.71964 96.8994 9.33731C97.3248 9.26158 97.7552 9.26384 98.1187 9.2373ZM100.909 14.6725C100.919 14.3164 100.892 13.9602 100.831 13.6089C100.534 11.9921 99.4349 11.319 98.2516 11.2728C96.9052 11.22 95.8873 11.7869 95.4352 12.9813C95.014 14.0909 95.0057 15.2293 95.4152 16.3467C95.7486 17.2566 96.418 17.8317 97.4125 18.0219C97.7359 18.0835 98.0644 18.0829 98.392 18.0619C99.4976 17.9914 100.249 17.457 100.634 16.4513C100.851 15.8812 100.922 15.2884 100.909 14.6725Z" fill="#747474"/>
<path d="M90.8508 11.9457C90.4329 11.6962 90.0544 11.5043 89.6415 11.3908C89.0624 11.2312 88.4774 11.1197 87.8706 11.227C87.7144 11.2529 87.5639 11.3012 87.4227 11.3702C86.7098 11.7263 86.6313 12.6466 87.2781 13.108C87.5715 13.3162 87.9041 13.4562 88.2359 13.5946C88.7339 13.8018 89.2437 13.9815 89.7117 14.2504C89.8087 14.3064 89.9031 14.3661 90.0009 14.4212C91.9849 15.5392 91.8395 18.3721 89.9039 19.4567C89.2855 19.802 88.596 20.0113 87.8849 20.0699C86.755 20.1734 85.6159 20.0237 84.5562 19.6325C84.2796 19.5312 84.2779 19.5289 84.2771 19.2666C84.2754 18.578 84.2771 17.8917 84.2771 17.2071C84.3974 17.1681 84.4559 17.2541 84.5261 17.2987C85.3067 17.7931 86.1574 18.0925 87.0909 18.1531C87.4411 18.1786 87.7938 18.1417 88.1297 18.0442C88.5116 17.9301 88.7874 17.7104 88.8476 17.3009C88.9061 16.9052 88.8108 16.5652 88.4699 16.3121C88.1899 16.1042 87.8765 15.9543 87.5581 15.8133C86.9622 15.551 86.348 15.3284 85.7822 15.0031C85.1161 14.6205 84.6172 14.1104 84.4074 13.3712C83.942 11.7355 84.7125 10.2446 86.3563 9.59609C87.0048 9.33963 87.6834 9.23536 88.3763 9.23834C89.1234 9.24012 89.8655 9.35826 90.5733 9.58818C90.8483 9.67834 90.85 9.68133 90.8508 9.94883C90.8516 10.5954 90.8508 11.2391 90.8508 11.9457Z" fill="#747474"/>
<path d="M63.7631 12.0914C63.6018 12.0868 63.5292 11.993 63.4379 11.9347C62.5247 11.3642 61.5392 11.1334 60.4631 11.3511C59.4749 11.5511 58.7581 12.1111 58.3523 12.9905C57.8293 14.121 57.8222 15.2899 58.3278 16.4257C58.7731 17.426 59.6269 17.931 60.7318 18.0536C61.6583 18.1563 62.4985 17.9025 63.289 17.4576C63.4318 17.3772 63.5716 17.2913 63.7641 17.1782V17.506C63.7641 18.0307 63.7437 18.5553 63.7725 19.0799C63.7875 19.3507 63.6687 19.4675 63.441 19.5691C62.8875 19.8201 62.2951 19.9818 61.6875 20.0475C60.7257 20.1488 59.7678 20.1416 58.8369 19.8419C57.0417 19.2642 55.9496 18.051 55.5136 16.3008C55.2 15.0401 55.3069 13.781 55.7749 12.5646C56.3412 11.093 57.4079 10.0934 58.9434 9.58514C60.3796 9.10934 61.828 9.12442 63.2703 9.58087C63.7682 9.73861 63.7647 9.74877 63.7647 10.2393L63.7631 12.0914Z" fill="#747474"/>
<path d="M71.908 11.9103C71.4933 11.7041 71.1105 11.5884 70.7036 11.547C69.805 11.4555 69.1466 11.8152 68.6905 12.5458C68.3369 13.1123 68.1961 13.7409 68.192 14.3934C68.1811 16.0747 68.1872 17.7564 68.1842 19.4381C68.1842 19.9159 68.2493 19.8643 67.725 19.8667C67.1368 19.8691 66.5486 19.8691 65.9604 19.8667C65.6661 19.8667 65.6628 19.8627 65.6624 19.5772C65.6624 17.8518 65.6624 16.1265 65.6624 14.4012V9.91321C65.6624 9.84764 65.6607 9.78208 65.6624 9.71644C65.6706 9.49353 65.6709 9.48958 65.9203 9.48692C66.2596 9.48337 66.599 9.48692 66.9384 9.48692C67.2777 9.48692 67.6171 9.49385 67.9565 9.48466C68.1347 9.47974 68.1913 9.54434 68.1879 9.71418C68.1788 10.1942 68.1849 10.6745 68.1849 11.1624C68.2941 11.1535 68.2955 11.0673 68.3247 11.0076C68.4893 10.6693 68.6878 10.3519 68.961 10.0853C69.7273 9.33845 70.6578 9.19248 71.6844 9.39845C71.8377 9.42926 71.9138 9.49418 71.9117 9.66305C71.9029 10.3926 71.908 11.1241 71.908 11.9103Z" fill="#747474"/>
<path d="M51.0849 14.6633V9.91332C51.0849 9.84775 51.0828 9.78219 51.0849 9.71662C51.093 9.49364 51.0937 9.49001 51.3431 9.48711C51.6824 9.48316 52.0218 9.48711 52.3612 9.48711C52.7118 9.48711 53.0623 9.4917 53.4132 9.4855C53.5717 9.48251 53.6457 9.53985 53.6345 9.69533C53.6297 9.7609 53.6345 9.82646 53.6345 9.89203C53.6345 13.0803 53.6345 16.2689 53.6345 19.4576C53.6345 19.9101 53.6525 19.8678 53.2161 19.8682C52.6052 19.8682 51.9943 19.8698 51.3835 19.8682C51.0893 19.8682 51.0859 19.8645 51.0859 19.5786C51.0843 17.9396 51.084 16.3012 51.0849 14.6633Z" fill="#747474"/>
<path d="M52.3879 7.89774C51.6192 7.89971 50.9727 7.40919 50.8754 6.75475C50.7023 5.5947 51.7498 4.9255 52.6916 5.09895C53.4765 5.24387 53.9998 5.91078 53.9214 6.65704C53.8468 7.36919 53.1949 7.89774 52.3879 7.89774Z" fill="#747474"/>
</g>
</g>
<defs>
<clipPath id="clip0_1806_2632">
<rect width="117" height="25" fill="white"/>
</clipPath>
</defs>
</svg>
