<svg width="96" height="24" viewBox="0 0 96 24" fill="none" xmlns="http://www.w3.org/2000/svg">
<path d="M0 8.62511C0 4.69651 3.34694 0 9.96395 0C15.3097 0 18.8123 3.79876 18.7841 7.85906C18.7841 13.2734 15.7484 17.33 11.2596 17.33C9.75395 17.33 8.35329 16.5343 7.86016 15.6105C7.86016 15.6105 7.05577 18.7935 6.87389 19.4093C6.33153 21.3951 4.80094 23.3579 4.43129 23.832C4.39455 23.8791 4.36928 23.9115 4.35759 23.9277C4.25446 24.0557 4.04633 24.0038 4.02008 23.8498C4.01763 23.8259 4.01134 23.7803 4.00238 23.7154C3.91546 23.0852 3.5779 20.6382 4.07258 18.6135C4.33321 17.4839 5.86324 11.0921 5.86324 11.0921C5.86324 11.0921 5.42261 10.2203 5.42261 8.91076C5.42261 6.85558 6.61513 5.34201 8.12079 5.34201C9.39207 5.34201 10.0146 6.2917 10.0146 7.42131C10.0146 8.22502 9.68604 9.29085 9.34073 10.4111C9.14572 11.0438 8.94536 11.6938 8.7958 12.3237C8.4583 13.7872 9.54769 14.9929 11.0008 14.9929C13.6222 14.9929 15.4128 11.63 15.4128 7.65131C15.4128 4.62232 13.3371 2.3631 9.60019 2.3631C5.37198 2.3631 2.72443 5.4941 2.72443 8.98496C2.72443 10.1665 3.06194 11.0123 3.63195 11.6801C3.89258 11.988 3.9432 12.116 3.84008 12.4498C3.7632 12.7058 3.60757 13.3216 3.55507 13.5535C3.45007 13.8874 3.16506 14.0153 2.85381 13.8874C0.907518 13.1176 0 10.9864 0 8.62511Z" fill="#E60019"/>
<path fill-rule="evenodd" clip-rule="evenodd" d="M92.738 11.5241H95.0724C95.3837 11.5241 95.5918 11.3961 95.6424 11.1142C95.7455 10.6783 95.9274 9.95857 95.9799 9.75454C96.0587 9.49857 95.9012 9.29268 95.5899 9.29268H93.2799C93.3068 9.18148 93.3486 9.02556 93.3992 8.83656C93.6408 7.93473 94.0843 6.27958 94.0843 5.13408C94.0843 2.38702 91.7236 0.0257813 88.3504 0.0257813C84.5628 0.0257813 82.0971 2.54098 82.0971 6.08376C82.0971 7.11136 82.4872 8.31702 82.9803 9.06082C82.8762 9.06082 82.7726 9.05433 82.669 9.04784C82.5654 9.04134 82.4618 9.03485 82.3578 9.03485C79.4777 9.03485 77.6608 10.5744 77.6608 12.8336C77.6608 14.9389 79.3483 15.7606 80.9309 16.2985C81.1411 16.3717 81.3491 16.4392 81.5507 16.5045C82.6919 16.8745 83.6291 17.1784 83.6291 18.0959C83.6291 18.8397 82.9278 19.2514 81.5271 19.2514C79.8658 19.2514 78.9583 18.4817 78.7239 18.1997C78.8796 18.0717 79.114 17.7898 79.114 17.302C79.114 16.6342 78.6208 16.0703 77.7396 16.0703C76.9877 16.0703 76.3389 16.6862 76.1833 17.4819C74.9645 18.4576 73.6407 19.0993 71.7713 19.0993C69.9281 19.0993 68.9681 18.1496 68.9681 16.1223C69.4088 16.2503 70.5244 16.4042 71.2782 16.4042C74.417 16.4042 76.5452 14.9927 76.5452 12.1937C76.5452 10.6801 75.1951 9.08864 72.5494 9.08864C69.0469 9.08864 67.1006 11.27 66.2437 13.6831C66.0093 13.6312 65.7768 13.5811 65.5181 13.5292C65.6999 12.9894 65.8556 12.3736 65.8556 11.6817C65.8556 10.5002 65.1037 9.08864 63.1049 9.08864C61.7042 9.08864 60.4067 9.9864 59.4973 11.3479C59.7317 10.4742 59.8873 9.88438 59.8873 9.8343C59.9398 9.60244 59.8611 9.34647 59.4973 9.34647H57.4479C57.1629 9.34647 56.9548 9.44849 56.8779 9.78236C56.8254 10.0142 56.126 12.7335 55.4247 15.3785C54.9841 17.0479 52.7528 19.1012 49.9496 19.1012C48.1065 19.1012 47.1464 18.0996 47.1464 16.0722C47.6396 16.2521 48.7027 16.432 49.4565 16.432C52.7003 16.432 54.7235 15.0205 54.7235 12.2215C54.7235 10.7079 53.3734 9.11647 50.7278 9.11647C46.7845 9.11647 44.3714 12.1455 43.9814 15.5603C43.7995 16.9978 42.607 18.9491 41.2832 18.9491C40.6344 18.9491 40.2707 18.5392 40.2707 17.8714C40.2707 17.3744 40.5648 16.2757 40.9379 14.8825L40.9384 14.8804C41.0079 14.6207 41.0802 14.3508 41.1538 14.0727C41.3094 13.4828 41.5438 12.5591 41.8026 11.5315H43.9307C44.242 11.5315 44.4239 11.4035 44.5008 11.1216C44.6039 10.6857 44.7858 9.96599 44.8383 9.76196C44.917 9.50599 44.7595 9.3001 44.4482 9.3001H42.3463C42.3463 9.3001 43.3064 5.47537 43.3326 5.37335C43.4357 4.98754 43.0982 4.75754 42.7626 4.83359C42.7626 4.83359 41.1276 5.14149 40.8426 5.2194C40.5313 5.27133 40.2969 5.45126 40.1938 5.88715C40.1675 5.93909 39.3369 9.32606 39.3369 9.32606H37.6494C37.3381 9.32606 37.1562 9.45405 37.0794 9.73599C36.9762 10.1719 36.7943 10.8916 36.7418 11.0956C36.6631 11.3516 36.8206 11.5575 37.1319 11.5575H38.7931C38.7931 11.5759 38.7184 11.8644 38.6011 12.3172C38.3871 13.1433 38.0316 14.5161 37.73 15.7921C37.4956 16.7418 36.77 18.9751 35.5249 18.9751C34.7993 18.9751 34.4862 18.6152 34.4862 17.8195C34.4862 17.2247 34.7705 16.1985 35.0644 15.1373C35.3791 14.0013 35.7049 12.8252 35.7049 12.0954C35.7049 10.222 34.6924 9.14429 32.6168 9.14429C31.293 9.14429 29.9448 9.99196 29.3729 10.7098C29.3729 10.7098 29.5548 10.1199 29.6073 9.88809C29.6598 9.63212 29.5286 9.40026 29.2173 9.40026H27.1942C26.7535 9.40026 26.6485 9.63212 26.5716 9.88809L26.5135 10.1158C26.3249 10.8552 25.7129 13.2537 25.1185 15.5603C24.6253 17.4337 23.4572 18.9992 22.2122 18.9992C21.5634 18.9992 21.2784 18.5893 21.2784 17.9215C21.2784 17.4372 21.5413 16.3815 21.8793 15.0243C21.953 14.7285 22.0302 14.4184 22.109 14.0968C22.5152 12.4729 22.8923 11.0618 23.0794 10.3617C23.1437 10.1214 23.1855 9.96482 23.1984 9.9122C23.2772 9.65623 23.1459 9.3984 22.7841 9.3984H20.7346C20.3709 9.3984 20.2415 9.57833 20.1646 9.86027C20.1646 9.86027 19.5946 12.0156 18.9702 14.4288C18.9018 14.6997 18.8322 14.9712 18.7633 15.2397C18.3884 16.7012 18.0365 18.0731 18.0365 18.7673C18.0365 20.2568 18.7115 21.3864 20.579 21.3864C22.0059 21.3864 23.1478 20.6686 24.0047 19.743C23.8753 20.2308 23.7966 20.5647 23.7966 20.5906C23.7178 20.8726 23.8228 21.1304 24.1603 21.1304H26.2623C26.626 21.1304 26.7554 20.9765 26.8323 20.6686L28.4673 14.2767C28.8817 12.6333 29.8942 11.5556 31.3474 11.5556C32.0224 11.5556 32.6186 11.9915 32.5418 12.8651C32.5106 13.2411 32.309 14.007 32.0769 14.8892C31.7225 16.2359 31.2967 17.8536 31.2967 18.7692C31.2967 19.8988 31.7111 21.3882 33.8918 21.3882C35.3712 21.3882 36.4606 20.6945 37.2387 19.7708C37.5237 20.7205 38.3019 21.3882 39.7044 21.3882C42.0388 21.3882 43.4676 20.0286 44.272 18.6412C44.947 20.2327 46.582 21.3882 48.9427 21.3882C51.3559 21.3882 53.2234 20.3866 54.521 19.027L54.4859 19.1651C54.2712 20.0114 54.1297 20.5692 54.1066 20.6185C54.0278 20.9004 54.1591 21.1323 54.4966 21.1323H56.5723C56.8573 21.1323 57.0654 20.9783 57.1423 20.6964C57.1549 20.6222 57.2336 20.3219 57.3581 19.8469C57.4922 19.3355 57.6793 18.6215 57.8941 17.7694C58.6985 14.6644 59.9961 11.4295 61.9686 11.4295C62.6699 11.4295 62.9286 11.8153 62.9286 12.4051C62.9286 12.6871 62.8499 12.9449 62.773 13.0729C61.8392 12.893 61.0611 13.3548 61.0611 14.3565C61.0611 14.9982 61.7624 15.5881 62.6961 15.5881C63.4218 15.5881 63.9936 15.4082 64.4605 15.1003C64.9012 15.1782 65.368 15.2802 65.8612 15.4082C65.7824 15.87 65.7581 16.3319 65.7581 16.7678C65.7581 19.257 67.5487 21.3882 70.7925 21.3882C73.3351 21.3882 75.0732 20.4645 76.5527 19.3089C77.2783 20.4645 79.0952 21.4142 81.4821 21.4142C84.7522 21.4142 86.6197 19.7207 86.6197 17.5134C86.6197 15.512 84.9584 14.7664 83.2203 14.1506C83.0308 14.0811 82.8456 14.0163 82.667 13.9538C81.525 13.5543 80.6515 13.2488 80.6515 12.4051C80.6515 11.6094 81.3002 11.2236 82.3896 11.2236C83.0729 11.2236 83.6066 11.3697 83.8972 11.4493L83.9197 11.4554C84.2047 12.1492 84.7766 12.9189 85.7872 12.9189C86.6441 12.9189 87.006 12.2512 87.006 11.6613C87.006 10.9505 86.5239 10.4993 85.9524 9.9644C85.1207 9.186 84.0997 8.23039 84.0997 6.03925C84.0997 3.72994 85.4235 1.82871 88.1479 1.82871C90.0417 1.82871 91.2867 3.01026 91.2867 4.95972C91.2867 6.55119 90.3004 9.37429 90.3004 9.37429H88.6392C88.3279 9.37429 88.146 9.50228 88.0691 9.78421C87.966 10.2201 87.7841 10.9398 87.7316 11.1438C87.6529 11.3998 87.8104 11.6057 88.1216 11.6057H89.7304C89.7304 11.6057 88.0691 17.6896 88.0691 18.8193C88.0691 20.3087 88.926 21.4383 90.7673 21.4383C93.3886 21.4383 95.048 19.7448 95.7493 17.3057C95.8018 17.1258 95.6968 16.9718 95.4905 16.9718H94.478C94.2699 16.9718 94.1668 17.0738 94.1143 17.2797C93.8799 18.1534 93.3361 19.0771 92.2205 19.0771C91.5717 19.0771 91.208 18.6672 91.208 17.9994C91.208 17.4869 91.5024 16.3918 91.9031 14.9014C91.9636 14.6766 92.0265 14.4428 92.0911 14.2006C92.3236 13.1675 92.738 11.5241 92.738 11.5241ZM72.0319 11.4221C72.9657 11.4221 73.4063 12.0379 73.4063 12.7576C73.4063 13.9892 72.4463 14.7348 70.9407 14.7348C70.395 14.7348 69.6431 14.6069 69.2025 14.4529C69.36 13.3474 70.1907 11.4221 72.0319 11.4221ZM50.184 11.4221C51.1965 11.4221 51.5584 12.0379 51.5584 12.7576C51.5584 13.9892 50.5984 14.7348 49.0927 14.7348C48.5471 14.7348 47.7952 14.6069 47.3546 14.4529C47.5121 13.3474 48.2377 11.4221 50.184 11.4221Z" fill="#E60019"/>
<path d="M22.0562 8.46945C23.095 8.46945 24.1056 7.62178 24.2612 6.5441C24.4694 5.51651 23.7681 4.64473 22.7312 4.64473C21.6924 4.64473 20.6818 5.4924 20.5262 6.5441C20.2918 7.59767 20.9668 8.46945 22.0562 8.46945Z" fill="#E60019"/>
</svg>
