<svg width="89" height="31" viewBox="0 0 89 31" fill="none" xmlns="http://www.w3.org/2000/svg">
<path d="M80.3663 12.4131C81.437 12.4131 82.3049 11.5505 82.3049 10.4866C82.3049 9.42258 81.437 8.56006 80.3663 8.56006C79.2957 8.56006 78.4277 9.42258 78.4277 10.4866C78.4277 11.5505 79.2957 12.4131 80.3663 12.4131Z" fill="#FF4500"/>
<path fill-rule="evenodd" clip-rule="evenodd" d="M64.0533 7.34277C64.6568 7.34277 65.1506 7.83349 65.1506 8.43325V22.4458C65.1506 23.0456 64.6568 23.5363 64.0533 23.5363C63.5229 23.5363 63.0657 23.1546 62.9743 22.6458C62.2244 23.3909 61.2734 23.7726 60.1578 23.7726C57.2682 23.7726 54.9272 21.1736 54.9272 17.9749C54.9272 14.7762 57.2682 12.1772 60.1578 12.1772C61.2734 12.1772 62.2061 12.5407 62.956 13.2859V8.43325C62.956 7.83349 63.4498 7.34277 64.0533 7.34277ZM57.1402 17.9749C57.1402 19.9923 58.4935 21.6098 60.1761 21.6098C61.8404 21.6098 63.212 19.9923 63.212 17.9749C63.212 15.9575 61.8587 14.34 60.1761 14.34C58.4935 14.34 57.1402 15.9757 57.1402 17.9749Z" fill="#222222"/>
<path fill-rule="evenodd" clip-rule="evenodd" d="M54.139 17.3023C54.1756 17.9929 53.6269 18.7017 52.6759 18.7017V18.6654H46.0005C46.2748 20.3193 47.5185 21.5733 48.9816 21.5733C50.1915 21.5733 50.9513 20.9196 51.3621 20.5662L51.3957 20.5373C51.8163 20.192 52.3833 20.083 52.8405 20.392C53.3891 20.7736 53.4806 21.5551 53.0234 22.064C52.0906 23.1 50.7921 23.7542 48.9816 23.7542C46.092 23.7542 43.751 21.1553 43.751 17.9566C43.751 14.7578 46.092 12.1589 48.9816 12.1589C51.414 12.1589 53.4623 14.0127 54.0475 16.5208C54.0841 16.7025 54.1207 16.9388 54.139 17.3023ZM51.8346 16.7752C51.414 15.3758 50.2801 14.358 48.9633 14.358C47.6465 14.358 46.5126 15.3576 46.092 16.7752H51.8346Z" fill="#222222"/>
<path d="M42.9467 12.2317C43.4588 12.3226 43.8612 12.7587 43.8612 13.304C43.8612 13.8674 43.4223 14.3399 42.8736 14.3763H42.6541C40.5326 14.14 38.9964 15.8121 38.9964 17.8476V22.4458C38.9964 23.0819 38.466 23.5726 37.8259 23.5363C37.2407 23.4999 36.8018 22.991 36.8018 22.4094V13.5039C36.8018 12.9041 37.2956 12.4134 37.8991 12.4134C38.4477 12.4134 38.9964 12.8314 38.9964 13.5039V13.6493C39.856 12.577 41.3556 11.9954 42.9467 12.2317Z" fill="#222222"/>
<path d="M81.4632 14.4667C81.4632 13.8669 80.9694 13.3762 80.3659 13.3762C79.7624 13.3762 79.2686 13.8669 79.2686 14.4667V22.4453C79.2686 23.0451 79.7624 23.5358 80.3659 23.5358C80.9694 23.5358 81.4632 23.0451 81.4632 22.4453V14.4667Z" fill="#222222"/>
<path fill-rule="evenodd" clip-rule="evenodd" d="M76.5968 8.43325C76.5968 7.83349 76.103 7.34277 75.4995 7.34277C74.896 7.34277 74.4022 7.83349 74.4022 8.43325V13.2859C73.6524 12.5407 72.7196 12.1772 71.604 12.1772C68.7144 12.1772 66.3735 14.7762 66.3735 17.9749C66.3735 21.1736 68.7144 23.7726 71.604 23.7726C72.7196 23.7726 73.6707 23.3909 74.4205 22.6458C74.5119 23.1546 74.9692 23.5363 75.4995 23.5363C76.103 23.5363 76.5968 23.0456 76.5968 22.4458V8.43325ZM71.604 21.6098C69.9215 21.6098 68.5681 19.9923 68.5681 17.9749C68.5681 15.9757 69.9215 14.34 71.604 14.34C73.2866 14.34 74.64 15.9575 74.64 17.9749C74.64 19.9923 73.2866 21.6098 71.604 21.6098Z" fill="#222222"/>
<path d="M87.0231 14.358V22.4639C87.0231 23.0637 86.5476 23.5362 85.9075 23.5725C85.304 23.5725 84.8102 23.0818 84.8102 22.4821V14.3762H83.8775C83.3288 14.3762 82.8716 13.9037 82.9082 13.3403C82.9448 12.8132 83.402 12.4315 83.9141 12.4315H84.8285V10.8503C84.8285 10.2142 85.3589 9.72352 85.999 9.75987C86.5842 9.79622 87.0231 10.3051 87.0231 10.8867V12.4134H88.029C88.5777 12.4134 89.0349 12.8859 88.9983 13.4493C88.9617 13.9764 88.5045 14.358 87.9924 14.358H87.0231Z" fill="#222222"/>
<path d="M15.3259 30.4606C23.7902 30.4606 30.6518 23.6417 30.6518 15.2303C30.6518 6.81883 23.7902 0 15.3259 0C6.86165 0 0 6.81883 0 15.2303C0 23.6417 6.86165 30.4606 15.3259 30.4606Z" fill="#FF4500"/>
<path d="M25.5513 15.2305C25.5513 13.9946 24.5454 13.0132 23.3201 13.0132C22.7165 13.0132 22.1679 13.2495 21.7655 13.6312C20.2293 12.5407 18.1261 11.8319 15.7851 11.741L16.8093 6.97926L20.1378 7.68807C20.1744 8.5241 20.8694 9.19656 21.7289 9.19656C22.6068 9.19656 23.3201 8.48775 23.3201 7.61537C23.3201 6.74299 22.6068 6.03418 21.7289 6.03418C21.1071 6.03418 20.5585 6.39767 20.3024 6.92473L16.5898 6.14323C16.4801 6.12505 16.3704 6.14323 16.2972 6.19775C16.2058 6.25227 16.1509 6.34315 16.1326 6.4522L14.9987 11.7592C12.6212 11.8319 10.4814 12.5407 8.92687 13.6493C8.52452 13.2677 7.97586 13.0314 7.37233 13.0314C6.1287 13.0314 5.14111 14.031 5.14111 15.2487C5.14111 16.1574 5.68977 16.9207 6.4579 17.2661C6.42132 17.4842 6.40303 17.7023 6.40303 17.9385C6.40303 21.3553 10.4083 24.1361 15.3462 24.1361C20.2841 24.1361 24.2894 21.3735 24.2894 17.9385C24.2894 17.7204 24.2711 17.4842 24.2345 17.2661C25.0026 16.9207 25.5513 16.1392 25.5513 15.2305ZM10.2254 16.8117C10.2254 15.9393 10.9386 15.2305 11.8165 15.2305C12.6943 15.2305 13.4076 15.9393 13.4076 16.8117C13.4076 17.6841 12.6943 18.3929 11.8165 18.3929C10.9386 18.4111 10.2254 17.6841 10.2254 16.8117ZM19.132 21.01C18.0346 22.1005 15.9497 22.1732 15.3462 22.1732C14.7244 22.1732 12.6395 22.0823 11.5604 21.01C11.3958 20.8465 11.3958 20.592 11.5604 20.4284C11.725 20.2649 11.9811 20.2649 12.1457 20.4284C12.8406 21.1191 14.3037 21.3553 15.3462 21.3553C16.3887 21.3553 17.87 21.1191 18.5467 20.4284C18.7113 20.2649 18.9674 20.2649 19.132 20.4284C19.2783 20.592 19.2783 20.8465 19.132 21.01ZM18.8393 18.4111C17.9615 18.4111 17.2482 17.7023 17.2482 16.8299C17.2482 15.9575 17.9615 15.2487 18.8393 15.2487C19.7172 15.2487 20.4305 15.9575 20.4305 16.8299C20.4305 17.6841 19.7172 18.4111 18.8393 18.4111Z" fill="white"/>
</svg>
