<svg width="170" height="50" viewBox="0 0 170 50" fill="none" xmlns="http://www.w3.org/2000/svg">
<rect width="50" height="50" rx="25" fill="#0866FF"/>
<path d="M37 25.0733C37 18.4054 31.6274 13 25 13C18.3726 13 13 18.4054 13 25.0733C13 31.0995 17.3882 36.0943 23.125 37V28.5633H20.0781V25.0733H23.125V22.4134C23.125 19.3875 24.9165 17.7161 27.6576 17.7161C28.9705 17.7161 30.3438 17.952 30.3438 17.952V20.9231H28.8306C27.3399 20.9231 26.875 21.8538 26.875 22.8085V25.0733H30.2031L29.6711 28.5633H26.875V37C32.6118 36.0943 37 31.0995 37 25.0733Z" fill="white"/>
<rect x="60.5" y="0.5" width="49" height="49" rx="24.5" fill="white" stroke="#E8E8E8"/>
<path fill-rule="evenodd" clip-rule="evenodd" d="M78.1739 25C78.1739 24.2205 78.3033 23.4731 78.5344 22.7723L74.4901 19.684C73.7018 21.2843 73.2578 23.0876 73.2578 25C73.2578 26.9108 73.7014 28.7128 74.4884 30.3122L78.5305 27.2179C78.3016 26.5202 78.1739 25.7756 78.1739 25Z" fill="#FBBC05"/>
<path fill-rule="evenodd" clip-rule="evenodd" d="M85.2732 17.9091C86.9665 17.9091 88.496 18.5091 89.6977 19.4909L93.1934 16C91.0632 14.1454 88.3321 13 85.2732 13C80.5242 13 76.4427 15.7157 74.4884 19.684L78.5326 22.7723C79.4645 19.9437 82.1208 17.9091 85.2732 17.9091Z" fill="#EA4335"/>
<path fill-rule="evenodd" clip-rule="evenodd" d="M85.2732 32.0908C82.121 32.0908 79.4647 30.0563 78.5328 27.2277L74.4884 30.3154C76.4427 34.2842 80.5242 37 85.2732 37C88.2042 37 91.0027 35.9592 93.1028 34.0092L89.264 31.0414C88.1808 31.7237 86.8167 32.0908 85.2732 32.0908Z" fill="#34A853"/>
<path fill-rule="evenodd" clip-rule="evenodd" d="M96.7441 25C96.7441 24.2909 96.6348 23.5272 96.4709 22.8182H85.2734V27.4546H91.7189C91.3966 29.0354 90.5195 30.2506 89.2642 31.0414L93.1031 34.0092C95.3092 31.9617 96.7441 28.9114 96.7441 25Z" fill="#4285F4"/>
<rect x="120" width="50" height="50" rx="25" fill="black"/>
<path d="M147.086 22.5945L154.646 14H152.854L146.29 21.4625L141.047 14H135L142.928 25.2846L135 34.2973H136.792L143.724 26.4166L149.261 34.2973H155.308L147.085 22.5945H147.086ZM144.632 25.384L143.829 24.2603L137.437 15.319H140.189L145.347 22.5349L146.15 23.6586L152.855 33.0383H150.103L144.632 25.3845V25.384Z" fill="white"/>
</svg>
