<svg width="196" height="105" viewBox="0 0 196 105" fill="none" xmlns="http://www.w3.org/2000/svg">
<rect y="76" width="196" height="29" rx="4" fill="black"/>
<path d="M53.387 90.859C53.387 90.247 53.525 89.698 53.801 89.212C54.077 88.72 54.452 88.336 54.926 88.06C55.406 87.784 55.937 87.646 56.519 87.646C57.203 87.646 57.8 87.811 58.31 88.141C58.82 88.471 59.192 88.939 59.426 89.545H58.445C58.271 89.167 58.019 88.876 57.689 88.672C57.365 88.468 56.975 88.366 56.519 88.366C56.081 88.366 55.688 88.468 55.34 88.672C54.992 88.876 54.719 89.167 54.521 89.545C54.323 89.917 54.224 90.355 54.224 90.859C54.224 91.357 54.323 91.795 54.521 92.173C54.719 92.545 54.992 92.833 55.34 93.037C55.688 93.241 56.081 93.343 56.519 93.343C56.975 93.343 57.365 93.244 57.689 93.046C58.019 92.842 58.271 92.551 58.445 92.173H59.426C59.192 92.773 58.82 93.238 58.31 93.568C57.8 93.892 57.203 94.054 56.519 94.054C55.937 94.054 55.406 93.919 54.926 93.649C54.452 93.373 54.077 92.992 53.801 92.506C53.525 92.02 53.387 91.471 53.387 90.859ZM62.7961 94.081C62.3341 94.081 61.9141 93.976 61.5361 93.766C61.1641 93.556 60.8701 93.259 60.6541 92.875C60.4441 92.485 60.3391 92.035 60.3391 91.525C60.3391 91.021 60.4471 90.577 60.6631 90.193C60.8851 89.803 61.1851 89.506 61.5631 89.302C61.9411 89.092 62.3641 88.987 62.8321 88.987C63.3001 88.987 63.7231 89.092 64.1011 89.302C64.4791 89.506 64.7761 89.8 64.9921 90.184C65.2141 90.568 65.3251 91.015 65.3251 91.525C65.3251 92.035 65.2111 92.485 64.9831 92.875C64.7611 93.259 64.4581 93.556 64.0741 93.766C63.6901 93.976 63.2641 94.081 62.7961 94.081ZM62.7961 93.361C63.0901 93.361 63.3661 93.292 63.6241 93.154C63.8821 93.016 64.0891 92.809 64.2451 92.533C64.4071 92.257 64.4881 91.921 64.4881 91.525C64.4881 91.129 64.4101 90.793 64.2541 90.517C64.0981 90.241 63.8941 90.037 63.6421 89.905C63.3901 89.767 63.1171 89.698 62.8231 89.698C62.5231 89.698 62.2471 89.767 61.9951 89.905C61.7491 90.037 61.5511 90.241 61.4011 90.517C61.2511 90.793 61.1761 91.129 61.1761 91.525C61.1761 91.927 61.2481 92.266 61.3921 92.542C61.5421 92.818 61.7401 93.025 61.9861 93.163C62.2321 93.295 62.5021 93.361 62.7961 93.361ZM68.805 88.978C69.405 88.978 69.891 89.161 70.263 89.527C70.635 89.887 70.821 90.409 70.821 91.093V94H70.011V91.21C70.011 90.718 69.888 90.343 69.642 90.085C69.396 89.821 69.06 89.689 68.634 89.689C68.202 89.689 67.857 89.824 67.599 90.094C67.347 90.364 67.221 90.757 67.221 91.273V94H66.402V89.068H67.221V89.77C67.383 89.518 67.602 89.323 67.878 89.185C68.16 89.047 68.469 88.978 68.805 88.978ZM73.1578 89.743V92.65C73.1578 92.89 73.2088 93.061 73.3108 93.163C73.4128 93.259 73.5898 93.307 73.8418 93.307H74.4448V94H73.7068C73.2508 94 72.9088 93.895 72.6808 93.685C72.4528 93.475 72.3388 93.13 72.3388 92.65V89.743H71.6998V89.068H72.3388V87.826H73.1578V89.068H74.4448V89.743H73.1578ZM75.8601 88.267C75.7041 88.267 75.5721 88.213 75.4641 88.105C75.3561 87.997 75.3021 87.865 75.3021 87.709C75.3021 87.553 75.3561 87.421 75.4641 87.313C75.5721 87.205 75.7041 87.151 75.8601 87.151C76.0101 87.151 76.1361 87.205 76.2381 87.313C76.3461 87.421 76.4001 87.553 76.4001 87.709C76.4001 87.865 76.3461 87.997 76.2381 88.105C76.1361 88.213 76.0101 88.267 75.8601 88.267ZM76.2561 89.068V94H75.4371V89.068H76.2561ZM80.055 88.978C80.655 88.978 81.141 89.161 81.513 89.527C81.885 89.887 82.071 90.409 82.071 91.093V94H81.261V91.21C81.261 90.718 81.138 90.343 80.892 90.085C80.646 89.821 80.31 89.689 79.884 89.689C79.452 89.689 79.107 89.824 78.849 90.094C78.597 90.364 78.471 90.757 78.471 91.273V94H77.652V89.068H78.471V89.77C78.633 89.518 78.852 89.323 79.128 89.185C79.41 89.047 79.719 88.978 80.055 88.978ZM87.7828 89.068V94H86.9638V93.271C86.8078 93.523 86.5888 93.721 86.3068 93.865C86.0308 94.003 85.7248 94.072 85.3888 94.072C85.0048 94.072 84.6598 93.994 84.3538 93.838C84.0478 93.676 83.8048 93.436 83.6248 93.118C83.4508 92.8 83.3638 92.413 83.3638 91.957V89.068H84.1738V91.849C84.1738 92.335 84.2968 92.71 84.5428 92.974C84.7888 93.232 85.1248 93.361 85.5508 93.361C85.9888 93.361 86.3338 93.226 86.5858 92.956C86.8378 92.686 86.9638 92.293 86.9638 91.777V89.068H87.7828ZM93.6657 91.345C93.6657 91.501 93.6567 91.666 93.6387 91.84H89.6967C89.7267 92.326 89.8917 92.707 90.1917 92.983C90.4977 93.253 90.8667 93.388 91.2987 93.388C91.6527 93.388 91.9467 93.307 92.1807 93.145C92.4207 92.977 92.5887 92.755 92.6847 92.479H93.5667C93.4347 92.953 93.1707 93.34 92.7747 93.64C92.3787 93.934 91.8867 94.081 91.2987 94.081C90.8307 94.081 90.4107 93.976 90.0387 93.766C89.6727 93.556 89.3847 93.259 89.1747 92.875C88.9647 92.485 88.8597 92.035 88.8597 91.525C88.8597 91.015 88.9617 90.568 89.1657 90.184C89.3697 89.8 89.6547 89.506 90.0207 89.302C90.3927 89.092 90.8187 88.987 91.2987 88.987C91.7667 88.987 92.1807 89.089 92.5407 89.293C92.9007 89.497 93.1767 89.779 93.3687 90.139C93.5667 90.493 93.6657 90.895 93.6657 91.345ZM92.8197 91.174C92.8197 90.862 92.7507 90.595 92.6127 90.373C92.4747 90.145 92.2857 89.974 92.0457 89.86C91.8117 89.74 91.5507 89.68 91.2627 89.68C90.8487 89.68 90.4947 89.812 90.2007 90.076C89.9127 90.34 89.7477 90.706 89.7057 91.174H92.8197ZM103.716 89.068L102.177 94H101.331L100.143 90.085L98.9551 94H98.1091L96.5611 89.068H97.3981L98.5321 93.208L99.7561 89.068H100.593L101.79 93.217L102.906 89.068H103.716ZM104.952 88.267C104.796 88.267 104.664 88.213 104.556 88.105C104.448 87.997 104.394 87.865 104.394 87.709C104.394 87.553 104.448 87.421 104.556 87.313C104.664 87.205 104.796 87.151 104.952 87.151C105.102 87.151 105.228 87.205 105.33 87.313C105.438 87.421 105.492 87.553 105.492 87.709C105.492 87.865 105.438 87.997 105.33 88.105C105.228 88.213 105.102 88.267 104.952 88.267ZM105.348 89.068V94H104.529V89.068H105.348ZM107.743 89.743V92.65C107.743 92.89 107.794 93.061 107.896 93.163C107.998 93.259 108.175 93.307 108.427 93.307H109.03V94H108.292C107.836 94 107.494 93.895 107.266 93.685C107.038 93.475 106.924 93.13 106.924 92.65V89.743H106.285V89.068H106.924V87.826H107.743V89.068H109.03V89.743H107.743ZM112.47 88.978C112.842 88.978 113.178 89.059 113.478 89.221C113.778 89.377 114.012 89.614 114.18 89.932C114.354 90.25 114.441 90.637 114.441 91.093V94H113.631V91.21C113.631 90.718 113.508 90.343 113.262 90.085C113.016 89.821 112.68 89.689 112.254 89.689C111.822 89.689 111.477 89.824 111.219 90.094C110.967 90.364 110.841 90.757 110.841 91.273V94H110.022V87.34H110.841V89.77C111.003 89.518 111.225 89.323 111.507 89.185C111.795 89.047 112.116 88.978 112.47 88.978ZM122.201 87.745V88.582H120.536V94H119.51V88.582H117.836V87.745H122.201ZM129.9 89.041L128.361 94H127.281L126.282 90.337L125.283 94H124.203L122.655 89.041H123.699L124.734 93.028L125.787 89.041H126.858L127.866 93.01L128.892 89.041H129.9ZM131.189 88.384C131.003 88.384 130.847 88.321 130.721 88.195C130.595 88.069 130.532 87.913 130.532 87.727C130.532 87.541 130.595 87.385 130.721 87.259C130.847 87.133 131.003 87.07 131.189 87.07C131.369 87.07 131.522 87.133 131.648 87.259C131.774 87.385 131.837 87.541 131.837 87.727C131.837 87.913 131.774 88.069 131.648 88.195C131.522 88.321 131.369 88.384 131.189 88.384ZM131.693 89.041V94H130.667V89.041H131.693ZM134.237 89.878V92.623C134.237 92.809 134.279 92.944 134.363 93.028C134.453 93.106 134.603 93.145 134.813 93.145H135.443V94H134.633C134.171 94 133.817 93.892 133.571 93.676C133.325 93.46 133.202 93.109 133.202 92.623V89.878H132.617V89.041H133.202V87.808H134.237V89.041H135.443V89.878H134.237ZM137.586 89.878V92.623C137.586 92.809 137.628 92.944 137.712 93.028C137.802 93.106 137.952 93.145 138.162 93.145H138.792V94H137.982C137.52 94 137.166 93.892 136.92 93.676C136.674 93.46 136.551 93.109 136.551 92.623V89.878H135.966V89.041H136.551V87.808H137.586V89.041H138.792V89.878H137.586ZM144.283 91.399C144.283 91.585 144.271 91.753 144.247 91.903H140.458C140.488 92.299 140.635 92.617 140.899 92.857C141.163 93.097 141.487 93.217 141.871 93.217C142.423 93.217 142.813 92.986 143.041 92.524H144.147C143.998 92.98 143.725 93.355 143.329 93.649C142.939 93.937 142.453 94.081 141.871 94.081C141.397 94.081 140.971 93.976 140.593 93.766C140.221 93.55 139.927 93.25 139.711 92.866C139.501 92.476 139.396 92.026 139.396 91.516C139.396 91.006 139.498 90.559 139.702 90.175C139.912 89.785 140.203 89.485 140.575 89.275C140.953 89.065 141.385 88.96 141.871 88.96C142.339 88.96 142.756 89.062 143.122 89.266C143.488 89.47 143.773 89.758 143.977 90.13C144.181 90.496 144.283 90.919 144.283 91.399ZM143.212 91.075C143.206 90.697 143.071 90.394 142.807 90.166C142.543 89.938 142.216 89.824 141.826 89.824C141.472 89.824 141.169 89.938 140.917 90.166C140.665 90.388 140.515 90.691 140.467 91.075H143.212ZM146.318 89.761C146.468 89.509 146.666 89.314 146.912 89.176C147.164 89.032 147.461 88.96 147.803 88.96V90.022H147.542C147.14 90.022 146.834 90.124 146.624 90.328C146.42 90.532 146.318 90.886 146.318 91.39V94H145.292V89.041H146.318V89.761Z" fill="white"/>
<g clip-path="url(#clip0_1446_90)">
<mask id="mask0_1446_90" style="mask-type:luminance" maskUnits="userSpaceOnUse" x="12" y="84" width="13" height="13">
<path d="M25 84H12V97H25V84Z" fill="white"/>
</mask>
<g mask="url(#mask0_1446_90)">
<path d="M19.1416 89.0786L23.6089 84H22.5503L18.6714 88.4097L15.5733 84H12L16.6849 90.6682L12 95.9938H13.0587L17.1549 91.3371L20.4267 95.9938H24L19.1414 89.0786H19.1416ZM17.6916 90.7269L17.217 90.0629L13.4401 84.7794H15.0661L18.1141 89.0434L18.5888 89.7074L22.5508 95.2499H20.9248L17.6916 90.7272V90.7269Z" fill="white"/>
</g>
</g>
<rect x="0.5" y="38.5" width="195" height="28" rx="3.5" fill="white" stroke="#E8E8E8"/>
<path d="M53.387 52.859C53.387 52.247 53.525 51.698 53.801 51.212C54.077 50.72 54.452 50.336 54.926 50.06C55.406 49.784 55.937 49.646 56.519 49.646C57.203 49.646 57.8 49.811 58.31 50.141C58.82 50.471 59.192 50.939 59.426 51.545H58.445C58.271 51.167 58.019 50.876 57.689 50.672C57.365 50.468 56.975 50.366 56.519 50.366C56.081 50.366 55.688 50.468 55.34 50.672C54.992 50.876 54.719 51.167 54.521 51.545C54.323 51.917 54.224 52.355 54.224 52.859C54.224 53.357 54.323 53.795 54.521 54.173C54.719 54.545 54.992 54.833 55.34 55.037C55.688 55.241 56.081 55.343 56.519 55.343C56.975 55.343 57.365 55.244 57.689 55.046C58.019 54.842 58.271 54.551 58.445 54.173H59.426C59.192 54.773 58.82 55.238 58.31 55.568C57.8 55.892 57.203 56.054 56.519 56.054C55.937 56.054 55.406 55.919 54.926 55.649C54.452 55.373 54.077 54.992 53.801 54.506C53.525 54.02 53.387 53.471 53.387 52.859ZM62.7961 56.081C62.3341 56.081 61.9141 55.976 61.5361 55.766C61.1641 55.556 60.8701 55.259 60.6541 54.875C60.4441 54.485 60.3391 54.035 60.3391 53.525C60.3391 53.021 60.4471 52.577 60.6631 52.193C60.8851 51.803 61.1851 51.506 61.5631 51.302C61.9411 51.092 62.3641 50.987 62.8321 50.987C63.3001 50.987 63.7231 51.092 64.1011 51.302C64.4791 51.506 64.7761 51.8 64.9921 52.184C65.2141 52.568 65.3251 53.015 65.3251 53.525C65.3251 54.035 65.2111 54.485 64.9831 54.875C64.7611 55.259 64.4581 55.556 64.0741 55.766C63.6901 55.976 63.2641 56.081 62.7961 56.081ZM62.7961 55.361C63.0901 55.361 63.3661 55.292 63.6241 55.154C63.8821 55.016 64.0891 54.809 64.2451 54.533C64.4071 54.257 64.4881 53.921 64.4881 53.525C64.4881 53.129 64.4101 52.793 64.2541 52.517C64.0981 52.241 63.8941 52.037 63.6421 51.905C63.3901 51.767 63.1171 51.698 62.8231 51.698C62.5231 51.698 62.2471 51.767 61.9951 51.905C61.7491 52.037 61.5511 52.241 61.4011 52.517C61.2511 52.793 61.1761 53.129 61.1761 53.525C61.1761 53.927 61.2481 54.266 61.3921 54.542C61.5421 54.818 61.7401 55.025 61.9861 55.163C62.2321 55.295 62.5021 55.361 62.7961 55.361ZM68.805 50.978C69.405 50.978 69.891 51.161 70.263 51.527C70.635 51.887 70.821 52.409 70.821 53.093V56H70.011V53.21C70.011 52.718 69.888 52.343 69.642 52.085C69.396 51.821 69.06 51.689 68.634 51.689C68.202 51.689 67.857 51.824 67.599 52.094C67.347 52.364 67.221 52.757 67.221 53.273V56H66.402V51.068H67.221V51.77C67.383 51.518 67.602 51.323 67.878 51.185C68.16 51.047 68.469 50.978 68.805 50.978ZM73.1578 51.743V54.65C73.1578 54.89 73.2088 55.061 73.3108 55.163C73.4128 55.259 73.5898 55.307 73.8418 55.307H74.4448V56H73.7068C73.2508 56 72.9088 55.895 72.6808 55.685C72.4528 55.475 72.3388 55.13 72.3388 54.65V51.743H71.6998V51.068H72.3388V49.826H73.1578V51.068H74.4448V51.743H73.1578ZM75.8601 50.267C75.7041 50.267 75.5721 50.213 75.4641 50.105C75.3561 49.997 75.3021 49.865 75.3021 49.709C75.3021 49.553 75.3561 49.421 75.4641 49.313C75.5721 49.205 75.7041 49.151 75.8601 49.151C76.0101 49.151 76.1361 49.205 76.2381 49.313C76.3461 49.421 76.4001 49.553 76.4001 49.709C76.4001 49.865 76.3461 49.997 76.2381 50.105C76.1361 50.213 76.0101 50.267 75.8601 50.267ZM76.2561 51.068V56H75.4371V51.068H76.2561ZM80.055 50.978C80.655 50.978 81.141 51.161 81.513 51.527C81.885 51.887 82.071 52.409 82.071 53.093V56H81.261V53.21C81.261 52.718 81.138 52.343 80.892 52.085C80.646 51.821 80.31 51.689 79.884 51.689C79.452 51.689 79.107 51.824 78.849 52.094C78.597 52.364 78.471 52.757 78.471 53.273V56H77.652V51.068H78.471V51.77C78.633 51.518 78.852 51.323 79.128 51.185C79.41 51.047 79.719 50.978 80.055 50.978ZM87.7828 51.068V56H86.9638V55.271C86.8078 55.523 86.5888 55.721 86.3068 55.865C86.0308 56.003 85.7248 56.072 85.3888 56.072C85.0048 56.072 84.6598 55.994 84.3538 55.838C84.0478 55.676 83.8048 55.436 83.6248 55.118C83.4508 54.8 83.3638 54.413 83.3638 53.957V51.068H84.1738V53.849C84.1738 54.335 84.2968 54.71 84.5428 54.974C84.7888 55.232 85.1248 55.361 85.5508 55.361C85.9888 55.361 86.3338 55.226 86.5858 54.956C86.8378 54.686 86.9638 54.293 86.9638 53.777V51.068H87.7828ZM93.6657 53.345C93.6657 53.501 93.6567 53.666 93.6387 53.84H89.6967C89.7267 54.326 89.8917 54.707 90.1917 54.983C90.4977 55.253 90.8667 55.388 91.2987 55.388C91.6527 55.388 91.9467 55.307 92.1807 55.145C92.4207 54.977 92.5887 54.755 92.6847 54.479H93.5667C93.4347 54.953 93.1707 55.34 92.7747 55.64C92.3787 55.934 91.8867 56.081 91.2987 56.081C90.8307 56.081 90.4107 55.976 90.0387 55.766C89.6727 55.556 89.3847 55.259 89.1747 54.875C88.9647 54.485 88.8597 54.035 88.8597 53.525C88.8597 53.015 88.9617 52.568 89.1657 52.184C89.3697 51.8 89.6547 51.506 90.0207 51.302C90.3927 51.092 90.8187 50.987 91.2987 50.987C91.7667 50.987 92.1807 51.089 92.5407 51.293C92.9007 51.497 93.1767 51.779 93.3687 52.139C93.5667 52.493 93.6657 52.895 93.6657 53.345ZM92.8197 53.174C92.8197 52.862 92.7507 52.595 92.6127 52.373C92.4747 52.145 92.2857 51.974 92.0457 51.86C91.8117 51.74 91.5507 51.68 91.2627 51.68C90.8487 51.68 90.4947 51.812 90.2007 52.076C89.9127 52.34 89.7477 52.706 89.7057 53.174H92.8197ZM103.716 51.068L102.177 56H101.331L100.143 52.085L98.9551 56H98.1091L96.5611 51.068H97.3981L98.5321 55.208L99.7561 51.068H100.593L101.79 55.217L102.906 51.068H103.716ZM104.952 50.267C104.796 50.267 104.664 50.213 104.556 50.105C104.448 49.997 104.394 49.865 104.394 49.709C104.394 49.553 104.448 49.421 104.556 49.313C104.664 49.205 104.796 49.151 104.952 49.151C105.102 49.151 105.228 49.205 105.33 49.313C105.438 49.421 105.492 49.553 105.492 49.709C105.492 49.865 105.438 49.997 105.33 50.105C105.228 50.213 105.102 50.267 104.952 50.267ZM105.348 51.068V56H104.529V51.068H105.348ZM107.743 51.743V54.65C107.743 54.89 107.794 55.061 107.896 55.163C107.998 55.259 108.175 55.307 108.427 55.307H109.03V56H108.292C107.836 56 107.494 55.895 107.266 55.685C107.038 55.475 106.924 55.13 106.924 54.65V51.743H106.285V51.068H106.924V49.826H107.743V51.068H109.03V51.743H107.743ZM112.47 50.978C112.842 50.978 113.178 51.059 113.478 51.221C113.778 51.377 114.012 51.614 114.18 51.932C114.354 52.25 114.441 52.637 114.441 53.093V56H113.631V53.21C113.631 52.718 113.508 52.343 113.262 52.085C113.016 51.821 112.68 51.689 112.254 51.689C111.822 51.689 111.477 51.824 111.219 52.094C110.967 52.364 110.841 52.757 110.841 53.273V56H110.022V49.34H110.841V51.77C111.003 51.518 111.225 51.323 111.507 51.185C111.795 51.047 112.116 50.978 112.47 50.978ZM122.687 51.545C122.525 51.233 122.3 50.999 122.012 50.843C121.724 50.681 121.391 50.6 121.013 50.6C120.599 50.6 120.23 50.693 119.906 50.879C119.582 51.065 119.327 51.329 119.141 51.671C118.961 52.013 118.871 52.409 118.871 52.859C118.871 53.309 118.961 53.708 119.141 54.056C119.327 54.398 119.582 54.662 119.906 54.848C120.23 55.034 120.599 55.127 121.013 55.127C121.571 55.127 122.024 54.971 122.372 54.659C122.72 54.347 122.933 53.924 123.011 53.39H120.662V52.571H124.109V53.372C124.043 53.858 123.869 54.305 123.587 54.713C123.311 55.121 122.948 55.448 122.498 55.694C122.054 55.934 121.559 56.054 121.013 56.054C120.425 56.054 119.888 55.919 119.402 55.649C118.916 55.373 118.529 54.992 118.241 54.506C117.959 54.02 117.818 53.471 117.818 52.859C117.818 52.247 117.959 51.698 118.241 51.212C118.529 50.726 118.916 50.348 119.402 50.078C119.894 49.802 120.431 49.664 121.013 49.664C121.679 49.664 122.27 49.829 122.786 50.159C123.308 50.483 123.686 50.945 123.92 51.545H122.687ZM127.272 56.081C126.804 56.081 126.381 55.976 126.003 55.766C125.625 55.55 125.328 55.25 125.112 54.866C124.896 54.476 124.788 54.026 124.788 53.516C124.788 53.012 124.899 52.565 125.121 52.175C125.343 51.785 125.646 51.485 126.03 51.275C126.414 51.065 126.843 50.96 127.317 50.96C127.791 50.96 128.22 51.065 128.604 51.275C128.988 51.485 129.291 51.785 129.513 52.175C129.735 52.565 129.846 53.012 129.846 53.516C129.846 54.02 129.732 54.467 129.504 54.857C129.276 55.247 128.964 55.55 128.568 55.766C128.178 55.976 127.746 56.081 127.272 56.081ZM127.272 55.19C127.536 55.19 127.782 55.127 128.01 55.001C128.244 54.875 128.433 54.686 128.577 54.434C128.721 54.182 128.793 53.876 128.793 53.516C128.793 53.156 128.724 52.853 128.586 52.607C128.448 52.355 128.265 52.166 128.037 52.04C127.809 51.914 127.563 51.851 127.299 51.851C127.035 51.851 126.789 51.914 126.561 52.04C126.339 52.166 126.162 52.355 126.03 52.607C125.898 52.853 125.832 53.156 125.832 53.516C125.832 54.05 125.967 54.464 126.237 54.758C126.513 55.046 126.858 55.19 127.272 55.19ZM133.012 56.081C132.544 56.081 132.121 55.976 131.743 55.766C131.365 55.55 131.068 55.25 130.852 54.866C130.636 54.476 130.528 54.026 130.528 53.516C130.528 53.012 130.639 52.565 130.861 52.175C131.083 51.785 131.386 51.485 131.77 51.275C132.154 51.065 132.583 50.96 133.057 50.96C133.531 50.96 133.96 51.065 134.344 51.275C134.728 51.485 135.031 51.785 135.253 52.175C135.475 52.565 135.586 53.012 135.586 53.516C135.586 54.02 135.472 54.467 135.244 54.857C135.016 55.247 134.704 55.55 134.308 55.766C133.918 55.976 133.486 56.081 133.012 56.081ZM133.012 55.19C133.276 55.19 133.522 55.127 133.75 55.001C133.984 54.875 134.173 54.686 134.317 54.434C134.461 54.182 134.533 53.876 134.533 53.516C134.533 53.156 134.464 52.853 134.326 52.607C134.188 52.355 134.005 52.166 133.777 52.04C133.549 51.914 133.303 51.851 133.039 51.851C132.775 51.851 132.529 51.914 132.301 52.04C132.079 52.166 131.902 52.355 131.77 52.607C131.638 52.853 131.572 53.156 131.572 53.516C131.572 54.05 131.707 54.464 131.977 54.758C132.253 55.046 132.598 55.19 133.012 55.19ZM138.598 50.96C138.982 50.96 139.321 51.038 139.615 51.194C139.915 51.344 140.149 51.533 140.317 51.761V51.041H141.352V56.081C141.352 56.537 141.256 56.942 141.064 57.296C140.872 57.656 140.593 57.938 140.227 58.142C139.867 58.346 139.435 58.448 138.931 58.448C138.259 58.448 137.701 58.289 137.257 57.971C136.813 57.659 136.561 57.233 136.501 56.693H137.518C137.596 56.951 137.761 57.158 138.013 57.314C138.271 57.476 138.577 57.557 138.931 57.557C139.345 57.557 139.678 57.431 139.93 57.179C140.188 56.927 140.317 56.561 140.317 56.081V55.253C140.143 55.487 139.906 55.685 139.606 55.847C139.312 56.003 138.976 56.081 138.598 56.081C138.166 56.081 137.77 55.973 137.41 55.757C137.056 55.535 136.774 55.229 136.564 54.839C136.36 54.443 136.258 53.996 136.258 53.498C136.258 53 136.36 52.559 136.564 52.175C136.774 51.791 137.056 51.494 137.41 51.284C137.77 51.068 138.166 50.96 138.598 50.96ZM140.317 53.516C140.317 53.174 140.245 52.877 140.101 52.625C139.963 52.373 139.78 52.181 139.552 52.049C139.324 51.917 139.078 51.851 138.814 51.851C138.55 51.851 138.304 51.917 138.076 52.049C137.848 52.175 137.662 52.364 137.518 52.616C137.38 52.862 137.311 53.156 137.311 53.498C137.311 53.84 137.38 54.14 137.518 54.398C137.662 54.656 137.848 54.854 138.076 54.992C138.31 55.124 138.556 55.19 138.814 55.19C139.078 55.19 139.324 55.124 139.552 54.992C139.78 54.86 139.963 54.668 140.101 54.416C140.245 54.158 140.317 53.858 140.317 53.516ZM143.725 49.34V56H142.699V49.34H143.725ZM149.617 53.399C149.617 53.585 149.605 53.753 149.581 53.903H145.792C145.822 54.299 145.969 54.617 146.233 54.857C146.497 55.097 146.821 55.217 147.205 55.217C147.757 55.217 148.147 54.986 148.375 54.524H149.482C149.332 54.98 149.059 55.355 148.663 55.649C148.273 55.937 147.787 56.081 147.205 56.081C146.731 56.081 146.305 55.976 145.927 55.766C145.555 55.55 145.261 55.25 145.045 54.866C144.835 54.476 144.73 54.026 144.73 53.516C144.73 53.006 144.832 52.559 145.036 52.175C145.246 51.785 145.537 51.485 145.909 51.275C146.287 51.065 146.719 50.96 147.205 50.96C147.673 50.96 148.09 51.062 148.456 51.266C148.822 51.47 149.107 51.758 149.311 52.13C149.515 52.496 149.617 52.919 149.617 53.399ZM148.546 53.075C148.54 52.697 148.405 52.394 148.141 52.166C147.877 51.938 147.55 51.824 147.16 51.824C146.806 51.824 146.503 51.938 146.251 52.166C145.999 52.388 145.849 52.691 145.801 53.075H148.546Z" fill="#2B3D54"/>
<g clip-path="url(#clip1_1446_90)">
<path fill-rule="evenodd" clip-rule="evenodd" d="M15.0161 52.9994C15.0161 52.5448 15.0916 52.1088 15.2265 51.7L12.8673 49.8984C12.4074 50.832 12.1484 51.8839 12.1484 52.9994C12.1484 54.1141 12.4072 55.1653 12.8663 56.0982L15.2242 54.2932C15.0906 53.8863 15.0161 53.4519 15.0161 52.9994Z" fill="#FBBC05"/>
<path fill-rule="evenodd" clip-rule="evenodd" d="M19.1583 48.8637C20.1461 48.8637 21.0383 49.2137 21.7392 49.7863L23.7784 47.75C22.5358 46.6682 20.9427 46 19.1583 46C16.3881 46 14.0072 47.5842 12.8672 49.899L15.2263 51.7005C15.7699 50.0505 17.3194 48.8637 19.1583 48.8637Z" fill="#EA4335"/>
<path fill-rule="evenodd" clip-rule="evenodd" d="M19.1583 57.1357C17.3195 57.1357 15.77 55.9489 15.2264 54.2988L12.8672 56.1C14.0072 58.4152 16.3881 59.9993 19.1583 59.9993C20.8681 59.9993 22.5005 59.3922 23.7256 58.2547L21.4863 56.5235C20.8544 56.9215 20.0587 57.1357 19.1583 57.1357Z" fill="#34A853"/>
<path fill-rule="evenodd" clip-rule="evenodd" d="M25.8514 52.9993C25.8514 52.5856 25.7876 52.1401 25.692 51.7266H19.1602V54.4311H22.92C22.732 55.3532 22.2204 56.0621 21.4881 56.5234L23.7274 58.2546C25.0143 57.0602 25.8514 55.2809 25.8514 52.9993Z" fill="#4285F4"/>
</g>
<rect width="196" height="29" rx="4" fill="#0866FF"/>
<path d="M53.387 14.859C53.387 14.247 53.525 13.698 53.801 13.212C54.077 12.72 54.452 12.336 54.926 12.06C55.406 11.784 55.937 11.646 56.519 11.646C57.203 11.646 57.8 11.811 58.31 12.141C58.82 12.471 59.192 12.939 59.426 13.545H58.445C58.271 13.167 58.019 12.876 57.689 12.672C57.365 12.468 56.975 12.366 56.519 12.366C56.081 12.366 55.688 12.468 55.34 12.672C54.992 12.876 54.719 13.167 54.521 13.545C54.323 13.917 54.224 14.355 54.224 14.859C54.224 15.357 54.323 15.795 54.521 16.173C54.719 16.545 54.992 16.833 55.34 17.037C55.688 17.241 56.081 17.343 56.519 17.343C56.975 17.343 57.365 17.244 57.689 17.046C58.019 16.842 58.271 16.551 58.445 16.173H59.426C59.192 16.773 58.82 17.238 58.31 17.568C57.8 17.892 57.203 18.054 56.519 18.054C55.937 18.054 55.406 17.919 54.926 17.649C54.452 17.373 54.077 16.992 53.801 16.506C53.525 16.02 53.387 15.471 53.387 14.859ZM62.7961 18.081C62.3341 18.081 61.9141 17.976 61.5361 17.766C61.1641 17.556 60.8701 17.259 60.6541 16.875C60.4441 16.485 60.3391 16.035 60.3391 15.525C60.3391 15.021 60.4471 14.577 60.6631 14.193C60.8851 13.803 61.1851 13.506 61.5631 13.302C61.9411 13.092 62.3641 12.987 62.8321 12.987C63.3001 12.987 63.7231 13.092 64.1011 13.302C64.4791 13.506 64.7761 13.8 64.9921 14.184C65.2141 14.568 65.3251 15.015 65.3251 15.525C65.3251 16.035 65.2111 16.485 64.9831 16.875C64.7611 17.259 64.4581 17.556 64.0741 17.766C63.6901 17.976 63.2641 18.081 62.7961 18.081ZM62.7961 17.361C63.0901 17.361 63.3661 17.292 63.6241 17.154C63.8821 17.016 64.0891 16.809 64.2451 16.533C64.4071 16.257 64.4881 15.921 64.4881 15.525C64.4881 15.129 64.4101 14.793 64.2541 14.517C64.0981 14.241 63.8941 14.037 63.6421 13.905C63.3901 13.767 63.1171 13.698 62.8231 13.698C62.5231 13.698 62.2471 13.767 61.9951 13.905C61.7491 14.037 61.5511 14.241 61.4011 14.517C61.2511 14.793 61.1761 15.129 61.1761 15.525C61.1761 15.927 61.2481 16.266 61.3921 16.542C61.5421 16.818 61.7401 17.025 61.9861 17.163C62.2321 17.295 62.5021 17.361 62.7961 17.361ZM68.805 12.978C69.405 12.978 69.891 13.161 70.263 13.527C70.635 13.887 70.821 14.409 70.821 15.093V18H70.011V15.21C70.011 14.718 69.888 14.343 69.642 14.085C69.396 13.821 69.06 13.689 68.634 13.689C68.202 13.689 67.857 13.824 67.599 14.094C67.347 14.364 67.221 14.757 67.221 15.273V18H66.402V13.068H67.221V13.77C67.383 13.518 67.602 13.323 67.878 13.185C68.16 13.047 68.469 12.978 68.805 12.978ZM73.1578 13.743V16.65C73.1578 16.89 73.2088 17.061 73.3108 17.163C73.4128 17.259 73.5898 17.307 73.8418 17.307H74.4448V18H73.7068C73.2508 18 72.9088 17.895 72.6808 17.685C72.4528 17.475 72.3388 17.13 72.3388 16.65V13.743H71.6998V13.068H72.3388V11.826H73.1578V13.068H74.4448V13.743H73.1578ZM75.8601 12.267C75.7041 12.267 75.5721 12.213 75.4641 12.105C75.3561 11.997 75.3021 11.865 75.3021 11.709C75.3021 11.553 75.3561 11.421 75.4641 11.313C75.5721 11.205 75.7041 11.151 75.8601 11.151C76.0101 11.151 76.1361 11.205 76.2381 11.313C76.3461 11.421 76.4001 11.553 76.4001 11.709C76.4001 11.865 76.3461 11.997 76.2381 12.105C76.1361 12.213 76.0101 12.267 75.8601 12.267ZM76.2561 13.068V18H75.4371V13.068H76.2561ZM80.055 12.978C80.655 12.978 81.141 13.161 81.513 13.527C81.885 13.887 82.071 14.409 82.071 15.093V18H81.261V15.21C81.261 14.718 81.138 14.343 80.892 14.085C80.646 13.821 80.31 13.689 79.884 13.689C79.452 13.689 79.107 13.824 78.849 14.094C78.597 14.364 78.471 14.757 78.471 15.273V18H77.652V13.068H78.471V13.77C78.633 13.518 78.852 13.323 79.128 13.185C79.41 13.047 79.719 12.978 80.055 12.978ZM87.7828 13.068V18H86.9638V17.271C86.8078 17.523 86.5888 17.721 86.3068 17.865C86.0308 18.003 85.7248 18.072 85.3888 18.072C85.0048 18.072 84.6598 17.994 84.3538 17.838C84.0478 17.676 83.8048 17.436 83.6248 17.118C83.4508 16.8 83.3638 16.413 83.3638 15.957V13.068H84.1738V15.849C84.1738 16.335 84.2968 16.71 84.5428 16.974C84.7888 17.232 85.1248 17.361 85.5508 17.361C85.9888 17.361 86.3338 17.226 86.5858 16.956C86.8378 16.686 86.9638 16.293 86.9638 15.777V13.068H87.7828ZM93.6657 15.345C93.6657 15.501 93.6567 15.666 93.6387 15.84H89.6967C89.7267 16.326 89.8917 16.707 90.1917 16.983C90.4977 17.253 90.8667 17.388 91.2987 17.388C91.6527 17.388 91.9467 17.307 92.1807 17.145C92.4207 16.977 92.5887 16.755 92.6847 16.479H93.5667C93.4347 16.953 93.1707 17.34 92.7747 17.64C92.3787 17.934 91.8867 18.081 91.2987 18.081C90.8307 18.081 90.4107 17.976 90.0387 17.766C89.6727 17.556 89.3847 17.259 89.1747 16.875C88.9647 16.485 88.8597 16.035 88.8597 15.525C88.8597 15.015 88.9617 14.568 89.1657 14.184C89.3697 13.8 89.6547 13.506 90.0207 13.302C90.3927 13.092 90.8187 12.987 91.2987 12.987C91.7667 12.987 92.1807 13.089 92.5407 13.293C92.9007 13.497 93.1767 13.779 93.3687 14.139C93.5667 14.493 93.6657 14.895 93.6657 15.345ZM92.8197 15.174C92.8197 14.862 92.7507 14.595 92.6127 14.373C92.4747 14.145 92.2857 13.974 92.0457 13.86C91.8117 13.74 91.5507 13.68 91.2627 13.68C90.8487 13.68 90.4947 13.812 90.2007 14.076C89.9127 14.34 89.7477 14.706 89.7057 15.174H92.8197ZM103.716 13.068L102.177 18H101.331L100.143 14.085L98.9551 18H98.1091L96.5611 13.068H97.3981L98.5321 17.208L99.7561 13.068H100.593L101.79 17.217L102.906 13.068H103.716ZM104.952 12.267C104.796 12.267 104.664 12.213 104.556 12.105C104.448 11.997 104.394 11.865 104.394 11.709C104.394 11.553 104.448 11.421 104.556 11.313C104.664 11.205 104.796 11.151 104.952 11.151C105.102 11.151 105.228 11.205 105.33 11.313C105.438 11.421 105.492 11.553 105.492 11.709C105.492 11.865 105.438 11.997 105.33 12.105C105.228 12.213 105.102 12.267 104.952 12.267ZM105.348 13.068V18H104.529V13.068H105.348ZM107.743 13.743V16.65C107.743 16.89 107.794 17.061 107.896 17.163C107.998 17.259 108.175 17.307 108.427 17.307H109.03V18H108.292C107.836 18 107.494 17.895 107.266 17.685C107.038 17.475 106.924 17.13 106.924 16.65V13.743H106.285V13.068H106.924V11.826H107.743V13.068H109.03V13.743H107.743ZM112.47 12.978C112.842 12.978 113.178 13.059 113.478 13.221C113.778 13.377 114.012 13.614 114.18 13.932C114.354 14.25 114.441 14.637 114.441 15.093V18H113.631V15.21C113.631 14.718 113.508 14.343 113.262 14.085C113.016 13.821 112.68 13.689 112.254 13.689C111.822 13.689 111.477 13.824 111.219 14.094C110.967 14.364 110.841 14.757 110.841 15.273V18H110.022V11.34H110.841V13.77C111.003 13.518 111.225 13.323 111.507 13.185C111.795 13.047 112.116 12.978 112.47 12.978ZM121.841 11.745V12.582H119.186V14.427H121.256V15.264H119.186V18H118.16V11.745H121.841ZM122.45 15.498C122.45 15 122.552 14.559 122.756 14.175C122.966 13.791 123.248 13.494 123.602 13.284C123.962 13.068 124.358 12.96 124.79 12.96C125.18 12.96 125.519 13.038 125.807 13.194C126.101 13.344 126.335 13.533 126.509 13.761V13.041H127.544V18H126.509V17.262C126.335 17.496 126.098 17.691 125.798 17.847C125.498 18.003 125.156 18.081 124.772 18.081C124.346 18.081 123.956 17.973 123.602 17.757C123.248 17.535 122.966 17.229 122.756 16.839C122.552 16.443 122.45 15.996 122.45 15.498ZM126.509 15.516C126.509 15.174 126.437 14.877 126.293 14.625C126.155 14.373 125.972 14.181 125.744 14.049C125.516 13.917 125.27 13.851 125.006 13.851C124.742 13.851 124.496 13.917 124.268 14.049C124.04 14.175 123.854 14.364 123.71 14.616C123.572 14.862 123.503 15.156 123.503 15.498C123.503 15.84 123.572 16.14 123.71 16.398C123.854 16.656 124.04 16.854 124.268 16.992C124.502 17.124 124.748 17.19 125.006 17.19C125.27 17.19 125.516 17.124 125.744 16.992C125.972 16.86 126.155 16.668 126.293 16.416C126.437 16.158 126.509 15.858 126.509 15.516ZM128.55 15.516C128.55 15.006 128.652 14.559 128.856 14.175C129.066 13.785 129.354 13.485 129.72 13.275C130.086 13.065 130.506 12.96 130.98 12.96C131.58 12.96 132.075 13.104 132.465 13.392C132.861 13.674 133.128 14.079 133.266 14.607H132.159C132.069 14.361 131.925 14.169 131.727 14.031C131.529 13.893 131.28 13.824 130.98 13.824C130.56 13.824 130.224 13.974 129.972 14.274C129.726 14.568 129.603 14.982 129.603 15.516C129.603 16.05 129.726 16.467 129.972 16.767C130.224 17.067 130.56 17.217 130.98 17.217C131.574 17.217 131.967 16.956 132.159 16.434H133.266C133.122 16.938 132.852 17.34 132.456 17.64C132.06 17.934 131.568 18.081 130.98 18.081C130.506 18.081 130.086 17.976 129.72 17.766C129.354 17.55 129.066 17.25 128.856 16.866C128.652 16.476 128.55 16.026 128.55 15.516ZM138.833 15.399C138.833 15.585 138.821 15.753 138.797 15.903H135.008C135.038 16.299 135.185 16.617 135.449 16.857C135.713 17.097 136.037 17.217 136.421 17.217C136.973 17.217 137.363 16.986 137.591 16.524H138.698C138.548 16.98 138.275 17.355 137.879 17.649C137.489 17.937 137.003 18.081 136.421 18.081C135.947 18.081 135.521 17.976 135.143 17.766C134.771 17.55 134.477 17.25 134.261 16.866C134.051 16.476 133.946 16.026 133.946 15.516C133.946 15.006 134.048 14.559 134.252 14.175C134.462 13.785 134.753 13.485 135.125 13.275C135.503 13.065 135.935 12.96 136.421 12.96C136.889 12.96 137.306 13.062 137.672 13.266C138.038 13.47 138.323 13.758 138.527 14.13C138.731 14.496 138.833 14.919 138.833 15.399ZM137.762 15.075C137.756 14.697 137.621 14.394 137.357 14.166C137.093 13.938 136.766 13.824 136.376 13.824C136.022 13.824 135.719 13.938 135.467 14.166C135.215 14.388 135.065 14.691 135.017 15.075H137.762ZM140.869 13.779C141.043 13.539 141.28 13.344 141.58 13.194C141.886 13.038 142.225 12.96 142.597 12.96C143.035 12.96 143.431 13.065 143.785 13.275C144.139 13.485 144.418 13.785 144.622 14.175C144.826 14.559 144.928 15 144.928 15.498C144.928 15.996 144.826 16.443 144.622 16.839C144.418 17.229 144.136 17.535 143.776 17.757C143.422 17.973 143.029 18.081 142.597 18.081C142.213 18.081 141.871 18.006 141.571 17.856C141.277 17.706 141.043 17.514 140.869 17.28V18H139.843V11.34H140.869V13.779ZM143.884 15.498C143.884 15.156 143.812 14.862 143.668 14.616C143.53 14.364 143.344 14.175 143.11 14.049C142.882 13.917 142.636 13.851 142.372 13.851C142.114 13.851 141.868 13.917 141.634 14.049C141.406 14.181 141.22 14.373 141.076 14.625C140.938 14.877 140.869 15.174 140.869 15.516C140.869 15.858 140.938 16.158 141.076 16.416C141.22 16.668 141.406 16.86 141.634 16.992C141.868 17.124 142.114 17.19 142.372 17.19C142.636 17.19 142.882 17.124 143.11 16.992C143.344 16.854 143.53 16.656 143.668 16.398C143.812 16.14 143.884 15.84 143.884 15.498ZM148.094 18.081C147.626 18.081 147.203 17.976 146.825 17.766C146.447 17.55 146.15 17.25 145.934 16.866C145.718 16.476 145.61 16.026 145.61 15.516C145.61 15.012 145.721 14.565 145.943 14.175C146.165 13.785 146.468 13.485 146.852 13.275C147.236 13.065 147.665 12.96 148.139 12.96C148.613 12.96 149.042 13.065 149.426 13.275C149.81 13.485 150.113 13.785 150.335 14.175C150.557 14.565 150.668 15.012 150.668 15.516C150.668 16.02 150.554 16.467 150.326 16.857C150.098 17.247 149.786 17.55 149.39 17.766C149 17.976 148.568 18.081 148.094 18.081ZM148.094 17.19C148.358 17.19 148.604 17.127 148.832 17.001C149.066 16.875 149.255 16.686 149.399 16.434C149.543 16.182 149.615 15.876 149.615 15.516C149.615 15.156 149.546 14.853 149.408 14.607C149.27 14.355 149.087 14.166 148.859 14.04C148.631 13.914 148.385 13.851 148.121 13.851C147.857 13.851 147.611 13.914 147.383 14.04C147.161 14.166 146.984 14.355 146.852 14.607C146.72 14.853 146.654 15.156 146.654 15.516C146.654 16.05 146.789 16.464 147.059 16.758C147.335 17.046 147.68 17.19 148.094 17.19ZM153.833 18.081C153.365 18.081 152.942 17.976 152.564 17.766C152.186 17.55 151.889 17.25 151.673 16.866C151.457 16.476 151.349 16.026 151.349 15.516C151.349 15.012 151.46 14.565 151.682 14.175C151.904 13.785 152.207 13.485 152.591 13.275C152.975 13.065 153.404 12.96 153.878 12.96C154.352 12.96 154.781 13.065 155.165 13.275C155.549 13.485 155.852 13.785 156.074 14.175C156.296 14.565 156.407 15.012 156.407 15.516C156.407 16.02 156.293 16.467 156.065 16.857C155.837 17.247 155.525 17.55 155.129 17.766C154.739 17.976 154.307 18.081 153.833 18.081ZM153.833 17.19C154.097 17.19 154.343 17.127 154.571 17.001C154.805 16.875 154.994 16.686 155.138 16.434C155.282 16.182 155.354 15.876 155.354 15.516C155.354 15.156 155.285 14.853 155.147 14.607C155.009 14.355 154.826 14.166 154.598 14.04C154.37 13.914 154.124 13.851 153.86 13.851C153.596 13.851 153.35 13.914 153.122 14.04C152.9 14.166 152.723 14.355 152.591 14.607C152.459 14.853 152.393 15.156 152.393 15.516C152.393 16.05 152.528 16.464 152.798 16.758C153.074 17.046 153.419 17.19 153.833 17.19ZM159.383 15.525L161.669 18H160.283L158.447 15.867V18H157.421V11.34H158.447V15.21L160.247 13.041H161.669L159.383 15.525Z" fill="white"/>
<g clip-path="url(#clip2_1446_90)">
<path d="M26 14.043C26 10.177 22.866 7.04297 19 7.04297C15.134 7.04297 12 10.177 12 14.043C12 17.5369 14.5598 20.4328 17.9062 20.9579V16.0664H16.1289V14.043H17.9062V12.5008C17.9062 10.7464 18.9513 9.77734 20.5503 9.77734C21.3161 9.77734 22.1172 9.91406 22.1172 9.91406V11.6367H21.2345C20.3649 11.6367 20.0938 12.1763 20.0938 12.7299V14.043H22.0352L21.7248 16.0664H20.0938V20.9579C23.4402 20.4328 26 17.5369 26 14.043Z" fill="white"/>
</g>
<defs>
<clipPath id="clip0_1446_90">
<rect width="13" height="13" fill="white" transform="translate(12 84)"/>
</clipPath>
<clipPath id="clip1_1446_90">
<rect width="14" height="14" fill="white" transform="translate(12 46)"/>
</clipPath>
<clipPath id="clip2_1446_90">
<rect width="14" height="14" fill="white" transform="translate(12 7)"/>
</clipPath>
</defs>
</svg>
