<svg width="170" height="50" viewBox="0 0 170 50" fill="none" xmlns="http://www.w3.org/2000/svg">
<rect width="50" height="50" rx="8" fill="#0866FF"/>
<path d="M37 25.0733C37 18.4054 31.6274 13 25 13C18.3726 13 13 18.4054 13 25.0733C13 31.0995 17.3882 36.0943 23.125 37V28.5633H20.0781V25.0733H23.125V22.4134C23.125 19.3875 24.9165 17.7161 27.6576 17.7161C28.9705 17.7161 30.3438 17.952 30.3438 17.952V20.9231H28.8306C27.3399 20.9231 26.875 21.8538 26.875 22.8085V25.0733H30.2031L29.6711 28.5633H26.875V37C32.6118 36.0943 37 31.0995 37 25.0733Z" fill="white"/>
<rect x="60.5" y="0.5" width="49" height="49" rx="7.5" fill="white" stroke="#E8E8E8"/>
<path fill-rule="evenodd" clip-rule="evenodd" d="M78.1739 24.9996C78.1739 24.2202 78.3033 23.4728 78.5344 22.7719L74.4901 19.6836C73.7018 21.2839 73.2578 23.0873 73.2578 24.9996C73.2578 26.9104 73.7014 28.7125 74.4884 30.3118L78.5305 27.2175C78.3016 26.5198 78.1739 25.7753 78.1739 24.9996Z" fill="#FBBC05"/>
<path fill-rule="evenodd" clip-rule="evenodd" d="M85.2731 17.9091C86.9664 17.9091 88.4958 18.5091 89.6975 19.4909L93.1933 16C91.0631 14.1454 88.332 13 85.2731 13C80.5241 13 76.4426 15.7157 74.4883 19.684L78.5325 22.7723C79.4643 19.9437 82.1207 17.9091 85.2731 17.9091Z" fill="#EA4335"/>
<path fill-rule="evenodd" clip-rule="evenodd" d="M85.2731 32.0917C82.1208 32.0917 79.4645 30.0571 78.5327 27.2285L74.4883 30.3163C76.4426 34.2851 80.5241 37.0008 85.2731 37.0008C88.2041 37.0008 91.0025 35.96 93.1027 34.01L89.2638 31.0423C88.1807 31.7246 86.8166 32.0917 85.2731 32.0917Z" fill="#34A853"/>
<path fill-rule="evenodd" clip-rule="evenodd" d="M96.7441 25.0001C96.7441 24.291 96.6348 23.5273 96.4709 22.8184H85.2734V27.4547H91.7189C91.3966 29.0355 90.5195 30.2507 89.2642 31.0415L93.1031 34.0093C95.3092 31.9618 96.7441 28.9115 96.7441 25.0001Z" fill="#4285F4"/>
<rect x="120" width="50" height="50" rx="8" fill="black"/>
<path d="M147.086 22.5945L154.646 14H152.854L146.29 21.4625L141.047 14H135L142.928 25.2846L135 34.2973H136.792L143.724 26.4166L149.261 34.2973H155.308L147.085 22.5945H147.086ZM144.632 25.384L143.829 24.2603L137.437 15.319H140.189L145.347 22.5349L146.15 23.6586L152.855 33.0383H150.103L144.632 25.3845V25.384Z" fill="white"/>
</svg>
