<svg width="100" height="29" viewBox="0 0 100 29" fill="none" xmlns="http://www.w3.org/2000/svg">
<path fill-rule="evenodd" clip-rule="evenodd" d="M14.9965 0C6.71433 0 0 6.49187 0 14.4998C0 22.5085 6.71433 29 14.9965 29C23.2792 29 29.9932 22.5085 29.9932 14.4998C29.9932 6.49187 23.2792 0 14.9965 0ZM23.8675 12.8546C19.0334 10.0788 11.0598 9.8236 6.44518 11.178C5.70398 11.3953 4.92033 10.9908 4.69595 10.2743C4.47121 9.55729 4.88918 8.80011 5.63073 8.58229C10.9282 7.02759 19.7342 7.328 25.2992 10.5221C25.9659 10.9046 26.1845 11.7369 25.7893 12.3803C25.3939 13.0248 24.5324 13.2372 23.8675 12.8546ZM23.7091 16.9658C23.3702 17.4979 22.6506 17.6646 22.101 17.3381C18.0709 14.9429 11.9253 14.2489 7.15737 15.6483C6.5392 15.8291 5.8861 15.492 5.69825 14.8953C5.51201 14.2974 5.86067 13.6672 6.47795 13.4853C11.9246 11.8872 18.6957 12.6612 23.3245 15.4116C23.8741 15.7389 24.0471 16.4349 23.7091 16.9658ZM21.8741 20.9141C21.6048 21.3413 21.0293 21.4753 20.5891 21.2149C17.0673 19.1338 12.6348 18.6637 7.41471 19.8167C6.91168 19.9282 6.41026 19.6233 6.29565 19.1371C6.18032 18.6507 6.49443 18.1661 6.99853 18.0551C12.7111 16.7925 17.6114 17.3358 21.5642 19.6713C22.0049 19.9315 22.1437 20.4882 21.8741 20.9141Z" fill="#28B159"/>
<path d="M40.7998 13.3861C38.2105 12.7889 37.7494 12.3699 37.7494 11.4896C37.7494 10.6578 38.5595 10.098 39.764 10.098C40.9316 10.098 42.0891 10.5232 43.3031 11.3983C43.3398 11.4247 43.3858 11.4354 43.4311 11.4285C43.4764 11.4219 43.5164 11.3978 43.5431 11.3616L44.8073 9.63845C44.8593 9.56746 44.8451 9.46963 44.7751 9.41543C43.3305 8.29447 41.7037 7.74957 39.8023 7.74957C37.0065 7.74957 35.0537 9.3718 35.0537 11.6929C35.0537 14.182 36.7383 15.0632 39.6494 15.7435C42.1271 16.2953 42.5452 16.7576 42.5452 17.5841C42.5452 18.4999 41.6996 19.0692 40.3388 19.0692C38.8276 19.0692 37.5946 18.5769 36.2156 17.4222C36.1814 17.3938 36.1344 17.3806 36.0911 17.383C36.0456 17.3867 36.0039 17.4071 35.9749 17.4409L34.5573 19.0721C34.4978 19.1398 34.5054 19.2409 34.574 19.2995C36.1787 20.6845 38.1519 21.4162 40.2815 21.4162C43.2941 21.4162 45.2409 19.8244 45.2409 17.3611C45.2409 15.2793 43.9544 14.1278 40.7998 13.3861Z" fill="#28B159"/>
<path fill-rule="evenodd" clip-rule="evenodd" d="M48.7975 12.433C49.6807 11.414 50.7518 10.9169 52.0576 10.9169C54.484 10.9169 56.9402 12.7232 56.9402 16.1763C56.9402 19.6284 54.484 21.4343 52.0576 21.4343C50.7522 21.4343 49.6809 20.9661 48.7975 20.0076V24.0302C48.7975 24.1207 48.7216 24.1945 48.628 24.1945H46.3096C46.216 24.1945 46.1402 24.1207 46.1402 24.0302V11.2861C46.1402 11.1957 46.216 11.1219 46.3096 11.1219H48.628C48.7216 11.1219 48.7975 11.1957 48.7975 11.2861V12.433ZM51.521 19.1609C53.1246 19.1609 54.2445 17.9341 54.2445 16.1763C54.2445 14.4465 53.0988 13.1916 51.521 13.1916C49.9356 13.1916 48.7397 14.4743 48.7397 16.1763C48.7397 17.8784 49.9356 19.1609 51.521 19.1609Z" fill="#28B159"/>
<path fill-rule="evenodd" clip-rule="evenodd" d="M63.2363 10.9169C60.1115 10.9169 57.6635 13.2433 57.6635 16.2137C57.6635 19.1519 60.0947 21.4539 63.1979 21.4539C66.3338 21.4539 68.7893 19.1352 68.7893 16.1763C68.7893 13.2269 66.3506 10.9169 63.2363 10.9169ZM63.2363 19.1792C61.5742 19.1792 60.3212 17.8881 60.3212 16.1763C60.3212 14.4571 61.5309 13.2096 63.1979 13.2096C64.8707 13.2096 66.1321 14.5007 66.1321 16.2137C66.1321 17.9326 64.9142 19.1792 63.2363 19.1792Z" fill="#28B159"/>
<path d="M72.9107 11.122H75.462C75.5557 11.122 75.6311 11.1957 75.6311 11.2861V13.2127C75.6311 13.3033 75.5557 13.3771 75.462 13.3771H72.9107V18.0109C72.9107 18.7428 73.2427 19.0692 73.9864 19.0692C74.469 19.0692 74.9008 18.9689 75.3474 18.7516C75.3992 18.7268 75.462 18.7284 75.5125 18.759C75.5625 18.7888 75.5931 18.8422 75.5931 18.8988V20.7335C75.5931 20.792 75.5602 20.847 75.5073 20.8756C74.8571 21.2321 74.1671 21.3982 73.3355 21.3982C71.2902 21.3982 70.2532 20.3768 70.2532 18.3622V13.3771H69.1385C69.045 13.3771 68.9696 13.3033 68.9696 13.2127V11.2861C68.9696 11.1957 69.045 11.122 69.1385 11.122H70.2532V8.59971C70.2532 8.50933 70.3295 8.43556 70.4233 8.43556H72.7415C72.8351 8.43556 72.9107 8.50933 72.9107 8.59971V11.122Z" fill="#28B159"/>
<path d="M84.3511 11.1316V10.8219C84.3511 9.91057 84.7124 9.50419 85.5229 9.50419C86.0063 9.50419 86.3945 9.59717 86.8293 9.73725C86.8829 9.75353 86.9387 9.74539 86.9822 9.71457C87.027 9.68357 87.0523 9.63388 87.0523 9.58124V7.69219C87.0523 7.61999 87.0043 7.55592 86.9325 7.5348C86.4731 7.40269 85.8854 7.26694 85.0054 7.26694C82.8638 7.26694 81.732 8.43309 81.732 10.6376V11.1121H80.6182C80.5247 11.1121 80.4481 11.1858 80.4481 11.2764V13.2127C80.4481 13.3032 80.5247 13.377 80.6182 13.377H81.732V21.0664C81.732 21.1569 81.8076 21.2305 81.9011 21.2305H84.2194C84.3131 21.2305 84.3894 21.1569 84.3894 21.0664V13.377H86.5541L89.87 21.0643C89.4936 21.872 89.1235 22.0327 88.6181 22.0327C88.2096 22.0327 87.7795 21.9148 87.3397 21.6821C87.2983 21.6601 87.2494 21.6565 87.2047 21.6698C87.1604 21.685 87.1232 21.7167 87.1044 21.7585L86.3186 23.4254C86.2812 23.5041 86.313 23.5966 86.3915 23.6375C87.2118 24.067 87.9525 24.2504 88.8676 24.2504C90.5796 24.2504 91.5258 23.4792 92.3601 21.4049L96.3824 11.3555C96.4024 11.3049 96.3965 11.2478 96.3645 11.203C96.3326 11.1585 96.2812 11.1316 96.225 11.1316H93.8114C93.7392 11.1316 93.6744 11.1761 93.6507 11.2417L91.1782 18.0702L88.47 11.2372C88.4453 11.1737 88.3821 11.1316 88.3117 11.1316H84.3511Z" fill="#28B159"/>
<path d="M76.8797 11.1217H79.1982C79.2917 11.1217 79.368 11.1955 79.368 11.2859V21.0662C79.368 21.1567 79.2917 21.2303 79.1982 21.2303H76.8797C76.7861 21.2303 76.71 21.1567 76.71 21.0662V11.2859C76.71 11.1955 76.7861 11.1217 76.8797 11.1217Z" fill="#28B159"/>
<path d="M78.0498 6.66889C77.1315 6.66889 76.386 7.3878 76.386 8.27588C76.386 9.16448 77.1315 9.88426 78.0498 9.88426C78.9679 9.88426 79.7125 9.16448 79.7125 8.27588C79.7125 7.3878 78.9679 6.66889 78.0498 6.66889Z" fill="#28B159"/>
<path fill-rule="evenodd" clip-rule="evenodd" d="M99.1917 13.4664L98.7302 12.8416C98.9653 12.7759 99.1275 12.6101 99.1275 12.3386C99.1275 12.0073 98.8657 11.8104 98.468 11.8104H97.7042V13.4664H98.03V12.8933H98.3871L98.8025 13.4664H99.1917ZM98.03 12.0944H98.4548C98.6668 12.0944 98.7934 12.1858 98.7934 12.3562C98.7934 12.5179 98.6668 12.6182 98.4548 12.6182H98.03V12.0944Z" fill="#28B159"/>
<path fill-rule="evenodd" clip-rule="evenodd" d="M96.7283 12.6883C96.7283 13.5535 97.4422 14.266 98.3598 14.266C99.2773 14.266 100 13.5447 100 12.6793C100 11.8148 99.2859 11.1024 98.3684 11.1024C97.4516 11.1024 96.7283 11.8231 96.7283 12.6883ZM96.9002 12.6883C96.9002 11.9017 97.5327 11.2593 98.3684 11.2593C99.2001 11.2593 99.8285 11.8932 99.8285 12.6793C99.8285 13.4664 99.1954 14.1083 98.3598 14.1083C97.5282 14.1083 96.9002 13.4746 96.9002 12.6883Z" fill="#28B159"/>
</svg>
