<svg width="80" height="27" viewBox="0 0 80 27" fill="none" xmlns="http://www.w3.org/2000/svg">
<path d="M76.4912 4.88158H72.9825V0H65.2779L61.7347 4.88158H55.4386L53.3333 6.97368V4.88158H48.4211V0H32.9825V4.88158H11.2632L7.7193 0H0V16.7368L9.82456 26.5H19.6491V23.7105L22.4561 26.5H41.4035V23.7105L44.2105 26.5H53.3333V23.7105L56.1404 26.5H73.6842L80 20.2237V8.36842L76.4912 4.88158ZM11.9298 11.8553H7.01754V13.25H11.9298V18.8289H4.21053L1.40351 16.0395V1.39474H7.01754V6.27632H11.9298V11.8553ZM32.9825 18.8289H16.1404L13.3333 16.0395V6.27632H18.9474V13.25H20.3509V6.27632H25.9649V13.25H27.3684V6.27632H32.9825V18.8289ZM40 18.8289H34.386V6.27632H40V18.8289ZM40 4.88158H34.386V1.39474H40V4.88158ZM51.9298 11.8553H47.0175V13.25H51.9298V18.8289H44.2105L41.4035 16.0395V1.39474H47.0175V6.27632H51.9298V11.8553ZM64.5614 11.8553H58.9474V13.25H64.5614V18.8289H56.1404L53.3333 16.0395V9.06579L56.1404 6.27632H64.5614V11.8553ZM78.5965 18.8289H72.9825V11.8553H71.5789V18.8289H65.9649V1.39474H71.5789V6.27632H75.7895L78.5965 9.06579V18.8289Z" fill="#9147FF"/>
</svg>
