<svg width="94" height="27" viewBox="0 0 94 27" fill="none" xmlns="http://www.w3.org/2000/svg">
<path d="M38.8562 6.76674V8.53752H35.3337V20H33.1631V8.53752H29.6215V6.76674H38.8562ZM55.1446 9.5086L51.8887 20H49.6038L47.4903 12.2505L45.3767 20H43.0919L39.8169 9.5086H42.0256L44.2153 17.9436L46.443 9.5086H48.7089L50.8414 17.9055L53.0121 9.5086H55.1446ZM57.8711 8.11863C57.4776 8.11863 57.1476 7.98534 56.881 7.71877C56.6145 7.4522 56.4812 7.12217 56.4812 6.72866C56.4812 6.33515 56.6145 6.00511 56.881 5.73854C57.1476 5.47198 57.4776 5.33869 57.8711 5.33869C58.252 5.33869 58.5756 5.47198 58.8422 5.73854C59.1088 6.00511 59.2421 6.33515 59.2421 6.72866C59.2421 7.12217 59.1088 7.4522 58.8422 7.71877C58.5756 7.98534 58.252 8.11863 57.8711 8.11863ZM58.9374 9.5086V20H56.7668V9.5086H58.9374ZM64.3197 11.2794V17.0868C64.3197 17.4803 64.4085 17.7659 64.5862 17.9436C64.7767 18.1086 65.094 18.1911 65.5383 18.1911H66.8711V20H65.1575C64.18 20 63.4311 19.7715 62.9107 19.3145C62.3902 18.8576 62.13 18.115 62.13 17.0868V11.2794H60.8924V9.5086H62.13V6.90002H64.3197V9.5086H66.8711V11.2794H64.3197ZM71.4041 11.2794V17.0868C71.4041 17.4803 71.493 17.7659 71.6707 17.9436C71.8611 18.1086 72.1785 18.1911 72.6227 18.1911H73.9556V20H72.2419C71.2645 20 70.5156 19.7715 69.9951 19.3145C69.4747 18.8576 69.2145 18.115 69.2145 17.0868V11.2794H67.9768V9.5086H69.2145V6.90002H71.4041V9.5086H73.9556V11.2794H71.4041ZM85.5717 14.4972C85.5717 14.8908 85.5463 15.2462 85.4956 15.5635H77.4794C77.5429 16.4013 77.8539 17.0741 78.4124 17.5818C78.971 18.0896 79.6564 18.3435 80.4688 18.3435C81.6367 18.3435 82.4618 17.8548 82.9441 16.8773H85.2861C84.9688 17.8421 84.3912 18.6354 83.5534 19.2574C82.7283 19.8667 81.7001 20.1714 80.4688 20.1714C79.466 20.1714 78.5648 19.9492 77.7651 19.5049C76.978 19.048 76.356 18.4133 75.8991 17.6009C75.4548 16.7758 75.2326 15.8237 75.2326 14.7448C75.2326 13.6658 75.4484 12.7201 75.88 11.9077C76.3243 11.0826 76.94 10.4479 77.727 10.0037C78.5267 9.55937 79.4406 9.33723 80.4688 9.33723C81.4589 9.33723 82.3412 9.55302 83.1155 9.98461C83.8898 10.4162 84.4928 11.0255 84.9243 11.8125C85.3559 12.5868 85.5717 13.4817 85.5717 14.4972ZM83.3059 13.8118C83.2932 13.0121 83.0076 12.371 82.4491 11.8887C81.8905 11.4063 81.1987 11.1651 80.3736 11.1651C79.6247 11.1651 78.9837 11.4063 78.4505 11.8887C77.9174 12.3583 77.6 12.9994 77.4985 13.8118H83.3059ZM89.8785 11.0318C90.1958 10.4987 90.6147 10.0862 91.1352 9.79421C91.6683 9.48956 92.2967 9.33723 93.0202 9.33723V11.584H92.468C91.6175 11.584 90.9702 11.7998 90.5259 12.2314C90.0943 12.663 89.8785 13.4119 89.8785 14.4782V20H87.7079V9.5086H89.8785V11.0318Z" fill="black"/>
<path d="M13.9981 11.0796L22.7542 1.12012H20.6793L13.0763 9.76778L7.00387 1.12012H0L9.18276 14.1969L0 24.6409H2.07505L10.104 15.5087L16.5169 24.6409H23.5208L13.9976 11.0796H13.9981ZM11.156 14.3121L10.2256 13.01L2.82271 2.64859H6.00986L11.9841 11.0106L12.9145 12.3127L20.6803 23.182H17.4931L11.156 14.3126V14.3121Z" fill="black"/>
</svg>
