<svg width="188" height="30" viewBox="0 0 188 30" fill="none" xmlns="http://www.w3.org/2000/svg">
<path d="M14.3484 30C6.65395 30.0092 -0.0669804 23.4553 0.000503867 14.5498C0.0617396 6.68512 6.63896 -0.0352519 14.3722 0.000139152C22.2703 0.0355303 28.6663 6.77819 28.6476 15.0492C28.6251 23.2704 22.1953 29.9947 14.3484 30ZM6.44525 8.69717C7.99489 13.5104 9.52453 18.2659 11.1054 23.1682C11.2166 22.906 11.2641 22.8222 11.2941 22.7265C12.1477 20.0826 13.0062 17.4401 13.8385 14.7884C13.9026 14.5191 13.8874 14.2357 13.7948 13.9757C13.3461 12.6151 12.805 11.2847 12.4201 9.90571C12.1589 8.97244 11.7728 8.4206 10.7767 8.52022C10.4143 8.55561 10.0844 8.42191 10.1519 7.93561C10.2094 7.47946 10.5468 7.43096 10.9017 7.45586C11.5041 7.49781 12.1064 7.58039 12.7075 7.57383C14.2272 7.55679 15.7456 7.50305 17.264 7.45717C17.6189 7.44669 17.9613 7.45717 18.0226 7.9225C18.0888 8.44681 17.7289 8.53726 17.3552 8.57789C16.9815 8.61853 16.5829 8.64736 16.1155 8.688C17.6564 13.5012 19.1748 18.22 20.7457 23.1328C20.8706 22.771 20.9294 22.6085 20.9781 22.4525C21.4718 20.8324 21.9416 19.2044 22.4578 17.5921C23.3326 14.8631 23.2401 12.2756 21.5705 9.86639C21.2975 9.45481 21.0789 9.00639 20.9206 8.53333C20.322 6.84242 21.1581 5.17641 22.8264 5.04927C22.8464 5.04927 22.8614 4.98635 22.9089 4.89722C19.4485 1.85752 15.4969 0.861322 11.1329 1.96631C7.9749 2.76851 5.49922 4.67963 3.57842 7.58039C3.96833 7.60529 4.21827 7.64593 4.46446 7.63282C5.54546 7.5817 6.62646 7.51485 7.71371 7.45062C8.07237 7.42965 8.39605 7.5581 8.35231 7.9592C8.32981 8.17286 8.04863 8.45861 7.83243 8.52546C7.41878 8.6513 6.97388 8.64081 6.44525 8.69717ZM18.6024 27.6878C17.2665 23.8616 15.9455 20.0852 14.5684 16.1411C13.2412 20.1639 11.9752 24.0058 10.6943 27.9027C13.3986 28.6656 15.9793 28.6564 18.6024 27.6878ZM8.68473 26.9904L2.60365 9.57802C-0.296927 15.972 2.60365 24.1801 8.68473 26.9904ZM20.8356 26.5422C27.1004 22.8353 28.8063 14.2601 25.7683 8.94229C25.7008 9.81658 25.752 10.8429 25.5183 11.7932C25.0772 13.6047 24.5048 15.3822 23.9337 17.1543C22.9389 20.2478 21.9004 23.332 20.8356 26.5422Z" fill="#6563FF"/>
<path d="M49.3208 19.4476C49.5323 18.5425 49.7466 17.6395 49.9561 16.7344C50.5633 14.1146 51.1764 11.501 51.7663 8.87191C51.8426 8.53122 51.9729 8.43887 52.2828 8.44708C53.0368 8.46863 53.7927 8.45426 54.6085 8.45426L50.6319 23.4292C49.8595 23.4292 49.1162 23.4148 48.3776 23.4364C48.0349 23.4456 48.0455 23.1808 47.9914 22.9664C47.1341 19.7996 46.2791 16.6318 45.4262 13.463C45.3848 13.2704 45.2888 13.096 45.1511 12.9633L42.3108 23.4302C41.5384 23.4302 40.8008 23.4138 40.0632 23.4374C39.6848 23.4497 39.7157 23.1408 39.6568 22.9243C38.7107 19.3943 37.769 15.8625 36.8319 12.3291C36.495 11.0648 36.1561 9.80265 35.8085 8.49325H38.5456C39.3906 12.1362 40.2373 15.778 41.0856 19.4189L41.2102 19.4384C41.2623 19.2598 41.3212 19.0833 41.3656 18.9027C42.1785 15.619 42.9982 12.3352 43.7889 9.03918C43.9018 8.56509 44.0785 8.40911 44.5351 8.44195C45.1579 8.48812 45.7902 8.45426 46.4496 8.45426C47.362 12.1331 48.2695 15.7893 49.176 19.4466L49.3208 19.4476Z" fill="#303030"/>
<path d="M160.975 23.4365H158.46V12.3731H160.859V14.1773C161.557 12.9053 162.555 12.2211 163.967 12.213C165.396 12.2039 166.4 12.8708 166.962 14.2614C167.202 13.9199 167.377 13.5925 167.623 13.336C168.727 12.1765 170.077 11.9363 171.525 12.4299C172.974 12.9235 173.624 14.0881 173.653 15.5781C173.702 18.177 173.666 20.7768 173.666 23.4172H171.123V22.876C171.123 20.6978 171.123 18.5175 171.123 16.3413C171.123 14.5473 169.562 14.1682 168.514 14.5453C167.865 14.7784 167.506 15.2842 167.376 15.9562C167.322 16.272 167.297 16.5924 167.303 16.913C167.296 18.8713 167.303 20.8305 167.303 22.7918V23.4274H164.798V22.8861C164.798 20.6907 164.804 18.4952 164.792 16.2978C164.792 15.5142 164.496 14.8787 163.748 14.5605C163.027 14.2564 162.117 14.4348 161.596 14.9892C161.108 15.5082 160.976 16.1619 160.975 16.8562V23.4375V23.4365Z" fill="#303030"/>
<path d="M86.8037 18.397V23.4377H84.1532V8.48312C84.2748 8.46361 84.3974 8.4509 84.5204 8.44506C86.2851 8.44506 88.0517 8.4286 89.8133 8.44506C91.1391 8.46049 92.4093 8.74751 93.389 9.7176C94.9216 11.2339 95.2051 13.1124 94.5997 15.1205C94.0347 17.0216 92.6535 18.0482 90.7658 18.292C89.6721 18.433 88.5532 18.3671 87.4453 18.3949C87.2557 18.4011 87.0599 18.397 86.8037 18.397ZM86.847 10.7268V16.142C87.8297 16.142 88.7741 16.2037 89.7064 16.1276C91.2682 16 92.149 14.9816 92.1581 13.42C92.1672 11.8985 91.3005 10.8615 89.8073 10.7453C88.8407 10.662 87.863 10.7268 86.847 10.7268Z" fill="#303030"/>
<path d="M79.9356 13.855V8.43774H82.3594V23.187H79.9823V21.4158C79.8889 21.4919 79.8015 21.5761 79.721 21.6674C78.3861 23.6608 76.1644 24.0118 74.3289 22.5114C73.2647 21.642 72.7937 20.4246 72.6173 19.0622C72.3961 17.3579 72.4781 15.6841 73.2972 14.139C74.2659 12.313 76.3837 11.4943 78.1858 12.2298C78.942 12.5412 79.3978 13.1793 79.9356 13.855ZM79.988 17.6876L80.1215 17.646C79.9155 16.876 79.7859 16.0706 79.4836 15.3462C79.1146 14.4647 78.3622 14.0822 77.4602 14.1096C76.582 14.137 75.8793 14.5448 75.5007 15.401C74.8247 16.9227 74.8152 18.4931 75.5284 19.9976C76.3179 21.6613 78.4576 21.7221 79.4092 20.1599C79.8698 19.4061 79.9823 18.5611 79.988 17.6876Z" fill="#303030"/>
<path d="M111.884 18.4866H104.613C104.388 19.6347 105.218 21.2466 106.82 21.4264C107.891 21.5466 108.847 21.3172 109.421 20.2346C109.447 20.189 109.483 20.1503 109.527 20.1215C109.57 20.0928 109.619 20.0747 109.671 20.0687C110.371 20.1392 111.07 20.2316 111.808 20.323C111.655 21.1791 111.207 21.782 110.633 22.3093C108.987 23.809 105.027 24.0424 103.155 21.5913C101.493 19.4162 101.606 14.8257 104.266 13.043C106.951 11.2403 111.44 12.2047 111.88 16.7177C111.933 17.2858 111.884 17.8609 111.884 18.4866ZM109.529 16.7465C109.475 15.1624 108.512 14.1802 107.086 14.198C105.689 14.2149 104.561 15.3531 104.581 16.7465H109.529Z" fill="#303030"/>
<path d="M54.6075 17.2792C54.6384 15.8942 55.1575 14.2183 56.743 13.0777C59.7002 10.9487 63.825 12.8452 64.3572 16.5748C64.5155 17.6799 64.4949 18.7731 64.1988 19.8554C63.4492 22.6046 61.1488 23.6998 58.8794 23.3852C56.0871 22.9974 54.6178 21.0277 54.6075 17.2792ZM56.9744 17.951C57.1 18.5327 57.1787 19.1579 57.3726 19.7396C57.7475 20.8536 58.5289 21.4214 59.5587 21.4076C60.5538 21.3987 61.339 20.814 61.6998 19.7307C62.128 18.4446 62.1449 17.1486 61.6548 15.8724C61.2528 14.8238 60.4498 14.2539 59.4528 14.2895C58.973 14.3015 58.5094 14.4757 58.1303 14.7867C57.7513 15.0977 57.4768 15.5289 57.3473 16.0169C57.1777 16.6263 57.1065 17.2683 56.9782 17.951H56.9744Z" fill="#303030"/>
<path d="M146.818 17.7282C146.855 16.2838 147.207 14.8285 148.347 13.6883C149.884 12.1614 151.798 11.9178 153.816 12.4308C155.833 12.9437 156.923 14.3474 157.372 16.2669C157.696 17.5972 157.602 18.992 157.1 20.269C156.17 22.6548 153.93 23.6489 151.466 23.4004C148.621 23.1121 146.805 20.8824 146.818 17.7282ZM154.898 17.755L155.04 17.7093C154.785 16.9339 154.641 16.0979 154.251 15.3931C153.386 13.8334 151.042 13.8195 150.137 15.3623C149.211 16.9369 149.207 18.606 150.091 20.1945C150.991 21.8108 153.292 21.7979 154.28 20.2273C154.757 19.4688 154.884 18.6248 154.898 17.755Z" fill="#303030"/>
<path d="M122.646 20.2309L124.957 20.008C125.503 21.5187 126.832 21.7198 128.158 21.3087C128.678 21.1482 129.048 20.6638 129.064 20.2091C129.08 19.7059 128.857 19.3304 128.244 19.1323C127.471 18.8817 126.667 18.7361 125.878 18.5379C125.504 18.4572 125.136 18.3483 124.777 18.212C123.752 17.7781 123.029 17.0708 122.918 15.8573C122.799 14.5596 123.296 13.5789 124.356 12.9003C126.115 11.7859 129.015 12.0088 130.427 13.355C130.939 13.8405 131.267 14.498 131.355 15.2105C130.658 15.2927 129.985 15.3818 129.309 15.4373C129.222 15.4442 129.087 15.2927 129.03 15.1827C128.431 14.0158 126.598 13.7166 125.676 14.6418C125.202 15.1154 125.273 15.9207 125.883 16.2268C126.377 16.4745 126.937 16.6003 127.469 16.7479C128.161 16.9391 128.885 17.0332 129.555 17.2838C130.66 17.6979 131.535 18.3844 131.594 19.7465C131.652 21.065 131.09 22.0526 129.988 22.6728C128.196 23.6802 126.333 23.6406 124.494 22.856C123.982 22.6361 123.539 22.2748 123.213 21.8117C122.887 21.3486 122.691 20.8017 122.646 20.2309Z" fill="#303030"/>
<path d="M112.799 20.2305L115.127 20.0057C115.756 21.3764 117.086 21.8874 118.405 21.2694C118.842 21.0664 119.191 20.7395 119.213 20.1968C119.235 19.6373 118.902 19.2827 118.432 19.1411C117.626 18.8994 116.799 18.7331 115.983 18.5261C115.642 18.4502 115.307 18.351 114.979 18.229C113.913 17.7922 113.19 17.0603 113.091 15.8006C112.988 14.4933 113.505 13.5286 114.571 12.87C116.328 11.7866 119.186 12.0253 120.581 13.3573C121.07 13.8267 121.363 14.418 121.483 15.2143C120.809 15.2935 120.139 15.3826 119.466 15.4371C119.376 15.445 119.228 15.2984 119.18 15.1885C118.643 13.8931 116.71 13.8426 115.874 14.6081C115.333 15.1033 115.402 15.9085 116.076 16.2433C116.569 16.4889 117.125 16.5978 117.657 16.7573C118.494 17.0068 119.374 17.1534 120.161 17.5109C122.457 18.5528 122.019 21.4586 120.417 22.4856C118.52 23.7027 116.524 23.6978 114.539 22.7827C113.542 22.3152 112.969 21.4308 112.799 20.2305Z" fill="#303030"/>
<path d="M146.819 16.067H144.405C144.368 15.9932 144.335 15.9174 144.307 15.8401C144.04 14.9989 143.505 14.4341 142.617 14.3043C141.629 14.1596 140.801 14.4658 140.21 15.3149C139.297 16.6259 139.342 19.1605 140.309 20.4248C140.886 21.1818 141.677 21.4286 142.58 21.3166C143.449 21.2066 144.004 20.6755 144.272 19.8551C144.359 19.5866 144.492 19.4974 144.766 19.5043C145.42 19.5212 146.075 19.5043 146.795 19.5043C146.69 20.8786 146.125 21.9329 145.018 22.6285C142.379 24.2832 137.645 23.5817 137.043 18.8176C136.831 17.1332 137.067 15.5478 138.067 14.1507C139.647 11.9381 142.631 11.7399 144.731 12.8398C145.994 13.5036 146.662 14.5877 146.819 16.067Z" fill="#303030"/>
<path d="M95.7894 12.3865H98.2793V14.1393L98.4004 14.1861C98.7194 13.2782 99.3088 12.6049 100.202 12.3581C100.78 12.1977 101.413 12.2393 102.056 12.1875V14.6248C101.667 14.5943 101.305 14.5425 100.946 14.5395C99.3411 14.5283 98.3661 15.5083 98.3651 17.1189C98.3651 19.0301 98.3651 20.9413 98.3651 22.8526V23.4375H95.7894V12.3865Z" fill="#303030"/>
<path d="M68.8566 14.1694C69.2286 13.1779 69.9078 12.5338 70.9358 12.2846C71.0168 12.2632 71.0992 12.2473 71.1824 12.237C72.4388 12.1013 72.5156 12.1702 72.5156 13.4169V14.6323C72.0698 14.6009 71.6878 14.5482 71.3027 14.5512C69.7774 14.5634 68.8122 15.5337 68.8071 17.0569C68.8011 18.9812 68.8071 20.9055 68.8071 22.8298V23.4375H66.2489V12.3879C66.9989 12.3879 67.7478 12.3768 68.4948 12.4041C68.5777 12.4041 68.7121 12.6259 68.7202 12.7515C68.7465 13.2144 68.7303 13.6802 68.7303 14.1441L68.8566 14.1694Z" fill="#303030"/>
<path d="M134.245 23.4367C133.174 23.4055 132.47 22.8101 132.499 21.9591C132.525 21.1667 133.333 20.585 134.359 20.6272C134.593 20.6332 134.823 20.6761 135.036 20.7536C135.25 20.831 135.442 20.9414 135.601 21.0784C135.761 21.2154 135.885 21.3762 135.967 21.5517C136.049 21.7273 136.086 21.9139 136.077 22.1011C136.041 22.8376 135.182 23.4632 134.245 23.4367Z" fill="#303030"/>
</svg>
