<svg width="19" height="15" viewbox="0 0 19 15" fill="none" xmlns="http://www.w3.org/2000/svg">
<g clip-path="url(#clip0_651_2423)">
<rect x="0.5" y="0.5" width="18" height="14" rx="1.5" stroke="#869AC1"></rect>
<rect x="2.5" y="2.5" width="14" height="10" rx="0.5" stroke="#869AC1"></rect>
<line x1="9.5" y1="3" x2="9.5" y2="13" stroke="#869AC1"></line>
<path d="M7.69824 7.49805C7.69824 7.90137 7.66634 8.26253 7.60254 8.58154C7.54102 8.89827 7.44303 9.16715 7.30859 9.38818C7.17415 9.60921 6.9987 9.77783 6.78223 9.89404C6.56576 10.0103 6.30371 10.0684 5.99609 10.0684C5.611 10.0684 5.29313 9.96696 5.04248 9.76416C4.79183 9.55908 4.60612 9.26514 4.48535 8.88232C4.36458 8.49723 4.3042 8.03581 4.3042 7.49805C4.3042 6.96029 4.35889 6.5 4.46826 6.11719C4.57992 5.7321 4.75993 5.43701 5.0083 5.23193C5.25667 5.02686 5.58594 4.92432 5.99609 4.92432C6.38346 4.92432 6.70247 5.02686 6.95312 5.23193C7.20605 5.43473 7.3929 5.72868 7.51367 6.11377C7.63672 6.49658 7.69824 6.95801 7.69824 7.49805ZM5.11426 7.49805C5.11426 7.9196 5.1416 8.27165 5.19629 8.5542C5.25326 8.83675 5.34668 9.04867 5.47656 9.18994C5.60645 9.32894 5.77962 9.39844 5.99609 9.39844C6.21257 9.39844 6.38574 9.32894 6.51562 9.18994C6.64551 9.05094 6.73893 8.84017 6.7959 8.55762C6.85514 8.27507 6.88477 7.92188 6.88477 7.49805C6.88477 7.07878 6.85628 6.72786 6.79932 6.44531C6.74235 6.16276 6.64893 5.95085 6.51904 5.80957C6.38916 5.66602 6.21484 5.59424 5.99609 5.59424C5.77734 5.59424 5.60303 5.66602 5.47314 5.80957C5.34554 5.95085 5.25326 6.16276 5.19629 6.44531C5.1416 6.72786 5.11426 7.07878 5.11426 7.49805Z" fill="#869AC1"></path>
<path d="M14.6982 10H11.3145V9.39502L12.6099 8.08252C12.8605 7.82731 13.0667 7.60742 13.2285 7.42285C13.3903 7.236 13.5099 7.05941 13.5874 6.89307C13.6672 6.72673 13.707 6.54557 13.707 6.34961C13.707 6.10807 13.6375 5.92578 13.4985 5.80273C13.3595 5.67741 13.1761 5.61475 12.9482 5.61475C12.7318 5.61475 12.5312 5.65804 12.3467 5.74463C12.1644 5.82894 11.9753 5.94971 11.7793 6.10693L11.3384 5.57715C11.4774 5.45866 11.6255 5.35042 11.7827 5.25244C11.9422 5.15446 12.12 5.07699 12.3159 5.02002C12.5119 4.96077 12.7352 4.93115 12.9858 4.93115C13.3026 4.93115 13.576 4.98812 13.8062 5.10205C14.0363 5.2137 14.2129 5.36979 14.3359 5.57031C14.4613 5.77083 14.5239 6.00439 14.5239 6.271C14.5239 6.53988 14.4704 6.78825 14.3633 7.01611C14.2562 7.24398 14.1035 7.46956 13.9053 7.69287C13.707 7.9139 13.4712 8.1543 13.1978 8.41406L12.333 9.2583V9.2959H14.6982V10Z" fill="#869AC1"></path>
</g>
<defs>
<clippath id="clip0_651_2423">
<rect width="19" height="15" fill="white"></rect>
</clippath>
</defs>
</svg>
